<svg width="148" height="44" viewBox="0 0 148 44" fill="none" xmlns="http://www.w3.org/2000/svg">
<rect x="0.5" y="0.404053" width="147" height="43" rx="8" fill="#F2F3F6"/>
<path d="M37.986 20.8243L24.875 13.3228C24.6839 13.2113 24.4666 13.1526 24.2453 13.1526C24.0241 13.1526 23.8068 13.2113 23.6157 13.3228C23.4273 13.4308 23.2711 13.5868 23.1629 13.775C23.0548 13.9632 22.9985 14.1768 23 14.3939V29.4142C22.9994 29.631 23.0564 29.8442 23.1651 30.0318C23.2738 30.2194 23.4303 30.3748 23.6188 30.4822C23.8099 30.5936 24.0272 30.6523 24.2485 30.6523C24.4697 30.6523 24.687 30.5936 24.8782 30.4822L37.986 22.9822C38.1796 22.876 38.3411 22.7198 38.4535 22.5299C38.566 22.3399 38.6254 22.1232 38.6254 21.9025C38.6254 21.6817 38.566 21.465 38.4535 21.275C38.3411 21.0851 38.1796 20.9289 37.986 20.8228V20.8243ZM31.75 22.7876L33.2282 24.2657L26.3141 28.2236L31.75 22.7876ZM26.3125 15.5837L33.2289 19.5423L31.75 21.0204L26.3125 15.5837ZM34.3524 23.6228L32.6336 21.904L34.3524 20.1853L37.3547 21.904L34.3524 23.6228Z" fill="black"/>
<path d="M54.832 22.0921H58.228V26.5321C57.78 26.6841 57.312 26.8041 56.824 26.8921C56.344 26.9801 55.796 27.0241 55.18 27.0241C54.332 27.0241 53.608 26.8561 53.008 26.5201C52.416 26.1841 51.964 25.6881 51.652 25.0321C51.348 24.3761 51.196 23.5681 51.196 22.6081C51.196 21.7121 51.368 20.9361 51.712 20.2801C52.064 19.6241 52.572 19.1161 53.236 18.7561C53.9 18.3961 54.712 18.2161 55.672 18.2161C56.128 18.2161 56.576 18.2641 57.016 18.3601C57.456 18.4561 57.856 18.5841 58.216 18.7441L57.616 20.1961C57.352 20.0601 57.052 19.9481 56.716 19.8601C56.38 19.7721 56.028 19.7281 55.66 19.7281C55.132 19.7281 54.672 19.8481 54.28 20.0881C53.896 20.3281 53.596 20.6681 53.38 21.1081C53.172 21.5401 53.068 22.0521 53.068 22.6441C53.068 23.2041 53.144 23.7001 53.296 24.1321C53.448 24.5641 53.688 24.9041 54.016 25.1521C54.344 25.3921 54.772 25.5121 55.3 25.5121C55.476 25.5121 55.628 25.5081 55.756 25.5001C55.892 25.4841 56.016 25.4681 56.128 25.4521C56.24 25.4281 56.348 25.4081 56.452 25.3921V23.6041H54.832V22.0921ZM66.6716 23.6161C66.6716 24.1601 66.5956 24.6441 66.4436 25.0681C66.2996 25.4921 66.0876 25.8521 65.8076 26.1481C65.5356 26.4361 65.2036 26.6561 64.8116 26.8081C64.4196 26.9521 63.9756 27.0241 63.4796 27.0241C63.0236 27.0241 62.5996 26.9521 62.2076 26.8081C61.8236 26.6561 61.4916 26.4361 61.2116 26.1481C60.9316 25.8521 60.7116 25.4921 60.5516 25.0681C60.3996 24.6441 60.3236 24.1601 60.3236 23.6161C60.3236 22.8881 60.4516 22.2761 60.7076 21.7801C60.9636 21.2761 61.3316 20.8921 61.8116 20.6281C62.2916 20.3641 62.8596 20.2321 63.5156 20.2321C64.1316 20.2321 64.6756 20.3641 65.1476 20.6281C65.6196 20.8921 65.9916 21.2761 66.2636 21.7801C66.5356 22.2761 66.6716 22.8881 66.6716 23.6161ZM62.1476 23.6161C62.1476 24.0481 62.1916 24.4121 62.2796 24.7081C62.3756 24.9961 62.5236 25.2161 62.7236 25.3681C62.9236 25.5121 63.1836 25.5841 63.5036 25.5841C63.8236 25.5841 64.0796 25.5121 64.2716 25.3681C64.4716 25.2161 64.6156 24.9961 64.7036 24.7081C64.7996 24.4121 64.8476 24.0481 64.8476 23.6161C64.8476 23.1841 64.7996 22.8241 64.7036 22.5361C64.6156 22.2481 64.4716 22.0321 64.2716 21.8881C64.0716 21.7441 63.8116 21.6721 63.4916 21.6721C63.0196 21.6721 62.6756 21.8361 62.4596 22.1641C62.2516 22.4841 62.1476 22.9681 62.1476 23.6161ZM74.7013 23.6161C74.7013 24.1601 74.6253 24.6441 74.4733 25.0681C74.3293 25.4921 74.1173 25.8521 73.8373 26.1481C73.5653 26.4361 73.2333 26.6561 72.8413 26.8081C72.4493 26.9521 72.0053 27.0241 71.5093 27.0241C71.0533 27.0241 70.6293 26.9521 70.2373 26.8081C69.8533 26.6561 69.5213 26.4361 69.2413 26.1481C68.9613 25.8521 68.7413 25.4921 68.5813 25.0681C68.4293 24.6441 68.3533 24.1601 68.3533 23.6161C68.3533 22.8881 68.4813 22.2761 68.7373 21.7801C68.9933 21.2761 69.3613 20.8921 69.8413 20.6281C70.3213 20.3641 70.8893 20.2321 71.5453 20.2321C72.1613 20.2321 72.7053 20.3641 73.1773 20.6281C73.6493 20.8921 74.0213 21.2761 74.2933 21.7801C74.5653 22.2761 74.7013 22.8881 74.7013 23.6161ZM70.1773 23.6161C70.1773 24.0481 70.2213 24.4121 70.3093 24.7081C70.4053 24.9961 70.5533 25.2161 70.7533 25.3681C70.9533 25.5121 71.2133 25.5841 71.5333 25.5841C71.8533 25.5841 72.1093 25.5121 72.3013 25.3681C72.5013 25.2161 72.6453 24.9961 72.7333 24.7081C72.8293 24.4121 72.8773 24.0481 72.8773 23.6161C72.8773 23.1841 72.8293 22.8241 72.7333 22.5361C72.6453 22.2481 72.5013 22.0321 72.3013 21.8881C72.1013 21.7441 71.8413 21.6721 71.5213 21.6721C71.0493 21.6721 70.7053 21.8361 70.4893 22.1641C70.2813 22.4841 70.1773 22.9681 70.1773 23.6161ZM78.903 20.2321C79.303 20.2321 79.663 20.3121 79.983 20.4721C80.303 20.6321 80.575 20.8721 80.799 21.1921H80.847L80.991 20.3521H82.503V26.9161C82.503 27.5401 82.379 28.0641 82.131 28.4881C81.891 28.9121 81.527 29.2321 81.039 29.4481C80.551 29.6721 79.947 29.7841 79.227 29.7841C78.763 29.7841 78.331 29.7561 77.931 29.7001C77.539 29.6441 77.155 29.5441 76.779 29.4001V27.9721C77.051 28.0841 77.323 28.1761 77.595 28.2481C77.875 28.3281 78.159 28.3841 78.447 28.4161C78.743 28.4561 79.039 28.4761 79.335 28.4761C79.799 28.4761 80.143 28.3521 80.367 28.1041C80.599 27.8561 80.715 27.4841 80.715 26.9881V26.8561C80.715 26.7201 80.719 26.5801 80.727 26.4361C80.743 26.2921 80.755 26.1641 80.763 26.0521H80.715C80.491 26.3961 80.223 26.6441 79.911 26.7961C79.599 26.9481 79.247 27.0241 78.855 27.0241C78.079 27.0241 77.471 26.7281 77.031 26.1361C76.599 25.5361 76.383 24.7041 76.383 23.6401C76.383 22.9201 76.483 22.3081 76.683 21.8041C76.883 21.2921 77.171 20.9041 77.547 20.6401C77.931 20.3681 78.383 20.2321 78.903 20.2321ZM79.467 21.6841C79.187 21.6841 78.951 21.7601 78.759 21.9121C78.575 22.0561 78.435 22.2761 78.339 22.5721C78.251 22.8601 78.207 23.2241 78.207 23.6641C78.207 24.3201 78.311 24.8121 78.519 25.1401C78.727 25.4601 79.051 25.6201 79.491 25.6201C79.723 25.6201 79.923 25.5921 80.091 25.5361C80.259 25.4721 80.395 25.3721 80.499 25.2361C80.611 25.0921 80.695 24.9081 80.751 24.6841C80.807 24.4601 80.835 24.1881 80.835 23.8681V23.6521C80.835 23.1801 80.787 22.8001 80.691 22.5121C80.595 22.2241 80.447 22.0161 80.247 21.8881C80.047 21.7521 79.787 21.6841 79.467 21.6841ZM86.7607 26.9041H84.9727V17.7841H86.7607V26.9041ZM91.929 20.2321C92.537 20.2321 93.057 20.3481 93.489 20.5801C93.929 20.8121 94.269 21.1481 94.509 21.5881C94.749 22.0281 94.869 22.5681 94.869 23.2081V24.0721H90.645C90.661 24.5761 90.809 24.9721 91.089 25.2601C91.377 25.5481 91.773 25.6921 92.277 25.6921C92.701 25.6921 93.085 25.6521 93.429 25.5721C93.773 25.4841 94.129 25.3521 94.497 25.1761V26.5561C94.177 26.7161 93.837 26.8321 93.477 26.9041C93.125 26.9841 92.697 27.0241 92.193 27.0241C91.537 27.0241 90.957 26.9041 90.453 26.6641C89.949 26.4161 89.553 26.0441 89.265 25.5481C88.977 25.0521 88.833 24.4281 88.833 23.6761C88.833 22.9081 88.961 22.2721 89.217 21.7681C89.481 21.2561 89.845 20.8721 90.309 20.6161C90.773 20.3601 91.313 20.2321 91.929 20.2321ZM91.941 21.5041C91.597 21.5041 91.309 21.6161 91.077 21.8401C90.853 22.0641 90.721 22.4121 90.681 22.8841H93.189C93.189 22.6201 93.141 22.3841 93.045 22.1761C92.957 21.9681 92.821 21.8041 92.637 21.6841C92.453 21.5641 92.221 21.5041 91.941 21.5041ZM103.516 18.3361C104.62 18.3361 105.424 18.5761 105.928 19.0561C106.44 19.5281 106.696 20.1801 106.696 21.0121C106.696 21.3881 106.64 21.7481 106.528 22.0921C106.416 22.4281 106.228 22.7321 105.964 23.0041C105.708 23.2681 105.368 23.4761 104.944 23.6281C104.52 23.7801 103.996 23.8561 103.372 23.8561H102.592V26.9041H100.78V18.3361H103.516ZM103.42 19.8241H102.592V22.3681H103.192C103.536 22.3681 103.832 22.3241 104.08 22.2361C104.328 22.1481 104.52 22.0081 104.656 21.8161C104.792 21.6241 104.86 21.3761 104.86 21.0721C104.86 20.6481 104.744 20.3361 104.512 20.1361C104.28 19.9281 103.916 19.8241 103.42 19.8241ZM110.559 26.9041H108.771V17.7841H110.559V26.9041ZM115.715 20.2201C116.595 20.2201 117.267 20.4121 117.731 20.7961C118.203 21.1721 118.439 21.7521 118.439 22.5361V26.9041H117.191L116.843 26.0161H116.795C116.611 26.2481 116.419 26.4401 116.219 26.5921C116.027 26.7441 115.803 26.8521 115.547 26.9161C115.299 26.9881 114.991 27.0241 114.623 27.0241C114.239 27.0241 113.891 26.9521 113.579 26.8081C113.275 26.6561 113.035 26.4281 112.859 26.1241C112.683 25.8121 112.595 25.4201 112.595 24.9481C112.595 24.2521 112.839 23.7401 113.327 23.4121C113.815 23.0761 114.547 22.8921 115.523 22.8601L116.663 22.8241V22.5361C116.663 22.1921 116.571 21.9401 116.387 21.7801C116.211 21.6201 115.963 21.5401 115.643 21.5401C115.323 21.5401 115.011 21.5881 114.707 21.6841C114.403 21.7721 114.099 21.8841 113.795 22.0201L113.207 20.8081C113.559 20.6241 113.947 20.4801 114.371 20.3761C114.803 20.2721 115.251 20.2201 115.715 20.2201ZM115.967 23.8921C115.391 23.9081 114.991 24.0121 114.767 24.2041C114.543 24.3961 114.431 24.6481 114.431 24.9601C114.431 25.2321 114.511 25.4281 114.671 25.5481C114.831 25.6601 115.039 25.7161 115.295 25.7161C115.679 25.7161 116.003 25.6041 116.267 25.3801C116.531 25.1481 116.663 24.8241 116.663 24.4081V23.8681L115.967 23.8921ZM119.934 20.3521H121.89L123.126 24.0361C123.166 24.1561 123.198 24.2761 123.222 24.3961C123.254 24.5161 123.278 24.6401 123.294 24.7681C123.318 24.8961 123.334 25.0321 123.342 25.1761H123.378C123.402 24.9681 123.434 24.7721 123.474 24.5881C123.522 24.3961 123.574 24.2121 123.63 24.0361L124.842 20.3521H126.762L123.99 27.7441C123.822 28.1921 123.602 28.5681 123.33 28.8721C123.066 29.1761 122.758 29.4041 122.406 29.5561C122.054 29.7081 121.67 29.7841 121.254 29.7841C121.054 29.7841 120.878 29.7721 120.726 29.7481C120.582 29.7321 120.454 29.7121 120.342 29.6881V28.2721C120.43 28.2881 120.534 28.3041 120.654 28.3201C120.782 28.3361 120.914 28.3441 121.05 28.3441C121.298 28.3441 121.51 28.2921 121.686 28.1881C121.87 28.0841 122.022 27.9401 122.142 27.7561C122.262 27.5801 122.358 27.3881 122.43 27.1801L122.538 26.8561L119.934 20.3521Z" fill="black"/>
</svg>
