<svg width="148" height="44" viewBox="0 0 148 44" fill="none" xmlns="http://www.w3.org/2000/svg">
<rect x="0.5" y="0.404053" width="147" height="43" rx="8" fill="#F2F3F6"/>
<g clip-path="url(#clip0_1780_32545)">
<path d="M37.518 14.2478C37.6913 13.5765 38.083 12.9819 38.6313 12.5576C39.1796 12.1333 39.8535 11.9034 40.5469 11.9041H40.625C40.7908 11.9041 40.9497 11.9699 41.0669 12.0871C41.1841 12.2043 41.25 12.3633 41.25 12.5291C41.25 12.6948 41.1841 12.8538 41.0669 12.971C40.9497 13.0882 40.7908 13.1541 40.625 13.1541H40.5469C40.1312 13.154 39.7272 13.2921 39.3986 13.5467C39.0699 13.8012 38.8352 14.1578 38.7312 14.5603C38.6898 14.7209 38.5863 14.8584 38.4434 14.9427C38.3006 15.0269 38.1301 15.051 37.9695 15.0095C37.8089 14.9681 37.6714 14.8645 37.5872 14.7217C37.5029 14.5789 37.4789 14.4084 37.5203 14.2478H37.518ZM44.9453 25.1533C44.8984 25.0462 44.8227 24.9542 44.7266 24.8876C43.4008 23.9767 43.125 22.4228 43.125 21.2791C43.125 19.8986 44.1773 18.6962 44.8047 18.1017C44.8664 18.0433 44.9155 17.9729 44.9491 17.8949C44.9827 17.8168 45 17.7328 45 17.6478C45 17.5628 44.9827 17.4788 44.9491 17.4007C44.9155 17.3227 44.8664 17.2523 44.8047 17.1939C43.8141 16.2587 42.1734 15.6541 40.625 15.6541C39.5127 15.655 38.4255 15.9847 37.5 16.6017C36.4204 15.8778 35.1223 15.5527 33.8289 15.6823C32.5355 15.8119 31.3278 16.3881 30.4133 17.3119C29.8666 17.87 29.4376 18.5323 29.1519 19.2594C28.8662 19.9865 28.7295 20.7637 28.75 21.5447C28.7807 22.8629 29.0738 24.1618 29.6122 25.3655C30.1507 26.5691 30.9236 27.6534 31.8859 28.5548C32.4655 29.1024 33.2332 29.4064 34.0305 29.4041H40.8805C41.3067 29.4049 41.7286 29.3181 42.1199 29.1492C42.5112 28.9803 42.8637 28.7328 43.1555 28.422C43.6959 27.8404 44.1634 27.195 44.5476 26.5001C45.0961 25.4978 45.0258 25.3416 44.9453 25.1533Z" fill="black"/>
</g>
<path d="M63.824 26.9041L63.2 24.8641H60.08L59.456 26.9041H57.5L60.524 18.3001H62.744L65.78 26.9041H63.824ZM62.144 21.3481C62.104 21.2121 62.052 21.0401 61.988 20.8321C61.924 20.6241 61.86 20.4121 61.796 20.1961C61.732 19.9801 61.68 19.7921 61.64 19.6321C61.6 19.7921 61.544 19.9921 61.472 20.2321C61.408 20.4641 61.344 20.6881 61.28 20.9041C61.224 21.1121 61.18 21.2601 61.148 21.3481L60.536 23.3401H62.768L62.144 21.3481ZM70.9692 20.2321C71.7052 20.2321 72.3012 20.5201 72.7572 21.0961C73.2132 21.6641 73.4412 22.5041 73.4412 23.6161C73.4412 24.3601 73.3332 24.9881 73.1172 25.5001C72.9012 26.0041 72.6052 26.3841 72.2292 26.6401C71.8532 26.8961 71.4172 27.0241 70.9212 27.0241C70.6092 27.0241 70.3372 26.9841 70.1052 26.9041C69.8812 26.8241 69.6892 26.7201 69.5292 26.5921C69.3692 26.4641 69.2292 26.3281 69.1092 26.1841H69.0132C69.0452 26.3361 69.0692 26.4961 69.0852 26.6641C69.1012 26.8241 69.1092 26.9841 69.1092 27.1441V29.7841H67.3212V20.3521H68.7732L69.0252 21.2041H69.1092C69.2292 21.0281 69.3732 20.8681 69.5412 20.7241C69.7092 20.5721 69.9092 20.4521 70.1412 20.3641C70.3812 20.2761 70.6572 20.2321 70.9692 20.2321ZM70.3932 21.6601C70.0812 21.6601 69.8332 21.7241 69.6492 21.8521C69.4652 21.9801 69.3292 22.1761 69.2412 22.4401C69.1612 22.6961 69.1172 23.0201 69.1092 23.4121V23.6041C69.1092 24.0281 69.1492 24.3881 69.2292 24.6841C69.3092 24.9721 69.4452 25.1921 69.6372 25.3441C69.8292 25.4961 70.0892 25.5721 70.4172 25.5721C70.6892 25.5721 70.9132 25.4961 71.0892 25.3441C71.2652 25.1921 71.3972 24.9681 71.4852 24.6721C71.5732 24.3761 71.6172 24.0161 71.6172 23.5921C71.6172 22.9521 71.5172 22.4721 71.3172 22.1521C71.1252 21.8241 70.8172 21.6601 70.3932 21.6601ZM79.1629 20.2321C79.8989 20.2321 80.4949 20.5201 80.9509 21.0961C81.4069 21.6641 81.6349 22.5041 81.6349 23.6161C81.6349 24.3601 81.5269 24.9881 81.3109 25.5001C81.0949 26.0041 80.7989 26.3841 80.4229 26.6401C80.0469 26.8961 79.6109 27.0241 79.1149 27.0241C78.8029 27.0241 78.5309 26.9841 78.2989 26.9041C78.0749 26.8241 77.8829 26.7201 77.7229 26.5921C77.5629 26.4641 77.4229 26.3281 77.3029 26.1841H77.2069C77.2389 26.3361 77.2629 26.4961 77.2789 26.6641C77.2949 26.8241 77.3029 26.9841 77.3029 27.1441V29.7841H75.5149V20.3521H76.9669L77.2189 21.2041H77.3029C77.4229 21.0281 77.5669 20.8681 77.7349 20.7241C77.9029 20.5721 78.1029 20.4521 78.3349 20.3641C78.5749 20.2761 78.8509 20.2321 79.1629 20.2321ZM78.5869 21.6601C78.2749 21.6601 78.0269 21.7241 77.8429 21.8521C77.6589 21.9801 77.5229 22.1761 77.4349 22.4401C77.3549 22.6961 77.3109 23.0201 77.3029 23.4121V23.6041C77.3029 24.0281 77.3429 24.3881 77.4229 24.6841C77.5029 24.9721 77.6389 25.1921 77.8309 25.3441C78.0229 25.4961 78.2829 25.5721 78.6109 25.5721C78.8829 25.5721 79.1069 25.4961 79.2829 25.3441C79.4589 25.1921 79.5909 24.9681 79.6789 24.6721C79.7669 24.3761 79.8109 24.0161 79.8109 23.5921C79.8109 22.9521 79.7109 22.4721 79.5109 22.1521C79.3189 21.8241 79.0109 21.6601 78.5869 21.6601ZM92.6218 24.5281C92.6218 25.0321 92.4978 25.4721 92.2498 25.8481C92.0018 26.2241 91.6418 26.5161 91.1698 26.7241C90.7058 26.9241 90.1378 27.0241 89.4658 27.0241C89.1698 27.0241 88.8778 27.0041 88.5898 26.9641C88.3098 26.9241 88.0378 26.8681 87.7738 26.7961C87.5178 26.7161 87.2738 26.6201 87.0418 26.5081V24.8161C87.4498 24.9921 87.8698 25.1561 88.3018 25.3081C88.7418 25.4521 89.1778 25.5241 89.6098 25.5241C89.9058 25.5241 90.1418 25.4841 90.3178 25.4041C90.5018 25.3241 90.6338 25.2161 90.7138 25.0801C90.8018 24.9441 90.8458 24.7881 90.8458 24.6121C90.8458 24.3961 90.7698 24.2121 90.6178 24.0601C90.4738 23.9081 90.2778 23.7681 90.0298 23.6401C89.7818 23.5041 89.4978 23.3601 89.1778 23.2081C88.9778 23.1121 88.7618 23.0001 88.5298 22.8721C88.2978 22.7361 88.0738 22.5721 87.8578 22.3801C87.6498 22.1801 87.4778 21.9401 87.3418 21.6601C87.2058 21.3801 87.1378 21.0441 87.1378 20.6521C87.1378 20.1401 87.2538 19.7041 87.4858 19.3441C87.7258 18.9761 88.0618 18.6961 88.4938 18.5041C88.9338 18.3121 89.4498 18.2161 90.0418 18.2161C90.4898 18.2161 90.9138 18.2681 91.3138 18.3721C91.7218 18.4761 92.1458 18.6241 92.5858 18.8161L91.9978 20.2321C91.6058 20.0721 91.2538 19.9481 90.9418 19.8601C90.6298 19.7721 90.3098 19.7281 89.9818 19.7281C89.7578 19.7281 89.5658 19.7641 89.4058 19.8361C89.2458 19.9081 89.1218 20.0081 89.0338 20.1361C88.9538 20.2641 88.9138 20.4161 88.9138 20.5921C88.9138 20.7921 88.9738 20.9641 89.0938 21.1081C89.2138 21.2441 89.3938 21.3761 89.6338 21.5041C89.8738 21.6321 90.1738 21.7841 90.5338 21.9601C90.9738 22.1681 91.3458 22.3841 91.6498 22.6081C91.9618 22.8321 92.2018 23.0961 92.3698 23.4001C92.5378 23.7041 92.6218 24.0801 92.6218 24.5281ZM97.3952 25.5961C97.5952 25.5961 97.7872 25.5761 97.9712 25.5361C98.1552 25.4961 98.3392 25.4481 98.5232 25.3921V26.7241C98.3312 26.8041 98.0912 26.8721 97.8032 26.9281C97.5232 26.9921 97.2152 27.0241 96.8792 27.0241C96.4872 27.0241 96.1352 26.9601 95.8232 26.8321C95.5192 26.7041 95.2752 26.4841 95.0912 26.1721C94.9152 25.8521 94.8272 25.4121 94.8272 24.8521V21.6961H93.9752V20.9401L94.9592 20.3401L95.4752 18.9601H96.6152V20.3521H98.4512V21.6961H96.6152V24.8521C96.6152 25.1001 96.6872 25.2881 96.8312 25.4161C96.9752 25.5361 97.1632 25.5961 97.3952 25.5961ZM106.39 23.6161C106.39 24.1601 106.314 24.6441 106.162 25.0681C106.018 25.4921 105.806 25.8521 105.526 26.1481C105.254 26.4361 104.922 26.6561 104.53 26.8081C104.138 26.9521 103.694 27.0241 103.198 27.0241C102.742 27.0241 102.318 26.9521 101.926 26.8081C101.542 26.6561 101.21 26.4361 100.93 26.1481C100.65 25.8521 100.43 25.4921 100.27 25.0681C100.118 24.6441 100.042 24.1601 100.042 23.6161C100.042 22.8881 100.17 22.2761 100.426 21.7801C100.682 21.2761 101.05 20.8921 101.53 20.6281C102.01 20.3641 102.578 20.2321 103.234 20.2321C103.85 20.2321 104.394 20.3641 104.866 20.6281C105.338 20.8921 105.71 21.2761 105.982 21.7801C106.254 22.2761 106.39 22.8881 106.39 23.6161ZM101.866 23.6161C101.866 24.0481 101.91 24.4121 101.998 24.7081C102.094 24.9961 102.242 25.2161 102.442 25.3681C102.642 25.5121 102.902 25.5841 103.222 25.5841C103.542 25.5841 103.798 25.5121 103.99 25.3681C104.19 25.2161 104.334 24.9961 104.422 24.7081C104.518 24.4121 104.566 24.0481 104.566 23.6161C104.566 23.1841 104.518 22.8241 104.422 22.5361C104.334 22.2481 104.19 22.0321 103.99 21.8881C103.79 21.7441 103.53 21.6721 103.21 21.6721C102.738 21.6721 102.394 21.8361 102.178 22.1641C101.97 22.4841 101.866 22.9681 101.866 23.6161ZM112.128 20.2321C112.216 20.2321 112.32 20.2361 112.44 20.2441C112.56 20.2521 112.656 20.2641 112.728 20.2801L112.596 21.9601C112.54 21.9441 112.456 21.9321 112.344 21.9241C112.24 21.9081 112.148 21.9001 112.068 21.9001C111.836 21.9001 111.612 21.9321 111.396 21.9961C111.18 22.0521 110.984 22.1441 110.808 22.2721C110.64 22.4001 110.504 22.5721 110.4 22.7881C110.304 22.9961 110.256 23.2561 110.256 23.5681V26.9041H108.468V20.3521H109.824L110.088 21.4561H110.172C110.3 21.2321 110.46 21.0281 110.652 20.8441C110.844 20.6601 111.064 20.5121 111.312 20.4001C111.568 20.2881 111.84 20.2321 112.128 20.2321ZM116.983 20.2321C117.591 20.2321 118.111 20.3481 118.543 20.5801C118.983 20.8121 119.323 21.1481 119.563 21.5881C119.803 22.0281 119.923 22.5681 119.923 23.2081V24.0721H115.699C115.715 24.5761 115.863 24.9721 116.143 25.2601C116.431 25.5481 116.827 25.6921 117.331 25.6921C117.755 25.6921 118.139 25.6521 118.483 25.5721C118.827 25.4841 119.183 25.3521 119.551 25.1761V26.5561C119.231 26.7161 118.891 26.8321 118.531 26.9041C118.179 26.9841 117.751 27.0241 117.247 27.0241C116.591 27.0241 116.011 26.9041 115.507 26.6641C115.003 26.4161 114.607 26.0441 114.319 25.5481C114.031 25.0521 113.887 24.4281 113.887 23.6761C113.887 22.9081 114.015 22.2721 114.271 21.7681C114.535 21.2561 114.899 20.8721 115.363 20.6161C115.827 20.3601 116.367 20.2321 116.983 20.2321ZM116.995 21.5041C116.651 21.5041 116.363 21.6161 116.131 21.8401C115.907 22.0641 115.775 22.4121 115.735 22.8841H118.243C118.243 22.6201 118.195 22.3841 118.099 22.1761C118.011 21.9681 117.875 21.8041 117.691 21.6841C117.507 21.5641 117.275 21.5041 116.995 21.5041Z" fill="black"/>
<defs>
<clipPath id="clip0_1780_32545">
<rect width="20" height="20" fill="white" transform="translate(27.5 11.9041)"/>
</clipPath>
</defs>
</svg>
