<svg width="21" height="22" viewBox="0 0 21 22" fill="none" xmlns="http://www.w3.org/2000/svg">
<path d="M19.6781 8.6375C19.3219 8.27188 18.9562 7.8875 18.8156 7.55938C18.675 7.23125 18.6844 6.74375 18.675 6.24688C18.6656 5.3375 18.6469 4.29687 17.925 3.575C17.2031 2.85312 16.1625 2.83437 15.2531 2.825C14.7562 2.81562 14.25 2.80625 13.9406 2.68437C13.6312 2.5625 13.2281 2.17813 12.8625 1.82188C12.2156 1.20313 11.475 0.5 10.5 0.5C9.525 0.5 8.78438 1.20313 8.1375 1.82188C7.77188 2.17813 7.3875 2.54375 7.05938 2.68437C6.73125 2.825 6.24375 2.81562 5.74688 2.825C4.8375 2.83437 3.79687 2.85312 3.075 3.575C2.35312 4.29687 2.33437 5.3375 2.325 6.24688C2.31562 6.74375 2.30625 7.25 2.18437 7.55938C2.0625 7.86875 1.67813 8.27188 1.32188 8.6375C0.703125 9.28438 0 10.025 0 11C0 11.975 0.703125 12.7156 1.32188 13.3625C1.67813 13.7281 2.04375 14.1125 2.18437 14.4406C2.325 14.7687 2.31562 15.2562 2.325 15.7531C2.33437 16.6625 2.35312 17.7031 3.075 18.425C3.79687 19.1469 4.8375 19.1656 5.74688 19.175C6.24375 19.1844 6.75 19.1937 7.05938 19.3156C7.36875 19.4375 7.77188 19.8219 8.1375 20.1781C8.78438 20.7969 9.525 21.5 10.5 21.5C11.475 21.5 12.2156 20.7969 12.8625 20.1781C13.2281 19.8219 13.6125 19.4562 13.9406 19.3156C14.2687 19.175 14.7562 19.1844 15.2531 19.175C16.1625 19.1656 17.2031 19.1469 17.925 18.425C18.6469 17.7031 18.6656 16.6625 18.675 15.7531C18.6844 15.2562 18.6937 14.75 18.8156 14.4406C18.9375 14.1312 19.3219 13.7281 19.6781 13.3625C20.2969 12.7156 21 11.975 21 11C21 10.025 20.2969 9.28438 19.6781 8.6375ZM15.1406 9.29375L9.64688 14.5438C9.50485 14.6774 9.31687 14.7512 9.12188 14.75C8.92976 14.7507 8.74487 14.6768 8.60625 14.5438L5.85938 11.9188C5.78319 11.8523 5.72123 11.7711 5.67722 11.6801C5.6332 11.589 5.60805 11.49 5.60328 11.389C5.5985 11.2881 5.61419 11.1871 5.64941 11.0924C5.68463 10.9976 5.73865 10.9109 5.80822 10.8375C5.87779 10.7642 5.96148 10.7056 6.05426 10.6654C6.14703 10.6252 6.24697 10.6042 6.34808 10.6036C6.44919 10.603 6.54937 10.6229 6.64261 10.662C6.73584 10.7011 6.82021 10.7587 6.89062 10.8312L9.12188 12.9594L14.1094 8.20625C14.2552 8.07902 14.4446 8.01309 14.6379 8.02223C14.8312 8.03138 15.0135 8.1149 15.1467 8.25533C15.2798 8.39576 15.3535 8.58222 15.3524 8.77575C15.3513 8.96928 15.2754 9.15488 15.1406 9.29375Z" fill="#34C759"/>
</svg>
