<svg width="22" height="16" viewBox="0 0 22 16" fill="none" xmlns="http://www.w3.org/2000/svg">
<path d="M20.3 5.79688C20.6383 5.72603 20.9421 5.54121 21.1605 5.27331C21.3789 5.0054 21.4988 4.67065 21.5 4.325V2C21.5 1.60218 21.342 1.22064 21.0607 0.93934C20.7794 0.658035 20.3978 0.5 20 0.5H2C1.60218 0.5 1.22064 0.658035 0.93934 0.93934C0.658035 1.22064 0.5 1.60218 0.5 2V4.325C0.501249 4.67065 0.621098 5.0054 0.839515 5.27331C1.05793 5.54121 1.36168 5.72603 1.7 5.79688C2.20663 5.90194 2.66157 6.1784 2.98818 6.5797C3.31479 6.98099 3.49312 7.48259 3.49312 8C3.49312 8.51741 3.31479 9.01901 2.98818 9.4203C2.66157 9.8216 2.20663 10.0981 1.7 10.2031C1.36168 10.274 1.05793 10.4588 0.839515 10.7267C0.621098 10.9946 0.501249 11.3293 0.5 11.675V14C0.5 14.3978 0.658035 14.7794 0.93934 15.0607C1.22064 15.342 1.60218 15.5 2 15.5H20C20.3978 15.5 20.7794 15.342 21.0607 15.0607C21.342 14.7794 21.5 14.3978 21.5 14V11.675C21.4988 11.3293 21.3789 10.9946 21.1605 10.7267C20.9421 10.4588 20.6383 10.274 20.3 10.2031C19.7934 10.0981 19.3384 9.8216 19.0118 9.4203C18.6852 9.01901 18.5069 8.51741 18.5069 8C18.5069 7.48259 18.6852 6.98099 19.0118 6.5797C19.3384 6.1784 19.7934 5.90194 20.3 5.79688ZM2 11.675C2.84772 11.5029 3.60986 11.043 4.15728 10.3732C4.70471 9.70343 5.00376 8.86502 5.00376 8C5.00376 7.13498 4.70471 6.29657 4.15728 5.62681C3.60986 4.95705 2.84772 4.49714 2 4.325V2H7.25V14H2V11.675Z" fill="#FFD1DF"/>
</svg>
