<svg width="72" height="58" viewBox="0 0 72 58" fill="none" xmlns="http://www.w3.org/2000/svg">
<path d="M71.5188 49.8993C71.1127 48.6442 70.3348 47.4335 69.135 46.7992C67.9183 46.1565 66.4885 45.8653 65.138 46.2766C64.6942 46.4115 64.2452 46.5196 63.7917 46.6076C62.8535 46.6869 61.9132 46.6767 60.9761 46.5872C59.87 46.3872 58.7861 46.0886 57.7282 45.7096C59.2833 43.379 60.5243 40.8361 61.5505 38.2181C63.2099 33.9838 64.0382 29.4402 64.3896 24.9181C64.709 20.8074 64.4639 16.6082 63.5969 12.5738C63.1909 10.6842 62.5425 8.90188 61.7386 7.14319C61.0821 5.70638 60.1412 4.30443 59.0012 3.21379C58.3529 2.59364 57.6232 1.9925 56.8192 1.58223C55.4578 0.887419 54.4584 0.63809 52.9539 0.491591C52.6035 0.457432 52.2524 0.465884 51.9017 0.493703C50.9625 0.568715 49.9859 0.679292 49.0714 0.936722C47.1817 1.46848 45.6808 2.40171 44.1689 3.60116C41.6816 5.57432 40.2008 8.43843 39.0165 11.3099C38.327 12.9813 37.8653 14.7273 37.5276 16.5001C37.2532 15.0168 36.8997 13.55 36.4077 12.1192C35.9235 10.7127 35.3512 9.31813 34.6578 8.00105C34.026 6.80089 33.2203 5.72117 32.3586 4.67525C31.5542 3.69942 30.5379 2.88381 29.4913 2.18618C29.1687 1.97137 28.8289 1.78965 28.4749 1.63189C27.746 1.30719 26.993 0.949752 26.2053 0.775784C24.4476 0.387001 23.0591 0.432077 21.3127 0.706409C20.2851 0.867698 19.3392 1.29557 18.3975 1.72803C17.4439 2.16611 16.6001 2.86057 15.801 3.52017C15.2953 3.93783 14.8456 4.41677 14.4364 4.92845C13.7103 5.83808 13.0109 6.7463 12.4495 7.76581C11.8688 8.82018 11.4064 9.9485 10.9687 11.0659C10.3264 12.7045 9.89251 14.4216 9.59951 16.1553C9.20051 18.518 8.94414 20.9095 8.93182 23.3066C8.91843 25.827 9.18466 28.3193 9.55408 30.8101C9.86398 32.8984 10.3369 34.9649 10.9898 36.9733C11.7618 39.3465 12.7422 41.6922 13.9666 43.8696C14.2572 44.3862 14.5646 44.8958 14.8875 45.3976C13.8547 45.4026 12.8218 45.3427 11.7945 45.2272C10.0598 44.9564 8.3092 44.5598 6.67447 43.9348C5.98494 43.7185 5.29576 43.6875 4.60623 43.8421C3.916 43.8735 3.27331 44.0784 2.67781 44.4577C1.6016 45.0874 0.57541 46.321 0.294035 47.5578C-0.00847061 48.8854 0.0566781 50.3761 0.816286 51.5548C1.08675 51.9048 1.35756 52.2545 1.62802 52.6046C2.27529 53.2476 3.03807 53.6921 3.91706 53.9386C4.94325 54.3312 6.02297 54.6098 7.09284 54.8528C9.9154 55.493 12.8792 55.8804 15.7778 55.7571C18.5299 55.6399 21.3071 55.1387 23.8704 54.1065C23.9293 54.14 23.9867 54.1756 24.0458 54.2083C26.2444 55.4208 28.6799 56.3484 31.1594 56.7763C32.7216 57.0457 34.3113 57.2432 35.8985 57.2651C37.511 57.2873 39.0862 57.1045 40.6819 56.8812C43.9869 56.4192 47.1366 55.1827 49.9423 53.3969C51.8566 54.5182 53.8938 55.4254 56.0385 56.0705C59.8274 57.2105 64.0818 57.4411 67.8957 56.2804C69.1656 55.8938 70.3189 55.0528 70.9958 53.8967C71.6466 52.7845 71.922 51.1459 71.5188 49.8993ZM47.3451 20.3097C47.6518 18.3627 48.1142 16.4353 48.8164 14.5931C49.201 13.7603 49.6461 12.9577 50.1694 12.2044C50.4251 11.9146 50.6952 11.6382 50.9815 11.379C51.1805 11.2494 51.384 11.1289 51.5932 11.0173C51.7221 10.9765 51.852 10.9377 51.9827 10.9039C52.2436 11.311 52.4746 11.7364 52.6828 12.1734C53.2585 13.7029 53.6336 15.3063 53.8882 16.9202C54.1942 19.5477 54.2214 22.2079 54.021 24.8442C53.971 25.4992 53.9019 26.1524 53.8238 26.8046C53.4466 29.2817 52.868 31.7303 52.0482 34.0989C51.8605 34.6416 51.6552 35.1783 51.4414 35.7115C50.892 36.9356 50.2694 38.1269 49.5633 39.2669C49.3689 38.9411 49.1908 38.6059 49.0235 38.2646C48.6361 37.1948 48.3537 36.0777 48.0945 34.9765C47.8138 33.7827 47.5877 32.5772 47.4039 31.3651C46.9588 27.7002 46.9077 23.9771 47.3451 20.3097ZM19.3994 20.8243C19.4371 20.2925 19.4906 19.7625 19.5519 19.2332C19.8329 17.4587 20.2608 15.7024 20.8993 14.0226C21.2521 13.2613 21.6603 12.5267 22.1364 11.8357C22.3516 11.5927 22.5777 11.3592 22.8168 11.1399C22.945 11.0578 23.0753 10.98 23.2087 10.9064C23.2933 10.881 23.3788 10.8574 23.4644 10.8356C23.5292 10.8345 23.594 10.8338 23.6588 10.8345C23.7081 10.8476 23.7578 10.8616 23.8067 10.8757C23.9148 10.9363 24.0212 10.9997 24.1258 11.0663C24.3575 11.2793 24.5776 11.5047 24.7864 11.7406C25.2985 12.4812 25.7344 13.2708 26.1116 14.0885C26.8715 16.0655 27.3677 18.139 27.6935 20.2312C28.1101 23.7162 28.0985 27.254 27.6826 30.7386C27.2917 33.2875 26.6691 35.8069 25.721 38.2065C25.3073 39.1095 24.8389 39.987 24.3068 40.8248C23.319 39.4137 22.4773 37.9051 21.7673 36.3351C20.7133 33.7003 19.9981 30.9379 19.5748 28.1326C19.2962 25.7084 19.2276 23.2587 19.3994 20.8243ZM38.5921 46.7749C37.0638 46.9306 35.5178 46.9355 33.9891 46.7827C33.6369 46.7225 33.2868 46.6517 32.9386 46.5731C33.1925 46.1917 33.4365 45.804 33.6672 45.4075C35.5794 42.1222 36.7753 38.4664 37.4902 34.7222C37.8248 36.6996 38.2653 38.658 38.8661 40.5695C39.4803 42.524 40.4262 44.3563 41.6109 46.0234C40.6259 46.3509 39.6169 46.6013 38.5921 46.7749Z" fill="#F05D84"/>
</svg>
