<svg width="96" height="76" viewBox="0 0 96 76" fill="none" xmlns="http://www.w3.org/2000/svg">
<path d="M5.08486 71.5476C6.47624 72.0776 7.93845 72.4562 9.39054 72.7793C13.2004 73.6375 17.2025 74.1575 21.1135 73.9757C26.163 73.7385 31.2731 72.5572 35.6193 69.8867C39.5354 67.4737 42.7077 64.0561 45.0098 60.0933C49.0119 53.2026 50.6765 45.1104 51.1825 37.2453C51.4051 33.7318 51.3343 30.1981 50.9295 26.6998C50.4944 22.9136 49.8923 19.1275 48.6375 15.5181C47.9949 13.6654 47.2411 11.8329 46.3253 10.0964C45.4702 8.4759 44.3774 7.01194 43.2086 5.59845C41.1696 3.14 38.1136 1.0955 34.9666 0.408948C32.6341 -0.100915 30.752 -0.0453858 28.4347 0.318082C27.0433 0.535152 25.7633 1.11064 24.4883 1.69623C23.2132 2.28181 22.0951 3.20563 21.0275 4.08401C20.3445 4.64435 19.7424 5.29052 19.1909 5.97707C18.2346 7.17853 17.3037 8.37494 16.5599 9.71775C15.7706 11.1413 15.1433 12.6659 14.5513 14.1753C13.6861 16.3763 13.0992 18.6883 12.7096 21.0206C12.1784 24.1757 11.8343 27.3712 11.8191 30.5717C11.8039 33.9388 12.1581 37.2655 12.654 40.5923C13.5596 46.7006 15.5581 52.7533 18.604 58.1346C21.6498 63.516 26.4109 68.7963 32.1079 71.9262C35.0678 73.5517 38.3464 74.7935 41.6857 75.364C43.7702 75.7174 45.8851 75.9799 48 76.0102C50.1149 76.0404 52.2854 75.7931 54.4307 75.4952C61.0233 74.5714 67.1656 71.3558 71.9924 66.8326C76.8192 62.3095 80.0169 56.5798 82.3949 50.527C84.6211 44.8529 85.7342 38.7648 86.2047 32.7071C86.6297 27.2046 86.3008 21.5759 85.1321 16.1743C84.5856 13.6452 83.7104 11.2473 82.6276 8.8949C81.7472 6.99175 80.4925 5.12897 78.9746 3.68015C78.0993 2.84721 77.1127 2.02941 76.0198 1.48421C74.1781 0.560393 72.888 0.217118 70.854 0.0353847C70.3683 -0.0100487 69.8775 0.0050958 69.3918 0.0454811C68.1269 0.151492 66.8013 0.297889 65.5718 0.656308C63.0522 1.38829 61.0587 2.62004 59.045 4.22535C55.731 6.86554 53.7274 10.7021 52.159 14.5387C50.5905 18.3753 49.8113 22.8632 49.3458 27.1591C48.8804 31.4551 48.9158 35.5946 49.3256 39.7846C49.786 44.4895 50.5551 49.2044 51.9869 53.7225C53.525 58.5738 56.5911 62.8698 60.4111 66.2066C64.6611 69.9221 69.5891 72.7894 75.013 74.4149C80.0928 75.9344 85.7898 76.2424 90.9 74.6926C92.605 74.1777 94.1482 73.0519 95.0589 71.5021C95.9697 69.9524 96.3036 67.822 95.7622 66.1511C95.2208 64.4802 94.1735 62.8496 92.5646 62.0015C90.9556 61.1534 89.0178 60.7546 87.2014 61.2998C86.2705 61.5825 85.3243 61.7844 84.363 61.9157L86.2148 61.6683C84.4339 61.8955 82.6377 61.8652 80.8568 61.638L82.7086 61.8854C80.3356 61.5623 78.0335 60.901 75.8276 59.9873L77.4871 60.689C74.9371 59.6137 72.5338 58.2103 70.3329 56.5293L71.7394 57.6147C69.8472 56.1507 68.1219 54.4899 66.6495 52.6069L67.7373 54.0103C66.7355 52.7079 65.8653 51.3146 65.2177 49.8001L65.921 51.4559C65.2076 49.7496 64.7471 47.9121 64.3272 46.115C63.8769 44.1916 63.5227 42.243 63.2596 40.2843L63.5075 42.132C62.7891 36.7557 62.7031 31.2734 63.4114 25.887L63.1635 27.7346C63.6087 24.423 64.3575 21.1316 65.6528 18.0371L64.9495 19.6929C65.6427 18.0573 66.4927 16.4823 67.5704 15.0688L66.4826 16.4722C67.1858 15.5686 67.9751 14.7407 68.8757 14.0339L67.4692 15.1193C68.1876 14.564 68.9668 14.0995 69.8016 13.7361L68.1421 14.4378C68.9921 14.0794 69.8725 13.8421 70.7832 13.7209L68.9314 13.9683C69.5942 13.8875 70.2772 13.837 70.94 13.9229L69.0882 13.6755C69.5183 13.7361 69.9382 13.8522 70.3379 14.0188L68.6784 13.3171C69.1388 13.514 69.5689 13.7765 69.9686 14.0844L68.562 12.9991C69.1186 13.4332 69.6043 13.9481 70.0394 14.5034L68.9516 13.1C69.746 14.1298 70.3582 15.2859 70.8641 16.4823L70.1609 14.8265C71.2588 17.4414 71.8761 20.2432 72.2606 23.0449L72.0127 21.1973C72.5186 24.9682 72.5793 28.7998 72.2909 32.5909C72.2049 33.752 72.0784 34.9081 71.9266 36.0641L72.1746 34.2165C71.6787 37.8713 70.8591 41.4858 69.6498 44.9741C69.3058 45.9736 68.9263 46.9631 68.5114 47.9373L69.2147 46.2816C67.9296 49.3155 66.3156 52.2081 64.3019 54.8281L65.3897 53.4247C63.8668 55.3935 62.1212 57.1805 60.1531 58.7101L61.5596 57.6248C59.7837 58.9928 57.8459 60.1236 55.7816 60.9969L57.4411 60.2952C55.2706 61.1989 52.9938 61.7945 50.6613 62.1126L52.5131 61.8652C49.8518 62.2135 47.1348 62.2236 44.4735 61.8753L46.3253 62.1227C44.0536 61.8147 41.8324 61.2241 39.7175 60.3356L41.377 61.0373C39.4241 60.2044 37.5874 59.1291 35.9026 57.8368L37.3092 58.9221C35.3916 57.443 33.6916 55.7014 32.2091 53.7932L33.2969 55.1966C31.3844 52.7129 29.8463 49.9667 28.6219 47.0842L29.3252 48.74C27.6404 44.752 26.5576 40.5266 25.9707 36.2408L26.2186 38.0884C25.7329 34.479 25.5963 30.814 25.8594 27.1793C25.9302 26.205 26.0314 25.2307 26.163 24.2615L25.915 26.1091C26.3299 23.0752 27.0383 20.0665 28.2323 17.2395L27.529 18.8953C28.1868 17.3556 28.9862 15.8765 30.0082 14.5488L28.9204 15.9522C29.568 15.1193 30.3017 14.352 31.1365 13.7058L29.73 14.7911C30.3573 14.3116 31.0303 13.9077 31.7538 13.5947L30.0942 14.2964C30.7722 14.0137 31.4806 13.8169 32.2091 13.7159L30.3573 13.9632C31.0606 13.8724 31.769 13.8623 32.4773 13.9532L30.6255 13.7058C31.3085 13.7967 31.9663 13.9784 32.6038 14.2409L30.9442 13.5392C31.6425 13.837 32.2901 14.2207 32.8922 14.6801L31.4856 13.5947C32.3255 14.2459 33.0591 15.0133 33.7068 15.8513L32.619 14.4479C33.7017 15.8563 34.5416 17.4313 35.2297 19.0619L34.5264 17.4061C35.8773 20.6218 36.6615 24.0545 37.1371 27.5024L36.8892 25.6548C37.5874 30.8342 37.5672 36.1146 36.8842 41.294L37.1321 39.4463C36.5857 43.495 35.6294 47.5032 34.0407 51.2742L34.744 49.6184C33.813 51.8093 32.6645 53.9093 31.2073 55.8024L32.2951 54.399C31.2934 55.6863 30.155 56.8473 28.8698 57.857L30.2764 56.7716C28.9558 57.7913 27.5139 58.6243 25.9808 59.2806L27.6404 58.5789C25.738 59.3714 23.7445 59.8813 21.7004 60.1589L23.5522 59.9116C20.6784 60.2851 17.7641 60.2094 14.8903 59.8358L16.7421 60.0832C14.0656 59.7248 11.3233 59.1644 8.79351 58.1952C7.20481 57.5894 4.84706 58.069 3.43038 58.8969C2.01371 59.7248 0.612212 61.3907 0.232745 63.0465C-0.172019 64.8234 -0.0860068 66.8175 0.936023 68.3975L2.02383 69.8009C2.89407 70.6591 3.9161 71.2548 5.09498 71.588L5.08486 71.5476Z" fill="#FE477E"/>
</svg>
