<svg width="96" height="73" viewBox="0 0 96 73" fill="none" xmlns="http://www.w3.org/2000/svg">
<path d="M95.2497 44.3201C95.1961 44.2665 95.0889 44.2665 95.0353 44.2129C94.9817 44.2129 93.5347 43.7842 93.5347 43.7306H93.4811C93.8027 43.677 94.1242 43.6234 94.4458 43.5698C94.6602 43.5162 94.8745 43.3554 94.9281 43.0875L95.5176 40.5151C95.5712 40.3007 95.5177 40.0863 95.3569 39.9255C95.2497 39.8184 95.1425 39.7648 95.0353 39.7648C94.9817 39.7648 92.7308 39.0681 92.6772 39.0681L94.7674 38.3714C95.0353 38.2642 95.1961 38.0498 95.1961 37.7819V35.2095C95.1961 34.9951 95.0889 34.8343 94.9281 34.6736C94.8745 34.62 94.7673 34.62 94.7137 34.5664C94.6602 34.5664 93.5883 34.2448 93.5883 34.2448L95.0889 33.7625C95.3569 33.6553 95.5176 33.441 95.5176 33.173V30.6006C95.5176 30.3863 95.4105 30.2255 95.2497 30.0647C95.1961 30.0111 95.0889 30.0111 95.0353 29.9575C94.9817 29.9575 93.8027 29.5824 93.8027 29.5824C93.7491 29.5824 93.7491 29.5824 93.6955 29.5824L94.7674 29.2608C95.0353 29.1536 95.1961 28.9393 95.1961 28.6713V21.0077C95.1961 20.7933 95.0889 20.6326 94.9281 20.4718C94.8745 20.4182 94.7673 20.4182 94.7137 20.3646C94.6602 20.3646 90.3727 19.0784 90.3191 19.0248C90.1583 18.9712 90.0511 18.9712 89.8903 19.0248L87.0499 19.9359C86.7819 20.0431 86.6211 20.2574 86.6211 20.5254V21.3293L84.6918 21.9724C84.6382 21.9724 82.9232 21.4364 82.9232 21.4364C82.7624 21.3828 82.6552 21.3828 82.4944 21.4364L79.654 22.3475C79.4396 22.4011 79.2788 22.6155 79.2252 22.8298L78.7429 22.6691C78.5821 22.6155 78.4213 22.6155 78.3141 22.6691L75.4737 23.5801C75.2057 23.6873 75.0449 23.9017 75.0449 24.1696V25.4558C74.9913 25.4558 73.3835 24.9735 73.3299 24.9199C72.6868 24.7591 71.9365 24.8127 71.079 25.0807C69.8999 25.4558 68.9889 26.0989 68.3457 26.9564C68.2922 26.9564 66.8451 26.5277 66.8451 26.4741C66.6843 26.4205 66.5235 26.4205 66.4164 26.4741L63.5759 27.3851C63.3615 27.4387 63.2008 27.6531 63.1472 27.8674C63.1472 27.8674 63.04 27.8674 63.04 27.8139C62.8792 27.7603 62.772 27.7603 62.6112 27.8139L55.8048 30.0111C55.5369 30.1183 55.3761 30.3327 55.3761 30.6006V33.173C55.3761 33.3874 55.4833 33.5482 55.6441 33.7089C55.6977 33.7625 55.7512 33.7625 55.8584 33.8161L55.9656 39.7648L55.8584 39.8184C55.5905 39.9256 55.4297 40.1399 55.4297 40.4079V42.9803C55.4297 43.1946 55.5369 43.3554 55.6976 43.5162C55.7512 43.5698 55.8584 43.5698 55.912 43.6234C55.9656 43.6234 55.9656 43.6234 56.0192 43.677C56.0728 43.677 56.0728 43.677 56.1264 43.7306C56.18 43.7306 56.18 43.7306 56.2336 43.7841C56.2872 43.7841 56.2872 43.7842 56.3408 43.8378C56.3944 43.8378 56.3944 43.8377 56.448 43.8913C56.5016 43.8913 56.5016 43.8913 56.5552 43.9449C56.6088 43.9449 56.6087 43.9449 56.6623 43.9985C56.7159 43.9985 56.7159 43.9985 56.7695 44.0521C56.8231 44.0521 56.8231 44.0521 56.8767 44.0521C56.9303 44.0521 56.9303 44.0521 56.9839 44.1057C57.0375 44.1057 57.0375 44.1057 57.0911 44.1593C57.1447 44.1593 57.1447 44.1593 57.1983 44.2129C57.2519 44.2129 57.2519 44.2129 57.3055 44.2665C57.359 44.2665 57.3591 44.2665 57.4126 44.3201C57.4662 44.3201 57.4662 44.3201 57.5198 44.3201C57.5734 44.3201 57.5734 44.3201 57.627 44.3737C57.6806 44.3737 57.6806 44.3737 57.7342 44.4273C57.7878 44.4273 57.7878 44.4272 57.8414 44.4808C57.4126 44.8024 57.0911 45.1775 56.7695 45.6063C56.1264 46.5709 55.8048 47.7499 55.8048 49.1433V53.645C55.8048 55.092 56.18 56.1638 56.9303 56.7533C57.1447 56.9677 57.4126 57.0749 57.7342 57.182C57.7878 57.182 62.0753 58.4682 62.1289 58.5218C62.3968 58.629 62.7184 58.6826 63.04 58.6826C63.4687 58.6826 64.0046 58.5754 64.5406 58.4146C65.5053 58.0931 66.2556 57.6108 66.8987 57.0213C66.9523 57.0213 68.5065 57.5036 68.5065 57.5036C68.6673 57.5572 68.8281 57.5572 68.9353 57.5036L71.7757 56.5926C72.0437 56.4854 72.2045 56.271 72.2045 56.003L72.6868 56.1638C72.7404 56.2174 72.8476 56.2174 72.9012 56.2174C72.9548 56.2174 73.0084 56.2174 73.1156 56.1638L83.6199 52.7875C83.8879 52.6803 84.0486 52.466 84.0486 52.198V51.8765C84.1022 51.8765 84.2094 51.9301 84.2094 51.9301C84.263 51.9837 84.3702 51.9837 84.4238 51.9837C84.4774 51.9837 84.531 51.9837 84.6382 51.9301L95.5713 48.393C95.8392 48.2859 96 48.0715 96 47.8035V45.2311C95.5177 44.588 95.4105 44.4272 95.2497 44.3201Z" fill="black"/>
<path d="M60.1996 34.6201V32.0477L67.006 29.8504V32.4228L60.1996 34.6201ZM66.5772 33.2267L66.47 39.7649L67.006 39.6041V42.1765L60.1996 44.3738V41.8013L60.7355 41.6406L60.6283 35.2096L63.2008 34.4057L63.308 40.8367L63.8975 40.6759L64.0047 34.1377L66.5772 33.2267ZM70.8647 33.441L71.9901 33.0659V35.6383L70.8647 36.0134V41.4798L68.0242 42.3909L67.9706 29.4752L70.8111 28.5642L70.8647 33.441Z" fill="white"/>
<path d="M78.0998 27.3317C78.6893 27.814 78.9573 28.6715 78.9573 29.9577V34.4594C78.9573 35.7456 78.6893 36.7638 78.0998 37.6213C77.5102 38.4788 76.6528 39.0683 75.5809 39.4434C74.4554 39.8186 73.5979 39.765 73.062 39.2827C72.4725 38.8003 72.2045 37.9429 72.2045 36.6567V32.1549C72.2045 30.8687 72.4725 29.8505 73.062 28.993C73.6515 28.1356 74.509 27.5461 75.5809 27.1709C76.6528 26.7958 77.5102 26.8494 78.0998 27.3317ZM74.9913 30.4936V36.3887C74.9913 36.8174 75.2057 36.9782 75.5809 36.871C75.9561 36.7638 76.1168 36.4959 76.1168 36.0672V30.1721C76.1168 29.7433 75.9024 29.5825 75.5273 29.6897C75.2057 29.7969 74.9913 30.0649 74.9913 30.4936ZM82.816 24.6521L82.8696 37.5677L80.0292 38.4788L79.9756 25.5632L82.816 24.6521Z" fill="white"/>
<path d="M94.928 33.173L83.9414 36.71V34.1377L94.928 30.6006V33.173ZM84.2094 32.0476V24.3839L87.0498 23.4729V24.7591L91.7124 23.2585V21.9723L94.5529 21.0613V28.7249L84.2094 32.0476ZM91.7124 25.7773L87.0498 27.2779V28.5641L91.7124 27.0635V25.7773Z" fill="white"/>
<path d="M66.2555 45.2849C66.845 45.7672 67.113 46.6247 67.113 47.9109V52.4126C67.113 53.6988 66.845 54.717 66.2555 55.5745C65.666 56.432 64.8085 57.0215 63.7366 57.3966C62.6111 57.7718 61.7536 57.7182 61.2177 57.2359C60.6282 56.7535 60.3602 55.8961 60.3602 54.6099V50.1082C60.3602 48.822 60.6282 47.8037 61.2177 46.9463C61.8072 46.0888 62.6647 45.4993 63.7366 45.1241C64.8085 44.749 65.666 44.8026 66.2555 45.2849ZM63.1471 48.5004V54.3955C63.1471 54.8242 63.3615 54.985 63.7366 54.8778C64.1118 54.7706 64.2725 54.5027 64.2725 54.0739V48.1789C64.2725 47.7501 64.0582 47.5893 63.683 47.6965C63.3079 47.8037 63.1471 48.0717 63.1471 48.5004ZM70.9717 42.6589L71.0253 55.5745L68.1849 56.4856L68.1313 43.57L70.9717 42.6589Z" fill="white"/>
<path d="M74.9376 47.1606C74.0265 47.4285 73.3298 47.4286 72.8475 47.0534C72.3651 46.6783 72.0972 46.0888 72.0972 45.1777C72.0972 44.2666 72.3651 43.4628 72.8475 42.8197C73.3298 42.123 74.0265 41.6942 74.9376 41.3727L76.1167 40.9975C76.8134 40.7832 77.4029 40.7296 77.8853 40.8904C78.3676 41.0511 78.6892 41.3727 78.85 41.9086L79.9218 41.5871V39.8185L82.7623 38.9075V44.6954L79.9218 45.6064V43.7307L78.85 44.0523C78.6892 44.6954 78.3676 45.2313 77.8853 45.7136C77.4029 46.1959 76.8134 46.5175 76.1167 46.7318L74.9376 47.1606ZM75.2056 52.3054L82.8159 49.8402V51.7159L72.3115 55.0922V50.8584L79.8146 48.4468V47.9109L72.3115 50.3225V48.4468L82.6551 45.1241V49.3579L75.152 51.7695L75.2056 52.3054ZM75.2592 43.5163C75.0984 43.5699 74.9912 43.6771 74.884 43.7843C74.7768 43.8915 74.7232 44.1059 74.7232 44.2666C74.7232 44.4274 74.7768 44.5882 74.884 44.6418C74.9912 44.6954 75.0984 44.749 75.2592 44.6954L75.7415 44.5346C75.9023 44.481 76.0631 44.3738 76.1167 44.2666C76.2239 44.1059 76.2775 43.9451 76.2775 43.7843C76.2775 43.5699 76.2239 43.4627 76.1167 43.4092C76.0095 43.3556 75.9023 43.302 75.7415 43.4092L75.2592 43.5163Z" fill="white"/>
<path d="M83.9414 43.8917C84.7989 43.5701 85.5492 43.0342 86.1923 42.3375C86.8355 41.6408 87.3178 40.8905 87.6394 39.9795L84.263 41.0513V38.4789L94.6065 35.1562V37.7286L91.2301 38.8005C91.5517 39.4972 92.034 39.9259 92.6771 40.1938C93.3202 40.4618 94.0706 40.5154 94.928 40.301L94.3385 42.8734C93.3203 43.0878 92.4092 43.1414 91.5517 42.9806C90.6942 42.8198 89.9975 42.4447 89.4615 41.9088C88.9256 42.8198 88.2289 43.6237 87.3714 44.3204C86.5139 45.0171 85.6028 45.6066 84.5845 46.0353L83.9414 43.8917ZM83.9414 50.9121V48.3397L94.8745 44.8027V47.3751L83.9414 50.9121Z" fill="white"/>
<path d="M10.1968 48.4469L9.87524 48.554C9.76806 48.6076 9.76807 48.6612 9.76807 48.7684C9.76807 48.822 9.87525 48.8756 9.92884 48.8756H9.98244L10.304 48.7684C10.3576 48.7684 10.3576 48.7148 10.4112 48.7148C10.4112 48.6612 10.4112 48.6612 10.4112 48.6076C10.3576 48.4468 10.2504 48.3933 10.1968 48.4469Z" fill="white"/>
<path d="M6.33795 49.7332L6.01638 49.8403C5.90919 49.8939 5.90918 49.9475 5.90918 50.0547C5.90918 50.1083 6.01638 50.1619 6.06997 50.1619H6.12355L6.44512 50.0547C6.55231 50.0011 6.55232 49.9475 6.55232 49.8403C6.49873 49.7332 6.39154 49.6796 6.33795 49.7332Z" fill="white"/>
<path d="M8.26737 49.0898L7.94582 49.197C7.89222 49.197 7.89222 49.2506 7.83862 49.2506C7.83862 49.3042 7.83862 49.3042 7.83862 49.3578C7.83862 49.4114 7.94581 49.465 7.9994 49.465H8.053L8.37457 49.3578C8.48176 49.3042 8.48176 49.2506 8.48176 49.1434C8.42817 49.0898 8.32097 49.0362 8.26737 49.0898Z" fill="white"/>
<path d="M3.44389 50.6975L3.12234 50.8047C3.06875 50.8047 3.06874 50.8583 3.01515 50.8583C2.96156 50.8583 3.01515 50.9119 3.01515 50.9655C3.01515 51.019 3.12233 51.0726 3.17592 51.0726H3.22952L3.55108 50.9655C3.65827 50.9119 3.65827 50.8583 3.65827 50.7511C3.60468 50.6975 3.49748 50.6439 3.44389 50.6975Z" fill="white"/>
<path d="M9.23197 48.7683L8.91041 48.8755C8.80323 48.9291 8.80322 48.9827 8.80322 49.0899C8.80322 49.1435 8.91042 49.1971 8.96401 49.1971H9.01761L9.33915 49.0899C9.44633 49.0363 9.44634 48.9827 9.44634 48.8755C9.39275 48.7683 9.28556 48.7147 9.23197 48.7683Z" fill="white"/>
<path d="M5.37332 50.0545L5.05176 50.1616C4.94457 50.2152 4.94458 50.2688 4.94458 50.376C4.94458 50.4296 5.05176 50.4832 5.10535 50.4832H5.15895L5.48052 50.376C5.5877 50.3224 5.5877 50.2688 5.5877 50.1616C5.5341 50.0545 5.42692 50.0009 5.37332 50.0545Z" fill="white"/>
<path d="M4.40862 50.376L4.08705 50.4832C3.97986 50.5368 3.97986 50.5904 3.97986 50.6976C3.97986 50.7512 4.08706 50.8048 4.14065 50.8048H4.19425L4.5158 50.6976C4.62299 50.644 4.623 50.5904 4.623 50.4832C4.5694 50.376 4.46222 50.3224 4.40862 50.376Z" fill="white"/>
<path d="M7.30277 49.4114L6.9812 49.5186C6.87401 49.5722 6.87402 49.6258 6.87402 49.733C6.87402 49.7866 6.9812 49.8401 7.0348 49.8401H7.0884L7.40996 49.733C7.51715 49.6794 7.51714 49.6258 7.51714 49.5186C7.46354 49.4114 7.35636 49.3578 7.30277 49.4114Z" fill="white"/>
<path d="M2.69363 51.1262C2.69363 51.0727 2.58645 51.0191 2.53286 51.0191C2.53286 50.9655 2.47926 50.9119 2.37207 50.9119C2.26489 50.9119 2.2113 50.9655 2.2113 51.0727V51.3942C2.2113 51.5014 2.26489 51.555 2.37207 51.555C2.42566 51.555 2.47927 51.5014 2.53286 51.4478C2.58645 51.4478 2.64004 51.3942 2.69363 51.3406C2.69363 51.287 2.69363 51.287 2.69363 51.2334C2.69363 51.1798 2.69363 51.1262 2.69363 51.1262Z" fill="white"/>
<path d="M20.701 20.5792L20.5402 20.5256C20.433 20.5256 20.3794 20.5256 20.3258 20.6328C20.2722 20.74 20.3258 20.7936 20.433 20.8472L20.5938 20.9007H20.6474C20.701 20.9007 20.7546 20.8472 20.8082 20.7936C20.8082 20.6864 20.8082 20.5792 20.701 20.5792Z" fill="white"/>
<path d="M8.37459 16.4524L8.05302 16.3452C7.94584 16.3452 7.89224 16.3452 7.83865 16.4524C7.78506 16.5596 7.83866 16.6132 7.94585 16.6668L8.2674 16.774H8.32099C8.37459 16.774 8.42819 16.7204 8.48178 16.6668C8.48178 16.5596 8.42818 16.506 8.37459 16.4524Z" fill="white"/>
<path d="M6.44527 15.8096L6.1237 15.7024C6.01651 15.7024 5.96292 15.7024 5.90933 15.8096C5.85574 15.9167 5.90934 15.9703 6.01652 16.0239L6.33809 16.1311H6.39167C6.44527 16.1311 6.49887 16.0775 6.55246 16.0239C6.55246 15.9703 6.55246 15.9167 6.55246 15.9167C6.49887 15.8632 6.44527 15.8096 6.44527 15.8096Z" fill="white"/>
<path d="M19.8973 20.3113L19.5757 20.2041C19.4686 20.1505 19.4149 20.2041 19.3614 20.3113C19.3078 20.4185 19.3614 20.4721 19.4685 20.5257L19.7901 20.6328H19.8437C19.8973 20.6328 19.9509 20.5793 20.0045 20.5257C20.0045 20.4185 20.0045 20.3113 19.8973 20.3113Z" fill="white"/>
<path d="M7.40976 16.1311L7.08819 16.0239C6.981 16.0239 6.92741 16.0239 6.87381 16.1311C6.82022 16.2383 6.8738 16.2919 6.98099 16.3455L7.30256 16.4527H7.35616C7.40976 16.4527 7.46335 16.3991 7.51694 16.3455C7.51694 16.2383 7.46335 16.1847 7.40976 16.1311Z" fill="white"/>
<path d="M9.2856 16.7742L8.96404 16.667C8.85685 16.6134 8.80326 16.667 8.74966 16.7742C8.69607 16.8814 8.74965 16.935 8.85684 16.9885L9.17841 17.0957H9.23201C9.2856 17.0957 9.33919 17.0421 9.39278 16.9885C9.44638 16.8814 9.39279 16.8278 9.2856 16.7742Z" fill="white"/>
<path d="M3.55118 14.8447L3.22963 14.7375C3.12244 14.7375 3.06885 14.7376 3.01526 14.8447C3.01526 14.8983 3.01526 14.9519 3.01526 14.9519C3.01526 15.0055 3.06886 15.0055 3.12245 15.0055L3.44399 15.1127H3.49759C3.55118 15.1127 3.60478 15.0591 3.65837 15.0055C3.65837 14.9519 3.65837 14.8983 3.65837 14.8983C3.60478 14.8983 3.55118 14.8447 3.55118 14.8447Z" fill="white"/>
<path d="M4.5693 15.2736C4.5693 15.22 4.51571 15.22 4.46212 15.22L4.14055 15.1128C4.03336 15.1128 3.97977 15.1128 3.92618 15.22C3.87258 15.3272 3.92617 15.3808 4.03336 15.4344L4.35492 15.5415H4.40852C4.46212 15.5415 4.5157 15.488 4.5693 15.4344C4.62289 15.3272 4.62289 15.2736 4.5693 15.2736Z" fill="white"/>
<path d="M5.48044 15.488L5.15887 15.3809C5.05168 15.3809 4.99808 15.3809 4.94449 15.488C4.89089 15.5952 4.94448 15.6488 5.05167 15.7024L5.37324 15.8096H5.42684C5.48044 15.8096 5.53402 15.756 5.58762 15.7024C5.58762 15.5952 5.53403 15.5416 5.48044 15.488Z" fill="white"/>
<path d="M18.9324 19.9895L18.6109 19.8823C18.5037 19.8823 18.4501 19.8823 18.3965 19.9895C18.3429 20.0967 18.3965 20.1503 18.5037 20.2039L18.8252 20.311H18.8788C18.9324 20.311 18.986 20.2574 19.0396 20.2039C19.0396 20.0967 19.0396 19.9895 18.9324 19.9895Z" fill="white"/>
<path d="M10.2504 17.0957L9.92887 16.9886C9.82169 16.935 9.7681 16.9886 9.71451 17.0957C9.66091 17.2029 9.71451 17.2565 9.8217 17.3101L10.1432 17.4173H10.1969C10.2504 17.4173 10.304 17.3637 10.3576 17.3101C10.4112 17.2029 10.3576 17.1493 10.2504 17.0957Z" fill="white"/>
<path d="M11.2151 17.4172L10.8935 17.3101C10.7863 17.3101 10.7327 17.31 10.6791 17.4172C10.6255 17.5244 10.6791 17.578 10.7863 17.6316L11.1079 17.7388H11.1615C11.2151 17.7388 11.2687 17.6852 11.3223 17.6316C11.3759 17.5244 11.3222 17.4708 11.2151 17.4172Z" fill="white"/>
<path d="M17.9678 19.668L17.6463 19.5608C17.5391 19.5608 17.4855 19.5608 17.4319 19.668C17.3783 19.7752 17.4319 19.8288 17.5391 19.8823L17.8606 19.9895H17.9142C17.9678 19.9895 18.0214 19.9359 18.075 19.8823C18.075 19.7752 18.075 19.7216 17.9678 19.668Z" fill="white"/>
<path d="M12.1796 17.7388L11.8581 17.6316C11.7509 17.6316 11.6973 17.6316 11.6437 17.7388C11.5901 17.846 11.6437 17.8995 11.7509 17.9531L12.0725 18.0603H12.1261C12.1797 18.0603 12.2332 18.0067 12.2868 17.9531C12.2868 17.8995 12.2868 17.846 12.2868 17.846C12.2868 17.7924 12.2332 17.7388 12.1796 17.7388Z" fill="white"/>
<path d="M17.003 19.3465L16.6815 19.2393C16.5743 19.1857 16.5207 19.2393 16.4671 19.3465C16.4135 19.4537 16.4671 19.5072 16.5743 19.5608L16.8958 19.668H16.9494C17.003 19.668 17.0566 19.6144 17.1102 19.5608C17.1102 19.4536 17.1102 19.4001 17.003 19.3465Z" fill="white"/>
<path d="M13.1444 18.0603L12.8228 17.9531C12.7156 17.9531 12.662 17.9531 12.6084 18.0603C12.5548 18.1675 12.6084 18.2211 12.7156 18.2747L13.0372 18.3819H13.0908C13.1444 18.3819 13.198 18.3283 13.2515 18.2747C13.3051 18.1675 13.2516 18.1139 13.1444 18.0603Z" fill="white"/>
<path d="M14.109 18.3818L13.7874 18.2747C13.6802 18.2747 13.6266 18.2747 13.573 18.3818C13.5194 18.489 13.573 18.5426 13.6802 18.5962L14.0018 18.7034H14.0554C14.1089 18.7034 14.1626 18.6498 14.2162 18.5962C14.2162 18.5426 14.2162 18.489 14.2162 18.489C14.2162 18.4354 14.1626 18.3818 14.109 18.3818Z" fill="white"/>
<path d="M16.0384 19.0249L15.7168 18.9177C15.6097 18.9177 15.5561 18.9177 15.5025 19.0249C15.4489 19.1321 15.5025 19.1857 15.6097 19.2393L15.9312 19.3465H15.9848C16.0384 19.3465 16.092 19.2929 16.1456 19.2393C16.1992 19.1321 16.1456 19.0785 16.0384 19.0249Z" fill="white"/>
<path d="M15.0738 18.7034L14.7523 18.5962C14.6451 18.5962 14.5915 18.5962 14.5379 18.7034C14.4843 18.8106 14.5379 18.8642 14.6451 18.9178L14.9666 19.0249H15.0202C15.0738 19.0249 15.1274 18.9714 15.181 18.9178C15.2346 18.8106 15.181 18.757 15.0738 18.7034Z" fill="white"/>
<path d="M2.37207 16.9883C2.47926 16.9883 2.53286 16.9347 2.53286 16.8276V16.506C2.53286 16.3988 2.47926 16.3452 2.37207 16.3452C2.26489 16.3452 2.2113 16.3988 2.2113 16.506V16.8276C2.2113 16.9347 2.26489 16.9883 2.37207 16.9883Z" fill="white"/>
<path d="M2.37207 60.6656C2.47926 60.6656 2.53286 60.612 2.53286 60.5048V60.1833C2.53286 60.0761 2.47926 60.0225 2.37207 60.0225C2.26489 60.0225 2.2113 60.0761 2.2113 60.1833V60.5048C2.2113 60.612 2.26489 60.6656 2.37207 60.6656Z" fill="white"/>
<path d="M2.37207 57.6111C2.47926 57.6111 2.53286 57.5575 2.53286 57.4503V57.1288C2.53286 57.0216 2.47926 56.968 2.37207 56.968C2.26489 56.968 2.2113 57.0216 2.2113 57.1288V57.4503C2.2113 57.5575 2.26489 57.6111 2.37207 57.6111Z" fill="white"/>
<path d="M2.37207 56.5928C2.47926 56.5928 2.53286 56.5392 2.53286 56.432V56.1105C2.53286 56.0033 2.47926 55.9497 2.37207 55.9497C2.26489 55.9497 2.2113 56.0033 2.2113 56.1105V56.432C2.2113 56.5392 2.26489 56.5928 2.37207 56.5928Z" fill="white"/>
<path d="M2.37207 58.6292C2.47926 58.6292 2.53286 58.5756 2.53286 58.4684V58.1468C2.53286 58.0397 2.47926 57.9861 2.37207 57.9861C2.26489 57.9861 2.2113 58.0397 2.2113 58.1468V58.4684C2.2113 58.5756 2.26489 58.6292 2.37207 58.6292Z" fill="white"/>
<path d="M2.37207 15.9703C2.47926 15.9703 2.53286 15.9166 2.53286 15.8095V15.4879C2.53286 15.3807 2.47926 15.3271 2.37207 15.3271C2.26489 15.3271 2.2113 15.3807 2.2113 15.4879V15.8095C2.2113 15.9166 2.26489 15.9703 2.37207 15.9703Z" fill="white"/>
<path d="M2.37207 64.7386C2.47926 64.7386 2.53286 64.685 2.53286 64.5778V64.2562C2.53286 64.149 2.47926 64.0955 2.37207 64.0955C2.26489 64.0955 2.2113 64.149 2.2113 64.2562V64.5778C2.2113 64.685 2.26489 64.7386 2.37207 64.7386Z" fill="white"/>
<path d="M2.37207 65.7569C2.47926 65.7569 2.53286 65.7033 2.53286 65.5961V65.2746C2.53286 65.1674 2.47926 65.1138 2.37207 65.1138C2.26489 65.1138 2.2113 65.1674 2.2113 65.2746V65.5961C2.2113 65.7033 2.26489 65.7569 2.37207 65.7569Z" fill="white"/>
<path d="M2.37207 62.7021C2.47926 62.7021 2.53286 62.6486 2.53286 62.5414V62.2198C2.53286 62.1127 2.47926 62.0591 2.37207 62.0591C2.26489 62.0591 2.2113 62.1127 2.2113 62.2198V62.5414C2.2113 62.6486 2.26489 62.7021 2.37207 62.7021Z" fill="white"/>
<path d="M2.37207 63.7205C2.47926 63.7205 2.53286 63.6669 2.53286 63.5597V63.2382C2.53286 63.131 2.47926 63.0774 2.37207 63.0774C2.26489 63.0774 2.2113 63.131 2.2113 63.2382V63.5597C2.2113 63.6669 2.26489 63.7205 2.37207 63.7205Z" fill="white"/>
<path d="M2.37207 61.6841C2.47926 61.6841 2.53286 61.6305 2.53286 61.5234V61.2018C2.53286 61.0946 2.47926 61.041 2.37207 61.041C2.26489 61.041 2.2113 61.0946 2.2113 61.2018V61.5234C2.2113 61.6305 2.26489 61.6841 2.37207 61.6841Z" fill="white"/>
<path d="M2.37207 39.3362C2.47926 39.3362 2.53286 39.2826 2.53286 39.1755V38.8539C2.53286 38.7467 2.47926 38.6931 2.37207 38.6931C2.26489 38.6931 2.2113 38.7467 2.2113 38.8539V39.1755C2.2113 39.2826 2.26489 39.3362 2.37207 39.3362Z" fill="white"/>
<path d="M2.37207 30.1719C2.47926 30.1719 2.53286 30.1183 2.53286 30.0111V29.6896C2.53286 29.5824 2.47926 29.5288 2.37207 29.5288C2.26489 29.5288 2.2113 29.5824 2.2113 29.6896V30.0111C2.2113 30.1183 2.26489 30.1719 2.37207 30.1719Z" fill="white"/>
<path d="M2.37207 27.1709C2.47926 27.1709 2.53286 27.1173 2.53286 27.0102V26.6886C2.53286 26.5814 2.47926 26.5278 2.37207 26.5278C2.26489 26.5278 2.2113 26.5814 2.2113 26.6886V27.0102C2.2113 27.0637 2.26489 27.1709 2.37207 27.1709Z" fill="white"/>
<path d="M2.37207 28.1892C2.47926 28.1892 2.53286 28.1356 2.53286 28.0284V27.7069C2.53286 27.5997 2.47926 27.5461 2.37207 27.5461C2.26489 27.5461 2.2113 27.5997 2.2113 27.7069V28.0284C2.2113 28.082 2.26489 28.1892 2.37207 28.1892Z" fill="white"/>
<path d="M2.37207 29.1539C2.47926 29.1539 2.53286 29.1003 2.53286 28.9931V28.6715C2.53286 28.5643 2.47926 28.5107 2.37207 28.5107C2.26489 28.5107 2.2113 28.5643 2.2113 28.6715V28.9931C2.2113 29.1003 2.26489 29.1539 2.37207 29.1539Z" fill="white"/>
<path d="M2.37207 32.2085C2.47926 32.2085 2.53286 32.1549 2.53286 32.0477V31.7262C2.53286 31.619 2.47926 31.5654 2.37207 31.5654C2.26489 31.5654 2.2113 31.619 2.2113 31.7262V32.0477C2.2113 32.1549 2.26489 32.2085 2.37207 32.2085Z" fill="white"/>
<path d="M2.37207 18.0069C2.47926 18.0069 2.53286 17.9533 2.53286 17.8461V17.5245C2.53286 17.4174 2.47926 17.3638 2.37207 17.3638C2.26489 17.3638 2.2113 17.4174 2.2113 17.5245V17.8461C2.2113 17.9533 2.26489 18.0069 2.37207 18.0069Z" fill="white"/>
<path d="M2.37207 31.1902C2.47926 31.1902 2.53286 31.1366 2.53286 31.0294V30.7079C2.53286 30.6007 2.47926 30.5471 2.37207 30.5471C2.26489 30.5471 2.2113 30.6007 2.2113 30.7079V31.0294C2.2113 31.1366 2.26489 31.1902 2.37207 31.1902Z" fill="white"/>
<path d="M2.37207 26.1526C2.47926 26.1526 2.53286 26.099 2.53286 25.9918V25.6703C2.53286 25.5631 2.47926 25.5095 2.37207 25.5095C2.26489 25.5095 2.2113 25.5631 2.2113 25.6703V25.9918C2.2113 26.0454 2.26489 26.1526 2.37207 26.1526Z" fill="white"/>
<path d="M2.37207 22.0796C2.47926 22.0796 2.53286 22.026 2.53286 21.9188V21.5973C2.53286 21.4901 2.47926 21.4365 2.37207 21.4365C2.26489 21.4365 2.2113 21.4901 2.2113 21.5973V21.9188C2.2113 21.9724 2.26489 22.0796 2.37207 22.0796Z" fill="white"/>
<path d="M2.37207 20.0432C2.47926 20.0432 2.53286 19.9897 2.53286 19.8825V19.5609C2.53286 19.4537 2.47926 19.4001 2.37207 19.4001C2.26489 19.4001 2.2113 19.4537 2.2113 19.5609V19.8825C2.2113 19.9897 2.26489 20.0432 2.37207 20.0432Z" fill="white"/>
<path d="M2.37207 23.0979C2.47926 23.0979 2.53286 23.0443 2.53286 22.9372V22.6156C2.53286 22.5084 2.47926 22.4548 2.37207 22.4548C2.26489 22.4548 2.2113 22.5084 2.2113 22.6156V22.9372C2.2113 22.9907 2.26489 23.0979 2.37207 23.0979Z" fill="white"/>
<path d="M2.37207 33.2268C2.47926 33.2268 2.53286 33.1732 2.53286 33.066V32.7445C2.53286 32.6373 2.47926 32.5837 2.37207 32.5837C2.26489 32.5837 2.2113 32.6373 2.2113 32.7445V33.066C2.2113 33.1732 2.26489 33.2268 2.37207 33.2268Z" fill="white"/>
<path d="M2.37207 19.0249C2.47926 19.0249 2.53286 18.9713 2.53286 18.8641V18.5426C2.53286 18.4354 2.47926 18.3818 2.37207 18.3818C2.26489 18.3818 2.2113 18.4354 2.2113 18.5426V18.8641C2.2113 18.9713 2.26489 19.0249 2.37207 19.0249Z" fill="white"/>
<path d="M2.37207 24.1162C2.47926 24.1162 2.53286 24.0626 2.53286 23.9554V23.6339C2.53286 23.5267 2.47926 23.4731 2.37207 23.4731C2.26489 23.4731 2.2113 23.5267 2.2113 23.6339V23.9554C2.2113 24.009 2.26489 24.1162 2.37207 24.1162Z" fill="white"/>
<path d="M2.37207 25.1343C2.47926 25.1343 2.53286 25.0807 2.53286 24.9736V24.652C2.53286 24.5448 2.47926 24.4912 2.37207 24.4912C2.26489 24.4912 2.2113 24.5448 2.2113 24.652V24.9736C2.2113 25.0271 2.26489 25.1343 2.37207 25.1343Z" fill="white"/>
<path d="M2.37207 37.2999C2.47926 37.2999 2.53286 37.2463 2.53286 37.1391V36.8175C2.53286 36.7103 2.47926 36.6567 2.37207 36.6567C2.26489 36.6567 2.2113 36.7103 2.2113 36.8175V37.1391C2.2113 37.2463 2.26489 37.2999 2.37207 37.2999Z" fill="white"/>
<path d="M2.37207 44.4275C2.47926 44.4275 2.53286 44.3739 2.53286 44.2667V43.9452C2.53286 43.838 2.47926 43.7844 2.37207 43.7844C2.26489 43.7844 2.2113 43.838 2.2113 43.9452V44.2667C2.2113 44.3739 2.26489 44.4275 2.37207 44.4275Z" fill="white"/>
<path d="M2.37207 45.4456C2.42566 45.4456 2.47926 45.392 2.53285 45.3384C2.58644 45.3384 2.64003 45.2848 2.69362 45.2312C2.74721 45.124 2.69363 45.0704 2.58645 45.0168H2.53285V44.9632C2.53285 44.8561 2.47925 44.8025 2.37207 44.8025C2.26489 44.8025 2.2113 44.8561 2.2113 44.9632V45.2848C2.2113 45.3919 2.26489 45.4456 2.37207 45.4456Z" fill="white"/>
<path d="M2.37207 43.4092C2.47926 43.4092 2.53286 43.3556 2.53286 43.2484V42.9269C2.53286 42.8197 2.47926 42.7661 2.37207 42.7661C2.26489 42.7661 2.2113 42.8197 2.2113 42.9269V43.2484C2.2113 43.3556 2.26489 43.4092 2.37207 43.4092Z" fill="white"/>
<path d="M2.37207 53.5381C2.47926 53.5381 2.53286 53.4845 2.53286 53.3773V53.0558C2.53286 52.9486 2.47926 52.895 2.37207 52.895C2.26489 52.895 2.2113 52.9486 2.2113 53.0558V53.3773C2.2113 53.4845 2.26489 53.5381 2.37207 53.5381Z" fill="white"/>
<path d="M2.37207 34.2449C2.47926 34.2449 2.53286 34.1913 2.53286 34.0842V33.7626C2.53286 33.6554 2.47926 33.6018 2.37207 33.6018C2.26489 33.6018 2.2113 33.6554 2.2113 33.7626V34.0842C2.2113 34.1913 2.26489 34.2449 2.37207 34.2449Z" fill="white"/>
<path d="M2.37207 54.5562C2.47926 54.5562 2.53286 54.5026 2.53286 54.3954V54.0739C2.53286 53.9667 2.47926 53.9131 2.37207 53.9131C2.26489 53.9131 2.2113 53.9667 2.2113 54.0739V54.3954C2.2113 54.5026 2.26489 54.5562 2.37207 54.5562Z" fill="white"/>
<path d="M2.37207 42.3909C2.47926 42.3909 2.53286 42.3373 2.53286 42.2301V41.9086C2.53286 41.8014 2.47926 41.7478 2.37207 41.7478C2.26489 41.7478 2.2113 41.8014 2.2113 41.9086V42.2301C2.2113 42.3373 2.26489 42.3909 2.37207 42.3909Z" fill="white"/>
<path d="M2.37207 52.5735C2.47926 52.5735 2.53286 52.5199 2.53286 52.4128V52.0912C2.53286 51.984 2.47926 51.9304 2.37207 51.9304C2.26489 51.9304 2.2113 51.984 2.2113 52.0912V52.4128C2.2113 52.4664 2.26489 52.5735 2.37207 52.5735Z" fill="white"/>
<path d="M2.37207 36.2813C2.47926 36.2813 2.53286 36.2277 2.53286 36.1205V35.799C2.53286 35.6918 2.47926 35.6382 2.37207 35.6382C2.26489 35.6382 2.2113 35.6918 2.2113 35.799V36.1205C2.2113 36.2277 2.26489 36.2813 2.37207 36.2813Z" fill="white"/>
<path d="M2.37207 41.3726C2.47926 41.3726 2.53286 41.319 2.53286 41.2118V40.8903C2.53286 40.7831 2.47926 40.7295 2.37207 40.7295C2.26489 40.7295 2.2113 40.7831 2.2113 40.8903V41.2118C2.2113 41.319 2.26489 41.3726 2.37207 41.3726Z" fill="white"/>
<path d="M2.37207 55.5743C2.47926 55.5743 2.53286 55.5207 2.53286 55.4135V55.092C2.53286 54.9848 2.47926 54.9312 2.37207 54.9312C2.26489 54.9312 2.2113 54.9848 2.2113 55.092V55.4135C2.2113 55.5207 2.26489 55.5743 2.37207 55.5743Z" fill="white"/>
<path d="M2.37207 35.2632C2.47926 35.2632 2.53286 35.2096 2.53286 35.1024V34.7809C2.53286 34.6737 2.47926 34.6201 2.37207 34.6201C2.26489 34.6201 2.2113 34.6737 2.2113 34.7809V35.1024C2.2113 35.2096 2.26489 35.2632 2.37207 35.2632Z" fill="white"/>
<path d="M2.37207 40.3545C2.47926 40.3545 2.53286 40.3009 2.53286 40.1937V39.8722C2.53286 39.765 2.47926 39.7114 2.37207 39.7114C2.26489 39.7114 2.2113 39.765 2.2113 39.8722V40.1937C2.2113 40.3009 2.26489 40.3545 2.37207 40.3545Z" fill="white"/>
<path d="M2.37207 38.3179C2.47926 38.3179 2.53286 38.2643 2.53286 38.1571V37.8356C2.53286 37.7284 2.47926 37.6748 2.37207 37.6748C2.26489 37.6748 2.2113 37.7284 2.2113 37.8356V38.1571C2.2113 38.2643 2.26489 38.3179 2.37207 38.3179Z" fill="white"/>
<path d="M2.37207 21.0613C2.47926 21.0613 2.53286 21.0077 2.53286 20.9005V20.579C2.53286 20.4718 2.47926 20.4182 2.37207 20.4182C2.26489 20.4182 2.2113 20.4718 2.2113 20.579V20.9005C2.2113 21.0077 2.26489 21.0613 2.37207 21.0613Z" fill="white"/>
<path d="M2.37207 59.6475C2.47926 59.6475 2.53286 59.5939 2.53286 59.4867V59.1652C2.53286 59.058 2.47926 59.0044 2.37207 59.0044C2.26489 59.0044 2.2113 59.058 2.2113 59.1652V59.4867C2.2113 59.5939 2.26489 59.6475 2.37207 59.6475Z" fill="white"/>
<path d="M2.58645 66.3464H2.53286V66.2928C2.53286 66.1857 2.47926 66.1321 2.37207 66.1321C2.26489 66.1321 2.2113 66.1857 2.2113 66.2928V66.4536C2.2113 66.5072 2.2649 66.5608 2.31849 66.6144L2.47926 66.668H2.53286C2.58645 66.668 2.64004 66.6144 2.69363 66.5608C2.69363 66.5072 2.69363 66.4536 2.69363 66.4536C2.64004 66.4 2.64004 66.3464 2.58645 66.3464Z" fill="white"/>
<path d="M4.51578 67.0432L4.19423 66.936C4.14064 66.936 4.08704 66.936 4.08704 66.936C4.03345 66.936 4.03345 66.9896 4.03345 67.0432C4.03345 67.0968 4.03345 67.1504 4.03345 67.1504C4.03345 67.204 4.08705 67.204 4.14064 67.204L4.4622 67.3111H4.51578C4.56937 67.3111 4.62297 67.2576 4.67656 67.204C4.62297 67.1504 4.56937 67.0432 4.51578 67.0432Z" fill="white"/>
<path d="M17.003 71.4375L16.6815 71.3303C16.6279 71.3303 16.5743 71.3303 16.5743 71.3303C16.5207 71.3303 16.5207 71.3839 16.4671 71.4375C16.4135 71.5447 16.4671 71.5983 16.5743 71.6519L16.8958 71.759H16.9494C17.003 71.759 17.0566 71.7054 17.1102 71.6519C17.1102 71.5983 17.1102 71.5447 17.1102 71.5447C17.1102 71.4375 17.0566 71.4375 17.003 71.4375Z" fill="white"/>
<path d="M5.48052 67.3645L5.15895 67.2573C5.10536 67.2573 5.05176 67.2573 5.05176 67.2573C4.99816 67.2573 4.99817 67.3109 4.94458 67.3645C4.94458 67.4181 4.94458 67.4717 4.94458 67.4717C4.94458 67.5253 4.99816 67.5253 5.05176 67.5253L5.37332 67.6325H5.42692C5.48051 67.6325 5.5341 67.5789 5.5877 67.5253C5.5877 67.4717 5.5877 67.4181 5.5877 67.4181C5.5341 67.4181 5.48052 67.3645 5.48052 67.3645Z" fill="white"/>
<path d="M11.2149 69.4011L10.8933 69.2939C10.8398 69.2939 10.7862 69.2939 10.7862 69.2939C10.7326 69.2939 10.7325 69.3475 10.679 69.4011C10.679 69.4547 10.679 69.5083 10.679 69.5083C10.679 69.5619 10.7326 69.5619 10.7862 69.5619L11.1077 69.6691H11.1613C11.2149 69.6691 11.2685 69.6155 11.3221 69.5619C11.3221 69.5083 11.3221 69.4547 11.3221 69.4547C11.3221 69.4547 11.2685 69.4011 11.2149 69.4011Z" fill="white"/>
<path d="M19.8972 72.4558L19.5756 72.3486C19.522 72.3486 19.4684 72.3486 19.4684 72.3486C19.4148 72.3486 19.4148 72.4022 19.3612 72.4558C19.3612 72.5094 19.3612 72.563 19.3612 72.563C19.3612 72.6166 19.4148 72.6166 19.4684 72.6166L19.79 72.7237H19.8436C19.8972 72.7237 19.9508 72.6702 20.0043 72.6166C20.0043 72.563 20.0043 72.4558 19.8972 72.4558Z" fill="white"/>
<path d="M10.2504 69.0796L9.92887 68.9724C9.87528 68.9724 9.8217 68.9724 9.8217 68.9724C9.7681 68.9724 9.7681 69.026 9.71451 69.0796C9.66091 69.1868 9.71451 69.2404 9.8217 69.294L10.1432 69.4011H10.1969C10.2504 69.4011 10.304 69.3476 10.3576 69.294C10.4112 69.1868 10.3576 69.0796 10.2504 69.0796Z" fill="white"/>
<path d="M7.40996 68.0613L7.0884 67.9541C7.0348 67.9541 6.9812 67.9541 6.9812 67.9541C6.92761 67.9541 6.92762 68.0077 6.87402 68.0613C6.87402 68.1149 6.87402 68.1685 6.87402 68.1685C6.87402 68.2221 6.92761 68.2221 6.9812 68.2221L7.30277 68.3293H7.35636C7.40996 68.3293 7.46354 68.2757 7.51714 68.2221C7.51714 68.1685 7.46355 68.0613 7.40996 68.0613Z" fill="white"/>
<path d="M8.37459 68.3829L8.05302 68.2757C7.94584 68.2221 7.89224 68.2757 7.83865 68.3829C7.78506 68.49 7.83866 68.5436 7.94585 68.5972L8.2674 68.7044H8.32099C8.37459 68.7044 8.42819 68.6508 8.48178 68.5972C8.48178 68.5436 8.48178 68.49 8.48178 68.49C8.42819 68.4365 8.37459 68.3829 8.37459 68.3829Z" fill="white"/>
<path d="M9.28569 68.7044L8.96413 68.5972C8.85694 68.5436 8.80335 68.5972 8.74976 68.7044C8.74976 68.758 8.74976 68.8116 8.74976 68.8116C8.74976 68.8652 8.80334 68.8652 8.85693 68.8652L9.1785 68.9724H9.2321C9.28569 68.9724 9.33928 68.9188 9.39287 68.8652C9.39287 68.8116 9.39287 68.758 9.39287 68.758C9.39287 68.758 9.33929 68.758 9.28569 68.7044Z" fill="white"/>
<path d="M18.9325 72.0808L18.611 71.9736C18.5574 71.9736 18.5038 71.9736 18.5038 71.9736C18.4502 71.9736 18.4502 72.0272 18.3966 72.0808C18.3966 72.1344 18.3966 72.188 18.3966 72.188C18.3966 72.2416 18.4502 72.2416 18.5038 72.2416L18.8253 72.3488H18.8789C18.9325 72.3488 18.9861 72.2952 19.0397 72.2416C19.0397 72.188 19.0397 72.1344 19.0397 72.1344C18.9861 72.1344 18.9861 72.1344 18.9325 72.0808Z" fill="white"/>
<path d="M6.44528 67.6861L6.1237 67.5789C6.0701 67.5789 6.01652 67.5789 6.01652 67.5789C5.96292 67.5789 5.96292 67.6325 5.96292 67.6861C5.90932 67.7932 5.96293 67.8468 6.07012 67.9004L6.39168 68.0076H6.44528C6.49888 68.0076 6.55248 67.954 6.60608 67.9004C6.60608 67.8468 6.60608 67.7932 6.60608 67.7932C6.49889 67.7396 6.44528 67.7396 6.44528 67.6861Z" fill="white"/>
<path d="M17.9678 71.759L17.6462 71.6519C17.5926 71.6519 17.539 71.6519 17.539 71.6519C17.4854 71.6519 17.4855 71.7055 17.4319 71.759C17.4319 71.8126 17.4319 71.8662 17.4319 71.8662C17.4319 71.9198 17.4854 71.9198 17.539 71.9198L17.8606 72.027H17.9142C17.9678 72.027 18.0214 71.9734 18.0749 71.9198C18.0749 71.8662 18.0749 71.8126 18.0749 71.8126C18.0214 71.8126 18.0214 71.759 17.9678 71.759Z" fill="white"/>
<path d="M12.1796 69.7227L11.8581 69.6155C11.8045 69.6155 11.7509 69.6155 11.7509 69.6155C11.6973 69.6155 11.6973 69.6691 11.6973 69.7227C11.6437 69.8298 11.6973 69.8834 11.8045 69.937L12.126 70.0442H12.1796C12.2332 70.0442 12.2868 69.9906 12.3404 69.937C12.3404 69.8834 12.3404 69.8299 12.3404 69.8299C12.2868 69.7763 12.2332 69.7227 12.1796 69.7227Z" fill="white"/>
<path d="M14.1092 70.4194L13.7876 70.3123C13.734 70.3123 13.6804 70.3123 13.6804 70.3123C13.6268 70.3123 13.6268 70.3659 13.5732 70.4194C13.5732 70.473 13.5732 70.5266 13.5732 70.5266C13.5732 70.5802 13.6268 70.5802 13.6804 70.5802L14.002 70.6874H14.0556C14.1092 70.6874 14.1628 70.6338 14.2164 70.5802C14.27 70.5266 14.2164 70.4194 14.1092 70.4194Z" fill="white"/>
<path d="M3.55109 66.668L3.22953 66.5608C3.17594 66.5608 3.12235 66.5608 3.12235 66.5608C3.06876 66.5608 3.06876 66.6144 3.06876 66.668C3.01516 66.7752 3.06875 66.8288 3.17593 66.8824L3.49749 66.9895H3.55109C3.60468 66.9895 3.65827 66.9359 3.71186 66.8824C3.65827 66.8288 3.60468 66.7216 3.55109 66.668Z" fill="white"/>
<path d="M15.0738 70.7409L14.7522 70.6338C14.6986 70.6338 14.645 70.6338 14.645 70.6338C14.5914 70.6338 14.5914 70.6874 14.5378 70.7409C14.5378 70.7945 14.5378 70.8481 14.5378 70.8481C14.5378 70.9017 14.5914 70.9017 14.645 70.9017L14.9666 71.0089H15.0202C15.0738 71.0089 15.1274 70.9553 15.181 70.9017C15.181 70.8482 15.181 70.7946 15.181 70.7946C15.181 70.7946 15.1274 70.7409 15.0738 70.7409Z" fill="white"/>
<path d="M16.0384 71.0625L15.7168 70.9553C15.6632 70.9553 15.6096 70.9553 15.6096 70.9553C15.556 70.9553 15.556 71.0089 15.5024 71.0625C15.5024 71.1161 15.5024 71.1697 15.5024 71.1697C15.5024 71.2233 15.556 71.2233 15.6096 71.2233L15.9312 71.3304H15.9848C16.0384 71.3304 16.092 71.2768 16.1456 71.2233C16.1991 71.2233 16.1455 71.1161 16.0384 71.0625Z" fill="white"/>
<path d="M13.1443 70.0442L12.8227 69.937C12.7692 69.937 12.7156 69.937 12.7156 69.937C12.662 69.937 12.662 69.9906 12.6084 70.0442C12.6084 70.0978 12.6084 70.1514 12.6084 70.1514C12.6084 70.205 12.662 70.205 12.7156 70.205L13.0371 70.3121H13.0907C13.1443 70.3121 13.1979 70.2586 13.2515 70.205C13.2515 70.1514 13.2515 70.0978 13.2515 70.0978C13.2515 70.0978 13.1979 70.0978 13.1443 70.0442Z" fill="white"/>
<path d="M57.0375 8.36026L57.1982 8.41384H57.2518C57.3054 8.41384 57.359 8.36024 57.4126 8.30665C57.4126 8.25305 57.4126 8.19948 57.4126 8.19948C57.4126 8.14589 57.359 8.14587 57.3054 8.14587L57.1447 8.09229C57.0911 8.09229 57.0375 8.09229 57.0375 8.09229C56.9839 8.09229 56.9839 8.14589 56.9839 8.19948C56.9839 8.25308 56.9839 8.30665 56.9839 8.30665C56.9303 8.36024 56.9839 8.36026 57.0375 8.36026Z" fill="white"/>
<path d="M23.5951 7.39578L23.2736 7.50294C23.1664 7.55653 23.1664 7.61014 23.1664 7.71732C23.1664 7.77092 23.2736 7.82451 23.3272 7.82451H23.3808L23.7023 7.71732C23.8095 7.66373 23.8095 7.61013 23.8095 7.50294C23.8095 7.39576 23.7023 7.34219 23.5951 7.39578Z" fill="white"/>
<path d="M31.3125 4.82327L30.991 4.93046C30.8838 4.98405 30.8838 5.03766 30.8838 5.14484C30.8838 5.19843 30.991 5.25203 31.0446 5.25203H31.0982L31.4197 5.14484C31.5269 5.09125 31.5269 5.03764 31.5269 4.93046C31.4733 4.82328 31.3661 4.76968 31.3125 4.82327Z" fill="white"/>
<path d="M34.3674 3.96584C34.3138 3.85865 34.2602 3.85864 34.153 3.85864L33.8314 3.96584C33.7779 3.96584 33.7779 4.01942 33.7243 4.01942C33.6707 4.01942 33.7243 4.07302 33.7243 4.12661C33.7243 4.18021 33.8314 4.23381 33.885 4.23381H33.9386L34.2602 4.12661C34.3674 4.12661 34.421 4.01943 34.3674 3.96584Z" fill="white"/>
<path d="M32.4379 4.60889C32.4379 4.5553 32.3843 4.5553 32.3843 4.50171C32.3307 4.50171 32.3307 4.50171 32.2771 4.50171L31.9556 4.60889C31.8484 4.66248 31.8484 4.71604 31.8484 4.82322C31.8484 4.87681 31.9556 4.9304 32.0092 4.9304H32.0628L32.3843 4.82322C32.4379 4.76963 32.4915 4.66248 32.4379 4.60889Z" fill="white"/>
<path d="M33.4028 4.28732C33.4028 4.23374 33.3491 4.23376 33.3491 4.18018C33.2956 4.18018 33.2956 4.18018 33.242 4.18018L32.9204 4.28732C32.8132 4.34091 32.8132 4.39451 32.8132 4.50169C32.8132 4.55527 32.9204 4.60887 32.974 4.60887H33.0276L33.3491 4.50169C33.4027 4.4481 33.4564 4.34091 33.4028 4.28732Z" fill="white"/>
<path d="M24.7206 7.07397C24.667 7.07397 24.667 7.07397 24.6134 7.07397L24.2919 7.18116C24.1847 7.23475 24.1847 7.28836 24.1847 7.39554C24.1847 7.44913 24.2919 7.50269 24.3455 7.50269H24.3991L24.7206 7.39554C24.8278 7.34195 24.8278 7.28834 24.8278 7.18116C24.7742 7.12757 24.7206 7.07397 24.7206 7.07397Z" fill="white"/>
<path d="M28.4185 5.78787L28.0969 5.89503C27.9898 5.94862 27.9897 6.00223 27.9897 6.10941C27.9897 6.16301 28.097 6.2166 28.1506 6.2166H28.2041L28.5257 6.10941C28.6329 6.05582 28.6329 6.00222 28.6329 5.89503C28.5793 5.78785 28.5257 5.73428 28.4185 5.78787Z" fill="white"/>
<path d="M25.5246 6.75252L25.203 6.8597C25.0958 6.91329 25.0958 6.96686 25.0958 7.07404C25.0958 7.12762 25.203 7.18122 25.2566 7.18122H25.3102L25.6317 7.07404C25.6853 7.07404 25.6853 7.02046 25.7389 7.02046C25.7389 6.96687 25.7389 6.96687 25.7389 6.91328C25.6853 6.75251 25.6317 6.69893 25.5246 6.75252Z" fill="white"/>
<path d="M21.6658 8.0386L21.3443 8.14579C21.2371 8.19938 21.2371 8.25299 21.2371 8.36017C21.2371 8.41376 21.3442 8.46736 21.3978 8.46736H21.4514L21.773 8.36017C21.8802 8.30658 21.8802 8.25298 21.8802 8.14579C21.8802 8.03861 21.773 7.98501 21.6658 8.0386Z" fill="white"/>
<path d="M27.4538 6.1094L27.1322 6.21659C27.025 6.27019 27.025 6.32376 27.025 6.43095C27.025 6.48454 27.1322 6.53814 27.1858 6.53814H27.2394L27.5609 6.43095C27.6681 6.37735 27.6681 6.32378 27.6681 6.21659C27.6145 6.10941 27.5609 6.05581 27.4538 6.1094Z" fill="white"/>
<path d="M26.5964 6.43091C26.5428 6.43091 26.5428 6.43091 26.4892 6.43091L26.1676 6.53809C26.0604 6.59168 26.0604 6.64529 26.0604 6.75247C26.0604 6.80606 26.1676 6.85965 26.2212 6.85965H26.2748L26.5964 6.75247C26.7036 6.69888 26.7036 6.64527 26.7036 6.53809C26.7036 6.4845 26.65 6.43091 26.5964 6.43091Z" fill="white"/>
<path d="M22.6304 7.71707L22.3089 7.82425C22.2017 7.87784 22.2017 7.93141 22.2017 8.03859C22.2017 8.09218 22.3088 8.14578 22.3624 8.14578H22.4161L22.7376 8.03859C22.8448 7.985 22.8448 7.93143 22.8448 7.82425C22.8448 7.71707 22.7376 7.66348 22.6304 7.71707Z" fill="white"/>
<path d="M29.4904 5.46631C29.4368 5.46631 29.4368 5.46631 29.3832 5.46631L29.0616 5.5735C28.9544 5.62709 28.9545 5.68069 28.9545 5.78787C28.9545 5.84146 29.0616 5.89503 29.1152 5.89503H29.1688L29.4904 5.78787C29.5976 5.73428 29.5975 5.68068 29.5975 5.5735C29.5439 5.51991 29.544 5.46631 29.4904 5.46631Z" fill="white"/>
<path d="M30.4551 5.14478C30.4015 5.14478 30.4015 5.14478 30.3479 5.14478L30.0264 5.25196C29.9192 5.30555 29.9192 5.35912 29.9192 5.46631C29.9192 5.5199 30.0264 5.57349 30.08 5.57349H30.1335L30.4551 5.46631C30.5087 5.46631 30.5087 5.41273 30.5623 5.41273C30.5623 5.35914 30.5623 5.35913 30.5623 5.30554C30.5087 5.19836 30.5087 5.14478 30.4551 5.14478Z" fill="white"/>
<path d="M20.7546 8.36043L20.433 8.46762C20.3258 8.52121 20.3258 8.57478 20.3258 8.68197C20.3258 8.73556 20.433 8.78916 20.4866 8.78916H20.5402L20.8618 8.68197C20.9153 8.68197 20.9154 8.62839 20.969 8.62839C21.0225 8.62839 20.969 8.57479 20.969 8.5212C20.9154 8.36042 20.8082 8.30684 20.7546 8.36043Z" fill="white"/>
<path d="M43.907 3.91212L43.5855 3.80493C43.5319 3.80493 43.4783 3.80493 43.4783 3.80493C43.4247 3.80493 43.4247 3.85853 43.4247 3.91212C43.4247 3.96571 43.4247 4.01927 43.4247 4.01927C43.4247 4.07286 43.4783 4.07288 43.5318 4.07288L43.8534 4.18007H43.907C43.9606 4.18007 44.0142 4.12647 44.0678 4.07288C44.0678 4.01929 44.0678 3.9657 44.0678 3.9657C43.9606 3.9657 43.9606 3.91212 43.907 3.91212Z" fill="white"/>
<path d="M49.6952 5.73415L49.3737 5.62695C49.3201 5.62695 49.2665 5.62695 49.2665 5.62695C49.2129 5.62695 49.2129 5.68055 49.2129 5.73415C49.2129 5.78774 49.2129 5.84134 49.2129 5.84134C49.2129 5.89494 49.2665 5.89492 49.3201 5.89492L49.6416 6.00212H49.6952C49.7488 6.00212 49.8024 5.94852 49.856 5.89492C49.856 5.84133 49.856 5.78776 49.856 5.78776C49.8024 5.78776 49.7488 5.73415 49.6952 5.73415Z" fill="white"/>
<path d="M50.6598 6.05568L50.3383 5.94849C50.2847 5.94849 50.2311 5.94849 50.2311 5.94849C50.2311 5.94849 50.1775 6.00209 50.1775 6.05568C50.1775 6.10927 50.1775 6.16284 50.1775 6.16284C50.1775 6.21644 50.2311 6.21646 50.2847 6.21646L50.6062 6.32365H50.6598C50.7134 6.32365 50.767 6.27005 50.8206 6.21646C50.8206 6.16286 50.8206 6.10926 50.8206 6.10926C50.767 6.10926 50.7134 6.05568 50.6598 6.05568Z" fill="white"/>
<path d="M47.7658 5.14478L47.4443 5.0376C47.3907 5.0376 47.3371 5.0376 47.3371 5.0376C47.2835 5.0376 47.2834 5.09119 47.2834 5.14478C47.2834 5.19837 47.2834 5.25197 47.2834 5.25197C47.2834 5.30556 47.3371 5.30555 47.3906 5.30555L47.7122 5.41274H47.7658C47.8194 5.41274 47.873 5.35914 47.9266 5.30555C47.9266 5.25196 47.9266 5.19836 47.9266 5.19836C47.873 5.14477 47.8194 5.14478 47.7658 5.14478Z" fill="white"/>
<path d="M48.7303 5.41285L48.4088 5.30566C48.3552 5.30566 48.3016 5.30566 48.3016 5.30566C48.248 5.30566 48.248 5.35926 48.248 5.41285C48.248 5.46644 48.248 5.52004 48.248 5.52004C48.248 5.57363 48.3016 5.57361 48.3552 5.57361L48.6768 5.6808H48.7303C48.7839 5.6808 48.8375 5.6272 48.8911 5.57361C48.8911 5.52002 48.8911 5.46643 48.8911 5.46643C48.8375 5.46643 48.7839 5.46644 48.7303 5.41285Z" fill="white"/>
<path d="M51.6244 6.32374L51.3029 6.21655C51.2493 6.21655 51.1957 6.21655 51.1957 6.21655C51.1421 6.21655 51.1421 6.27015 51.1421 6.32374C51.1421 6.37733 51.1421 6.43089 51.1421 6.43089C51.1421 6.48448 51.1957 6.4845 51.2493 6.4845L51.5708 6.59169H51.6244C51.678 6.59169 51.7316 6.53809 51.7852 6.4845C51.7852 6.43091 51.7852 6.37732 51.7852 6.37732C51.7316 6.37732 51.678 6.37733 51.6244 6.32374Z" fill="white"/>
<path d="M52.2141 6.85965L52.5357 6.9668H52.5892C52.6428 6.9668 52.6964 6.91324 52.75 6.85965C52.75 6.75247 52.75 6.69886 52.6428 6.64527L52.3213 6.53809C52.2677 6.53809 52.2141 6.53809 52.2141 6.53809C52.1605 6.53809 52.1605 6.59168 52.1605 6.64527C52.1605 6.69886 52.1605 6.75246 52.1605 6.75246C52.1069 6.80605 52.1605 6.85965 52.2141 6.85965Z" fill="white"/>
<path d="M55.1082 7.77065L55.4297 7.87785H55.4833C55.5369 7.87785 55.5905 7.82425 55.6441 7.77065C55.6441 7.71706 55.6441 7.66349 55.6441 7.66349C55.6441 7.6099 55.5905 7.60988 55.5369 7.60988L55.2154 7.50269C55.1618 7.50269 55.1082 7.50269 55.1082 7.50269C55.0546 7.50269 55.0545 7.55629 55.0545 7.60988C55.0545 7.66347 55.0545 7.71707 55.0545 7.71707C55.0009 7.71707 55.0546 7.77065 55.1082 7.77065Z" fill="white"/>
<path d="M46.8011 4.82322L46.4795 4.71606C46.4259 4.71606 46.3723 4.71606 46.3723 4.71606C46.3187 4.71606 46.3187 4.76963 46.3187 4.82322C46.3187 4.87681 46.3187 4.93041 46.3187 4.93041C46.3187 4.984 46.3723 4.98402 46.4259 4.98402L46.7475 5.09118H46.8011C46.8547 5.09118 46.9083 5.03761 46.9619 4.98402C46.9619 4.93043 46.9619 4.87683 46.9619 4.87683C46.9083 4.87683 46.8547 4.82322 46.8011 4.82322Z" fill="white"/>
<path d="M56.0727 8.09231L56.3943 8.1995H56.4479C56.5015 8.1995 56.5551 8.1459 56.6086 8.09231C56.6086 7.98513 56.6086 7.93153 56.5015 7.87794L56.1799 7.77075C56.1263 7.77075 56.0727 7.77075 56.0727 7.77075C56.0191 7.77075 56.0191 7.82435 56.0191 7.87794C56.0191 7.93153 56.0191 7.98512 56.0191 7.98512C55.9656 8.03871 56.0191 8.03872 56.0727 8.09231Z" fill="white"/>
<path d="M54.1436 7.44935L54.4651 7.55653H54.5187C54.5723 7.55653 54.6259 7.50294 54.6795 7.44935C54.6795 7.39576 54.6795 7.34216 54.6795 7.34216C54.6795 7.28857 54.6259 7.28858 54.5723 7.28858L54.2507 7.1814C54.1971 7.1814 54.1436 7.1814 54.1436 7.1814C54.09 7.1814 54.0899 7.23499 54.0899 7.28858C54.0899 7.34217 54.0899 7.39577 54.0899 7.39577C54.0364 7.39577 54.09 7.44935 54.1436 7.44935Z" fill="white"/>
<path d="M53.1787 7.18128L53.5003 7.28847H53.5539C53.6075 7.28847 53.6611 7.23487 53.7146 7.18128C53.7146 7.12769 53.7146 7.07409 53.7146 7.07409C53.7146 7.0205 53.6611 7.02052 53.6075 7.02052L53.2859 6.91333C53.2323 6.91333 53.1787 6.91333 53.1787 6.91333C53.1251 6.91333 53.1251 6.96693 53.1251 7.02052C53.1251 7.07411 53.1251 7.1277 53.1251 7.1277C53.0715 7.1277 53.1251 7.12769 53.1787 7.18128Z" fill="white"/>
<path d="M36.2968 3.32253C36.2968 3.26893 36.2432 3.26893 36.2432 3.21533C36.1896 3.21533 36.1896 3.21533 36.136 3.21533L35.8145 3.32253C35.7609 3.32253 35.7609 3.37614 35.7073 3.37614C35.6537 3.37614 35.7073 3.42971 35.7073 3.4833C35.7073 3.5369 35.8145 3.5905 35.8681 3.5905H35.9217L36.2432 3.4833C36.2968 3.4833 36.3504 3.37612 36.2968 3.32253Z" fill="white"/>
<path d="M39.9948 3.00114C40.0484 3.00114 40.102 2.94754 40.1556 2.89395C40.1556 2.84035 40.1556 2.78675 40.1556 2.78675C40.1556 2.73316 40.102 2.73317 40.0484 2.73317L39.7268 2.62598C39.6732 2.62598 39.6196 2.62598 39.6196 2.62598C39.566 2.62598 39.566 2.67958 39.566 2.73317C39.566 2.84036 39.566 2.89393 39.6732 2.94753L39.9948 3.00114Z" fill="white"/>
<path d="M38.2262 2.78684C38.2262 2.73325 38.2262 2.73325 38.2262 2.67966C38.2262 2.62607 38.1726 2.6261 38.1726 2.57251C38.119 2.57251 38.0654 2.57251 38.0654 2.57251L37.7438 2.67966C37.6366 2.73325 37.6366 2.78685 37.6366 2.89402C37.6366 2.94761 37.7438 3.0012 37.7974 3.0012H37.851L38.1726 2.89402C38.1726 2.84043 38.1726 2.84043 38.2262 2.78684Z" fill="white"/>
<path d="M38.9764 2.62597C39.0835 2.62597 39.1372 2.62597 39.1907 2.51879C39.1907 2.4652 39.1907 2.4116 39.1907 2.4116C39.1907 2.35801 39.1371 2.35802 39.0836 2.35802L38.9764 2.30444C38.9228 2.30444 38.9228 2.30444 38.8692 2.30444L38.6548 2.35802C38.6012 2.35802 38.6012 2.4116 38.5476 2.4116C38.5476 2.46519 38.5476 2.4652 38.5476 2.51879C38.5476 2.57238 38.6548 2.62597 38.7084 2.62597H38.762H38.9764Z" fill="white"/>
<path d="M45.8364 4.50172L45.5148 4.39453C45.4612 4.39453 45.4076 4.39453 45.4076 4.39453C45.354 4.39453 45.354 4.44813 45.354 4.50172C45.354 4.6089 45.354 4.6625 45.4612 4.71609L45.7828 4.82325H45.8364C45.89 4.82325 45.9436 4.76968 45.9971 4.71609C45.9971 4.6625 45.9971 4.60891 45.9971 4.60891C45.9436 4.55532 45.89 4.55531 45.8364 4.50172Z" fill="white"/>
<path d="M35.3322 3.64405C35.3322 3.59046 35.2786 3.59046 35.2786 3.53687C35.225 3.53687 35.225 3.53687 35.1714 3.53687L34.8499 3.64405C34.7963 3.64405 34.7963 3.69763 34.7427 3.69763C34.7427 3.75122 34.7427 3.75123 34.7427 3.80482C34.7427 3.85841 34.8499 3.912 34.9034 3.912H34.957L35.2786 3.80482C35.3322 3.80482 35.3858 3.69764 35.3322 3.64405Z" fill="white"/>
<path d="M37.2615 3.00123C37.2079 2.89405 37.1543 2.89404 37.0471 2.89404L36.7256 3.00123C36.672 3.00123 36.672 3.05481 36.6184 3.05481C36.6184 3.1084 36.6184 3.1084 36.6184 3.16199C36.6184 3.21558 36.7256 3.26918 36.7792 3.26918H36.8328L37.1543 3.16199C37.2615 3.16199 37.3151 3.05482 37.2615 3.00123Z" fill="white"/>
<path d="M44.8718 4.23366L44.5502 4.12646C44.443 4.12646 44.3894 4.12647 44.3358 4.23366C44.3358 4.28725 44.3358 4.34085 44.3358 4.34085C44.3358 4.39445 44.3894 4.39443 44.443 4.39443L44.7646 4.50163H44.8182C44.8718 4.50163 44.9254 4.44803 44.979 4.39443C44.979 4.34084 44.979 4.28724 44.979 4.28724C44.979 4.23365 44.9254 4.23366 44.8718 4.23366Z" fill="white"/>
<path d="M42.9424 3.59059L42.6209 3.4834C42.5673 3.4834 42.5137 3.4834 42.5137 3.4834C42.4601 3.4834 42.4601 3.537 42.4601 3.59059C42.4601 3.64419 42.4601 3.69779 42.4601 3.69779C42.4601 3.75138 42.5137 3.75137 42.5673 3.75137L42.8888 3.85856H42.9424C42.996 3.85856 43.0496 3.80496 43.1032 3.75137C43.1032 3.69777 43.1032 3.64421 43.1032 3.64421C42.996 3.64421 42.996 3.59059 42.9424 3.59059Z" fill="white"/>
<path d="M40.9594 3.32276C41.013 3.32276 41.0666 3.26916 41.1201 3.21557C41.1201 3.10839 41.1202 3.05482 41.013 3.00123L40.6914 2.89404C40.6378 2.89404 40.5842 2.89404 40.5842 2.89404C40.5306 2.89404 40.5306 2.94764 40.5306 3.00123C40.5306 3.05482 40.5306 3.10842 40.5306 3.10842C40.5306 3.16201 40.5842 3.162 40.6378 3.162L40.9594 3.32276Z" fill="white"/>
<path d="M41.9241 3.5905C41.9777 3.5905 42.0313 3.5369 42.0849 3.4833C42.0849 3.42971 42.0849 3.37614 42.0849 3.37614C42.0849 3.32255 42.0313 3.32253 41.9777 3.32253L41.6561 3.21533C41.5489 3.21533 41.4954 3.21534 41.4418 3.32253C41.4418 3.42971 41.4418 3.48332 41.549 3.53691L41.9241 3.5905Z" fill="white"/>
<path d="M12.7692 11.3078C12.7692 11.3078 12.8228 11.3078 12.7692 11.3078L13.1443 11.2007C13.2515 11.1471 13.2515 11.0935 13.2515 10.9863C13.1979 10.8791 13.1443 10.8792 13.0371 10.8792L12.7156 10.9863C12.6084 11.0399 12.6084 11.0935 12.6084 11.2007C12.662 11.2542 12.7156 11.3078 12.7692 11.3078Z" fill="white"/>
<path d="M13.734 10.9863C13.734 10.9863 13.7876 10.9863 13.734 10.9863L14.1092 10.8792C14.2164 10.8256 14.2164 10.772 14.2164 10.6648C14.1628 10.5576 14.1092 10.5576 14.002 10.5576L13.6804 10.6648C13.5732 10.7184 13.5732 10.772 13.5732 10.8792C13.6268 10.9328 13.6804 10.9863 13.734 10.9863Z" fill="white"/>
<path d="M11.8046 11.6294C11.8046 11.6294 11.8582 11.6294 11.8046 11.6294L12.1797 11.5222C12.2869 11.4686 12.2869 11.4151 12.2869 11.3079C12.2333 11.2007 12.1797 11.2007 12.0726 11.2007L11.751 11.3079C11.6438 11.3615 11.6438 11.415 11.6438 11.5222C11.6974 11.5758 11.751 11.6294 11.8046 11.6294Z" fill="white"/>
<path d="M17.5927 9.69998L17.9678 9.59279C18.075 9.5392 18.0749 9.48559 18.0749 9.3784C18.0214 9.27121 17.9678 9.27124 17.8606 9.27124L17.539 9.3784C17.4319 9.432 17.4319 9.4856 17.4319 9.59279C17.4319 9.64638 17.4855 9.69998 17.5927 9.69998Z" fill="white"/>
<path d="M6.06997 13.5586L6.44512 13.4514C6.55231 13.3979 6.55232 13.3442 6.55232 13.2371C6.49873 13.1299 6.44513 13.1299 6.33795 13.1299L6.01638 13.2371C5.90919 13.2907 5.90918 13.3443 5.90918 13.4514C5.90918 13.505 5.96278 13.5586 6.06997 13.5586Z" fill="white"/>
<path d="M15.6632 10.343L16.0384 10.2359C16.1455 10.1823 16.1456 10.1287 16.1456 10.0215C16.092 9.91431 16.0384 9.91431 15.9312 9.91431L15.6096 10.0215C15.5024 10.0751 15.5024 10.1287 15.5024 10.2359C15.5024 10.2895 15.6096 10.343 15.6632 10.343Z" fill="white"/>
<path d="M19.522 9.05692L19.8972 8.94972C20.0043 8.89613 20.0043 8.84256 20.0043 8.73537C19.9508 8.62818 19.8971 8.62817 19.79 8.62817L19.4684 8.73537C19.3612 8.78896 19.3612 8.84254 19.3612 8.94972C19.3612 9.05691 19.4148 9.05692 19.522 9.05692Z" fill="white"/>
<path d="M10.8397 11.9507C10.8933 11.9507 10.8933 11.9507 10.8397 11.9507L11.2149 11.8435C11.3221 11.7899 11.3221 11.7363 11.3221 11.6292C11.2685 11.522 11.2149 11.522 11.1077 11.522L10.7862 11.6292C10.679 11.6827 10.679 11.7364 10.679 11.8435C10.7325 11.8971 10.7861 11.9507 10.8397 11.9507Z" fill="white"/>
<path d="M7.94571 12.9155C7.9993 12.9155 7.9993 12.9155 7.94571 12.9155L8.32086 12.8083C8.42805 12.7547 8.42805 12.7011 8.42805 12.594C8.37446 12.4868 8.32087 12.4868 8.21368 12.4868L7.89211 12.594C7.78492 12.6476 7.78491 12.7012 7.78491 12.8083C7.83851 12.8619 7.89211 12.9155 7.94571 12.9155Z" fill="white"/>
<path d="M6.98121 13.2371C7.0348 13.2371 7.0348 13.2371 6.98121 13.2371L7.35637 13.1299C7.46356 13.0763 7.46355 13.0227 7.46355 12.9155C7.40996 12.8084 7.35637 12.8083 7.24918 12.8083L6.92761 12.9155C6.82042 12.9691 6.82043 13.0227 6.82043 13.1299C6.87403 13.1835 6.92762 13.2371 6.98121 13.2371Z" fill="white"/>
<path d="M16.628 10.0217L17.0031 9.91455C17.1103 9.86096 17.1103 9.80739 17.1103 9.70021C17.0567 9.59302 17.0031 9.59302 16.8959 9.59302L16.5744 9.70021C16.4672 9.7538 16.4672 9.80737 16.4672 9.91455C16.4672 9.96814 16.5744 10.0217 16.628 10.0217Z" fill="white"/>
<path d="M18.5574 9.37842L18.9325 9.27127C19.0397 9.21768 19.0397 9.16408 19.0397 9.05689C18.9861 8.94971 18.9325 8.94971 18.8253 8.94971L18.5038 9.05689C18.3966 9.11048 18.3966 9.16409 18.3966 9.27127C18.3966 9.37845 18.4502 9.37842 18.5574 9.37842Z" fill="white"/>
<path d="M9.87513 12.2724C9.92873 12.2724 9.92873 12.2724 9.87513 12.2724L10.2503 12.1653C10.3575 12.1117 10.3575 12.0581 10.3575 11.9509C10.3039 11.8438 10.2503 11.8438 10.1431 11.8438L9.82155 11.9509C9.71436 12.0045 9.71436 12.0581 9.71436 12.1653C9.76795 12.2188 9.82154 12.2724 9.87513 12.2724Z" fill="white"/>
<path d="M3.17603 14.5232L3.55118 14.416C3.65837 14.3624 3.65837 14.3088 3.65837 14.2016C3.60478 14.0945 3.55118 14.0945 3.44399 14.0945L3.12245 14.2016C3.01527 14.2552 3.01526 14.3088 3.01526 14.416C3.01526 14.4696 3.12244 14.5232 3.17603 14.5232Z" fill="white"/>
<path d="M5.10535 13.8801L5.48052 13.7729C5.5877 13.7194 5.5877 13.6658 5.5877 13.5586C5.5341 13.4514 5.48051 13.4514 5.37332 13.4514L5.05176 13.5586C4.94457 13.6122 4.94458 13.6658 4.94458 13.7729C4.94458 13.8265 4.99817 13.8801 5.10535 13.8801Z" fill="white"/>
<path d="M14.6986 10.6646C14.6986 10.6646 14.7522 10.6646 14.6986 10.6646L15.0738 10.5574C15.181 10.5038 15.181 10.4502 15.181 10.343C15.181 10.2894 15.1274 10.2894 15.1274 10.2358C15.0738 10.2358 15.0738 10.2358 15.0202 10.2358L14.6986 10.343C14.5914 10.3966 14.5914 10.4502 14.5914 10.5574C14.5914 10.611 14.645 10.6646 14.6986 10.6646Z" fill="white"/>
<path d="M8.91053 12.594C8.96412 12.594 8.96412 12.594 8.91053 12.594L9.28569 12.4868C9.39288 12.4333 9.39287 12.3797 9.39287 12.2725C9.33928 12.1653 9.28569 12.1653 9.1785 12.1653L8.85693 12.2725C8.74975 12.3261 8.74976 12.3797 8.74976 12.4868C8.80335 12.5404 8.85694 12.594 8.91053 12.594Z" fill="white"/>
<path d="M4.14065 14.2016L4.5158 14.0945C4.62299 14.0409 4.623 13.9873 4.623 13.8801C4.5694 13.773 4.51581 13.7729 4.40862 13.7729L4.08705 13.8801C3.97986 13.9337 3.97986 13.9873 3.97986 14.0945C3.97986 14.1481 4.03346 14.2016 4.14065 14.2016Z" fill="white"/>
<path d="M2.69363 14.5235C2.64004 14.4163 2.58645 14.4163 2.47926 14.4163L2.31849 14.4698C2.31849 14.4698 2.31849 14.4698 2.2649 14.4698C2.2649 14.4698 2.2649 14.4699 2.2113 14.5235V14.577V14.7378C2.2113 14.845 2.26489 14.8986 2.37207 14.8986C2.42566 14.8986 2.47927 14.845 2.53286 14.7914C2.58645 14.7914 2.69363 14.7378 2.69363 14.6842C2.69363 14.6306 2.69363 14.6306 2.69363 14.577C2.69363 14.577 2.69363 14.577 2.69363 14.5235Z" fill="white"/>
<path d="M42.0313 50.0546L41.8705 50.001C41.7633 50.001 41.7097 50.001 41.6561 50.1081C41.6561 50.1617 41.6561 50.2153 41.6561 50.2153C41.6561 50.2689 41.7097 50.2689 41.7633 50.2689L41.9241 50.3225H41.9777C42.0313 50.3225 42.0849 50.2689 42.1385 50.2153C42.1385 50.1617 42.1385 50.1081 42.1385 50.1081C42.1385 50.1081 42.0849 50.0546 42.0313 50.0546Z" fill="white"/>
<path d="M37.3687 48.5005L37.0471 48.3933C36.9935 48.3933 36.9399 48.3933 36.9399 48.3933C36.8863 48.3933 36.8864 48.4469 36.8864 48.5005C36.8864 48.554 36.8864 48.6076 36.8864 48.6076C36.8864 48.6612 36.94 48.6612 36.9935 48.6612L37.3151 48.7684H37.3687C37.4223 48.7684 37.4759 48.7148 37.5295 48.6612C37.5295 48.6077 37.4759 48.5005 37.3687 48.5005Z" fill="white"/>
<path d="M36.4039 48.179L36.0823 48.0718C35.9751 48.0718 35.9215 48.0718 35.8679 48.179C35.8144 48.2861 35.868 48.3398 35.9751 48.3933L36.2967 48.5005H36.3503C36.4039 48.5005 36.4575 48.4469 36.5111 48.3933C36.5111 48.3398 36.5111 48.2862 36.5111 48.2862C36.5111 48.2326 36.4575 48.179 36.4039 48.179Z" fill="white"/>
<path d="M38.3333 48.822L38.0118 48.7148C37.9046 48.7148 37.851 48.7149 37.7974 48.822C37.7438 48.9292 37.7974 48.9828 37.9046 49.0364L38.2262 49.1436H38.2797C38.3333 49.1436 38.3869 49.09 38.4405 49.0364C38.4941 48.9292 38.4405 48.822 38.3333 48.822Z" fill="white"/>
<path d="M35.4393 47.8572L35.1177 47.75C35.0641 47.75 35.0105 47.75 35.0105 47.75C34.9569 47.75 34.9569 47.8036 34.9569 47.8572C34.9569 47.9108 34.9569 47.9644 34.9569 47.9644C34.9569 47.9644 35.0105 48.018 35.0641 48.018L35.3857 48.1252H35.4393C35.4929 48.1252 35.5465 48.0716 35.6001 48.018C35.6001 47.9644 35.5465 47.8572 35.4393 47.8572Z" fill="white"/>
<path d="M40.2627 49.4651L39.9412 49.3579C39.834 49.3043 39.7804 49.3579 39.7268 49.4651C39.7268 49.5187 39.7268 49.5723 39.7268 49.5723C39.7268 49.6259 39.7804 49.6259 39.834 49.6259L40.1555 49.7331H40.2091C40.2627 49.7331 40.3163 49.6795 40.3699 49.6259C40.4235 49.5723 40.3699 49.4651 40.2627 49.4651Z" fill="white"/>
<path d="M41.2274 49.7866L40.9058 49.6794C40.7986 49.6794 40.745 49.6794 40.6914 49.7866C40.6378 49.8938 40.6914 49.9474 40.7986 50.001L41.1202 50.1082H41.1738C41.2274 50.1082 41.2809 50.0546 41.3345 50.001C41.3345 49.9474 41.3345 49.8938 41.3345 49.8938C41.2809 49.8402 41.2809 49.7866 41.2274 49.7866Z" fill="white"/>
<path d="M34.4746 47.5357L34.1531 47.4285C34.0459 47.3749 33.9923 47.4285 33.9387 47.5357C33.9387 47.5893 33.9387 47.6429 33.9387 47.6429C33.9387 47.6965 33.9923 47.6964 34.0459 47.6964L34.3674 47.8036H34.421C34.4746 47.8036 34.5282 47.75 34.5818 47.6964C34.6354 47.6428 34.5818 47.5357 34.4746 47.5357Z" fill="white"/>
<path d="M39.2979 49.1433L38.9763 49.0361C38.9227 49.0361 38.8692 49.0361 38.8692 49.0361C38.8156 49.0361 38.8156 49.0897 38.8156 49.1433C38.8156 49.1969 38.8156 49.2505 38.8156 49.2505C38.8156 49.3041 38.8692 49.3041 38.9227 49.3041L39.2443 49.4113H39.2979C39.3515 49.4113 39.4051 49.3577 39.4587 49.3041C39.4587 49.2505 39.4587 49.1969 39.4587 49.1969C39.4051 49.1969 39.3515 49.1433 39.2979 49.1433Z" fill="white"/>
<path d="M33.51 47.2142L33.1884 47.107C33.0812 47.0534 33.0276 47.107 32.974 47.2142C32.9204 47.3213 32.974 47.3749 33.0812 47.4285L33.4028 47.5357H33.4564C33.51 47.5357 33.5635 47.4821 33.6171 47.4285C33.6171 47.3749 33.6171 47.3213 33.6171 47.3213C33.6171 47.2678 33.5636 47.2142 33.51 47.2142Z" fill="white"/>
<path d="M32.5987 46.8928L32.2771 46.7857C32.1699 46.7321 32.1164 46.7857 32.0628 46.8928C32.0092 47 32.0628 47.0536 32.17 47.1072L32.4915 47.2144H32.5451C32.5987 47.2144 32.6523 47.1608 32.7059 47.1072C32.7059 47.0536 32.7059 47 32.7059 47L32.5987 46.8928Z" fill="white"/>
<path d="M10.2504 53.6987L9.92887 53.5916C9.82169 53.5916 9.7681 53.5916 9.71451 53.6987C9.66091 53.8059 9.71451 53.8595 9.8217 53.9131L10.1432 54.0203H10.1969C10.2504 54.0203 10.304 53.9667 10.3576 53.9131C10.4112 53.8059 10.3576 53.6987 10.2504 53.6987Z" fill="white"/>
<path d="M10.8399 54.1809L11.1615 54.2881H11.215C11.2686 54.2881 11.3222 54.2345 11.3758 54.1809C11.4294 54.0738 11.3758 54.0202 11.2686 53.9666L10.9471 53.8594C10.8399 53.8594 10.7863 53.8594 10.7327 53.9666C10.6791 54.0737 10.7327 54.1809 10.8399 54.1809Z" fill="white"/>
<path d="M13.1444 54.6633L12.8228 54.5562C12.7156 54.5562 12.662 54.5561 12.6084 54.6633C12.5548 54.7705 12.6084 54.8241 12.7156 54.8777L13.0372 54.9849H13.0908C13.1444 54.9849 13.198 54.9313 13.2515 54.8777C13.3051 54.7705 13.2516 54.6633 13.1444 54.6633Z" fill="white"/>
<path d="M14.645 55.4673L14.9666 55.5745H15.0202C15.0738 55.5745 15.1274 55.5209 15.181 55.4673C15.2346 55.3601 15.181 55.3065 15.0738 55.253L14.7522 55.1458C14.645 55.0922 14.5914 55.1458 14.5378 55.253C14.5378 55.3601 14.5914 55.4673 14.645 55.4673Z" fill="white"/>
<path d="M12.1796 54.3418L11.8581 54.2346C11.7509 54.2346 11.6973 54.2346 11.6437 54.3418C11.5901 54.449 11.6437 54.5026 11.7509 54.5562L12.0725 54.6633H12.1261C12.1796 54.6633 12.2332 54.6098 12.2868 54.5562C12.3404 54.449 12.2868 54.3418 12.1796 54.3418Z" fill="white"/>
<path d="M13.6804 55.1458L14.002 55.253H14.0556C14.1092 55.253 14.1628 55.1994 14.2164 55.1458C14.27 55.0386 14.2164 54.985 14.1092 54.9314L13.7876 54.8243C13.6804 54.7707 13.6268 54.8242 13.5732 54.9314C13.5732 55.0386 13.6268 55.1458 13.6804 55.1458Z" fill="white"/>
<path d="M15.6096 55.7889L15.9312 55.8961H15.9848C16.0384 55.8961 16.092 55.8425 16.1456 55.7889C16.1991 55.6817 16.1455 55.6281 16.0384 55.5745L15.7168 55.4673C15.6096 55.4673 15.556 55.4673 15.5024 55.5745C15.5024 55.6281 15.5024 55.6817 15.5024 55.6817C15.556 55.7353 15.6096 55.7889 15.6096 55.7889Z" fill="white"/>
<path d="M16.5744 56.1103L16.8959 56.2175H16.9495C17.0031 56.2175 17.0567 56.1639 17.1103 56.1103C17.1639 56.0032 17.1103 55.9496 17.0031 55.896L16.6816 55.7888C16.5744 55.7888 16.5208 55.7888 16.4672 55.896C16.4672 56.0032 16.5208 56.1103 16.5744 56.1103Z" fill="white"/>
<path d="M17.539 56.432L17.8606 56.5392H17.9142C17.9678 56.5392 18.0214 56.4856 18.0749 56.432C18.0749 56.3785 18.0749 56.3249 18.0749 56.3249C18.0749 56.2713 18.0214 56.2712 17.9678 56.2712L17.6462 56.1641C17.539 56.1105 17.4855 56.1641 17.4319 56.2712C17.4319 56.3248 17.4319 56.3784 17.4319 56.3784L17.539 56.432Z" fill="white"/>
<path d="M5.48044 52.0908L5.15887 51.9836C5.05168 51.9836 4.99808 51.9836 4.94449 52.0908C4.89089 52.198 4.94448 52.2516 5.05167 52.3052L5.37324 52.4124H5.42684C5.48044 52.4124 5.53402 52.3588 5.58762 52.3052C5.58762 52.198 5.53403 52.0908 5.48044 52.0908Z" fill="white"/>
<path d="M18.5038 56.7537L18.8253 56.8609H18.8789C18.9325 56.8609 18.9861 56.8073 19.0397 56.7537C19.0933 56.6465 19.0397 56.5929 18.9325 56.5393L18.611 56.4322C18.5038 56.3786 18.4502 56.4321 18.3966 56.5393C18.3966 56.6465 18.4502 56.7537 18.5038 56.7537Z" fill="white"/>
<path d="M6.44512 52.4126L6.12355 52.3054C6.01637 52.3054 5.96277 52.3054 5.90918 52.4126C5.90918 52.4662 5.90918 52.5197 5.90918 52.5197C5.90918 52.5733 5.96278 52.5734 6.01638 52.5734L6.33795 52.6805H6.39153C6.44512 52.6805 6.49873 52.6269 6.55232 52.5734C6.55232 52.5198 6.55232 52.4662 6.55232 52.4662C6.49873 52.4126 6.44512 52.4126 6.44512 52.4126Z" fill="white"/>
<path d="M3.55123 51.448L3.22966 51.3408C3.12247 51.3408 3.06888 51.3408 3.01529 51.448C2.96169 51.5552 3.01529 51.6088 3.12248 51.6624L3.44403 51.7696H3.49763C3.55122 51.7696 3.60483 51.716 3.65842 51.6624C3.65842 51.5552 3.60482 51.448 3.55123 51.448Z" fill="white"/>
<path d="M7.40976 52.7342L7.08819 52.627C6.981 52.5734 6.92741 52.627 6.87381 52.7342C6.82022 52.8414 6.8738 52.895 6.98099 52.9486L7.30256 53.0557H7.35616C7.40976 53.0557 7.46335 53.0022 7.51694 52.9486C7.51694 52.8414 7.46335 52.7342 7.40976 52.7342Z" fill="white"/>
<path d="M4.5158 51.7693L4.19427 51.6621C4.08708 51.6085 4.03348 51.6621 3.97989 51.7693C3.92629 51.8765 3.97989 51.9301 4.08708 51.9837L4.40863 52.0909H4.46222C4.51582 52.0909 4.5694 52.0373 4.62299 51.9837C4.62299 51.9301 4.62299 51.8765 4.62299 51.8765L4.5158 51.7693Z" fill="white"/>
<path d="M7.94584 53.2166L8.26739 53.3237H8.32099C8.37458 53.3237 8.42818 53.2702 8.48178 53.2166C8.53537 53.1094 8.48177 53.0558 8.37458 53.0022L8.05302 52.895C7.94583 52.895 7.89224 52.895 7.83865 53.0022C7.78506 53.1094 7.83866 53.2166 7.94584 53.2166Z" fill="white"/>
<path d="M8.91045 53.5381L9.23202 53.6453H9.28562C9.33922 53.6453 9.39281 53.5917 9.4464 53.5381C9.5 53.4309 9.44639 53.3773 9.3392 53.3237L9.01765 53.2166C8.91045 53.163 8.85685 53.2166 8.80325 53.3237C8.74966 53.4309 8.80326 53.5381 8.91045 53.5381Z" fill="white"/>
<path d="M19.4684 57.0752L19.79 57.1824H19.8436C19.8972 57.1824 19.9507 57.1288 20.0043 57.0752C20.0579 56.968 20.0043 56.9144 19.8971 56.8608L19.5756 56.7537C19.4684 56.7537 19.4148 56.7537 19.3612 56.8608C19.3612 56.968 19.4148 57.0752 19.4684 57.0752Z" fill="white"/>
<path d="M19.8973 51.0728L19.5757 50.9656C19.4686 50.912 19.4149 50.9656 19.3614 51.0728C19.3078 51.18 19.3614 51.2335 19.4685 51.2871L19.7901 51.3943H19.8437C19.8973 51.3943 19.9509 51.3407 20.0045 51.2871C20.0045 51.2335 20.0045 51.1264 19.8973 51.0728Z" fill="white"/>
<path d="M12.1796 48.3934L11.8581 48.2862C11.7509 48.2326 11.6973 48.2862 11.6437 48.3934C11.5901 48.5005 11.6437 48.5541 11.7509 48.6077L12.0725 48.7149H12.1261C12.1796 48.7149 12.2332 48.6613 12.2868 48.6077C12.3404 48.5005 12.2868 48.4469 12.1796 48.3934Z" fill="white"/>
<path d="M13.1444 48.7149L12.8228 48.6077C12.7156 48.5541 12.662 48.6077 12.6084 48.7149C12.5548 48.8221 12.6084 48.8757 12.7156 48.9293L13.0372 49.0364H13.0908C13.1444 49.0364 13.198 48.9829 13.2515 48.9293C13.3051 48.8757 13.2516 48.7685 13.1444 48.7149Z" fill="white"/>
<path d="M15.0738 49.4114L14.7523 49.3042C14.6451 49.2506 14.5915 49.3042 14.5379 49.4114C14.4843 49.5186 14.5379 49.5722 14.6451 49.6258L14.9666 49.733H15.0202C15.0738 49.733 15.1274 49.6794 15.181 49.6258C15.2346 49.5186 15.181 49.4114 15.0738 49.4114Z" fill="white"/>
<path d="M14.109 49.0899L13.7874 48.9827C13.6802 48.9291 13.6266 48.9827 13.573 49.0899C13.5194 49.197 13.573 49.2506 13.6802 49.3042L14.0018 49.4114H14.0554C14.109 49.4114 14.1626 49.3578 14.2162 49.3042C14.2698 49.197 14.2162 49.0899 14.109 49.0899Z" fill="white"/>
<path d="M3.12252 45.553L3.44408 45.6602H3.49767C3.55127 45.6602 3.60487 45.6066 3.65847 45.553C3.71206 45.4458 3.65846 45.3922 3.55127 45.3386L3.2297 45.2314C3.17611 45.2314 3.12252 45.2314 3.12252 45.2314C3.06893 45.2314 3.06892 45.285 3.06892 45.3386C2.96173 45.4458 3.01533 45.4994 3.12252 45.553Z" fill="white"/>
<path d="M17.9679 50.4297L17.6463 50.3225C17.5927 50.3225 17.5391 50.3225 17.5391 50.3225C17.4855 50.3225 17.4855 50.3761 17.4855 50.4297C17.4319 50.5369 17.4855 50.5904 17.5927 50.644L17.9142 50.7512H17.9679C18.0215 50.7512 18.075 50.6976 18.1286 50.644C18.075 50.5369 18.075 50.4297 17.9679 50.4297Z" fill="white"/>
<path d="M8.37459 47.0535L8.05302 46.9463C7.94584 46.8927 7.89224 46.9463 7.83865 47.0535C7.78506 47.1607 7.83866 47.2142 7.94585 47.2678L8.2674 47.375H8.32099C8.37459 47.375 8.42819 47.3214 8.48178 47.2678C8.48178 47.1607 8.42818 47.0535 8.37459 47.0535Z" fill="white"/>
<path d="M17.003 50.1081L16.6814 50.001C16.6278 50.001 16.5742 50.001 16.5742 50.001C16.5206 50.001 16.5207 50.0545 16.5207 50.1081C16.4671 50.2153 16.5207 50.2689 16.6279 50.3225L16.9494 50.4297H17.003C17.0566 50.4297 17.1102 50.3761 17.1638 50.3225C17.1638 50.2153 17.1102 50.1081 17.003 50.1081Z" fill="white"/>
<path d="M4.51584 45.7136L4.19427 45.6064C4.14068 45.6064 4.08708 45.6064 4.08708 45.6064C4.03348 45.6064 4.03348 45.66 4.03348 45.7136C3.97988 45.8208 4.03348 45.8744 4.14067 45.928L4.46225 46.0352H4.51584C4.56943 46.0352 4.62304 45.9816 4.67663 45.928C4.67663 45.8744 4.67663 45.8208 4.67663 45.8208C4.56944 45.7136 4.51584 45.7136 4.51584 45.7136Z" fill="white"/>
<path d="M6.01644 46.5712L6.33802 46.6784H6.3916C6.4452 46.6784 6.4988 46.6248 6.5524 46.5712C6.5524 46.5176 6.5524 46.464 6.5524 46.464C6.5524 46.4104 6.4988 46.4104 6.4452 46.4104L6.12363 46.3032C6.07003 46.3032 6.01644 46.3032 6.01644 46.3032C5.96285 46.3032 5.96285 46.3568 5.96285 46.4104C5.85566 46.4104 5.90925 46.5176 6.01644 46.5712Z" fill="white"/>
<path d="M9.2856 47.375L8.96404 47.2678C8.85685 47.2143 8.80326 47.2679 8.74966 47.375C8.69607 47.4822 8.74965 47.5358 8.85684 47.5894L9.17841 47.6966H9.23201C9.2856 47.6966 9.33919 47.643 9.39278 47.5894C9.44638 47.4822 9.39279 47.4286 9.2856 47.375Z" fill="white"/>
<path d="M11.2149 48.0716L10.8934 47.9644C10.7862 47.9108 10.7326 47.9644 10.679 48.0716C10.679 48.1252 10.679 48.2323 10.7862 48.2859C10.7326 48.3395 10.679 48.3931 10.679 48.5003C10.679 48.5539 10.7861 48.6075 10.8397 48.6075H10.8934L11.2149 48.5003C11.2685 48.5003 11.3221 48.3931 11.3221 48.3395C11.3757 48.1787 11.3221 48.0716 11.2149 48.0716Z" fill="white"/>
<path d="M16.0384 49.733L15.7168 49.6258C15.6097 49.5722 15.5561 49.6258 15.5025 49.733C15.4489 49.8401 15.5025 49.8937 15.6097 49.9473L15.9312 50.0545H15.9848C16.0384 50.0545 16.092 50.0009 16.1456 49.9473C16.1992 49.8401 16.1456 49.7865 16.0384 49.733Z" fill="white"/>
<path d="M5.48043 46.0352L5.15886 45.928C5.10526 45.928 5.05166 45.928 5.05166 45.928C4.99806 45.928 4.99808 45.9816 4.99808 46.0352C4.94448 46.1423 4.99807 46.196 5.10526 46.2495L5.42683 46.3567H5.48043C5.53402 46.3567 5.58761 46.3031 5.64121 46.2495C5.58761 46.1424 5.53402 46.0352 5.48043 46.0352Z" fill="white"/>
<path d="M9.87503 47.9109L10.1966 48.0181H10.2502C10.3038 48.0181 10.3574 47.9645 10.411 47.9109C10.4646 47.8037 10.411 47.7501 10.3038 47.6965L9.98223 47.5894C9.87504 47.5358 9.82145 47.5894 9.76785 47.6965C9.71426 47.8037 9.76784 47.8573 9.87503 47.9109Z" fill="white"/>
<path d="M18.9324 50.7512L18.6109 50.644C18.5573 50.644 18.5037 50.644 18.5037 50.644C18.4501 50.644 18.4501 50.6976 18.3965 50.7512C18.3429 50.8584 18.3965 50.912 18.5037 50.9656L18.8252 51.0728H18.8788C18.9324 51.0728 18.986 51.0192 19.0396 50.9656C19.0396 50.8584 19.0396 50.8048 18.9324 50.7512Z" fill="white"/>
<path d="M7.40976 46.732L7.08819 46.6248C6.981 46.5712 6.92741 46.6248 6.87381 46.732C6.82022 46.8391 6.8738 46.8927 6.98099 46.9463L7.30256 47.0535H7.35616C7.40976 47.0535 7.46335 46.9999 7.51694 46.9463C7.51694 46.8392 7.46335 46.732 7.40976 46.732Z" fill="white"/>
<path d="M57.3591 29.5289C57.3591 29.4753 57.3055 29.4752 57.2519 29.4752L57.0911 29.4217C56.9839 29.3681 56.9303 29.4217 56.8767 29.5289C56.8231 29.636 56.8767 29.6896 56.9839 29.7432L57.1447 29.7968H57.1983C57.2519 29.7968 57.3055 29.7432 57.3591 29.6896C57.4127 29.636 57.4127 29.5824 57.3591 29.5289Z" fill="white"/>
<path d="M52.6428 27.9212L52.3212 27.814C52.2676 27.814 52.214 27.814 52.214 27.814C52.1604 27.814 52.1604 27.8676 52.1604 27.9212C52.1068 28.0283 52.1604 28.0819 52.2676 28.1355L52.5892 28.2427H52.6428C52.6963 28.2427 52.75 28.1891 52.8036 28.1355C52.75 28.0283 52.6963 27.9212 52.6428 27.9212Z" fill="white"/>
<path d="M54.5721 28.5642L54.2505 28.457C54.1969 28.457 54.1433 28.457 54.1433 28.457C54.0897 28.457 54.0897 28.5106 54.0897 28.5642C54.0897 28.6178 54.0897 28.6714 54.0897 28.6714C54.0897 28.725 54.1433 28.725 54.1969 28.725L54.5185 28.8322H54.5721C54.6257 28.8322 54.6793 28.7786 54.7329 28.725C54.6793 28.6714 54.6257 28.5642 54.5721 28.5642Z" fill="white"/>
<path d="M53.6075 28.2427L53.2859 28.1355C53.1787 28.1355 53.1252 28.1355 53.0716 28.2427C53.018 28.3499 53.0715 28.4035 53.1787 28.4571L53.5003 28.5642H53.5539C53.6075 28.5642 53.6611 28.5106 53.7147 28.4571C53.7147 28.3499 53.6611 28.2427 53.6075 28.2427Z" fill="white"/>
<path d="M55.5369 28.8858L55.2154 28.7786C55.1082 28.7786 55.0546 28.7786 55.001 28.8858C54.9474 28.9929 55.001 29.0466 55.1082 29.1001L55.4297 29.2073H55.4834C55.537 29.2073 55.5905 29.1537 55.6441 29.1001C55.6441 28.993 55.5905 28.8858 55.5369 28.8858Z" fill="white"/>
<path d="M56.5015 29.2075L56.18 29.1003C56.0728 29.1003 56.0192 29.1003 55.9656 29.2075C55.912 29.3147 55.9656 29.3683 56.0728 29.4219L56.3943 29.5291H56.448C56.5016 29.5291 56.5551 29.4755 56.6087 29.4219C56.6087 29.3147 56.5551 29.2075 56.5015 29.2075Z" fill="white"/>
<path d="M4.62299 15.0056L2.74721 14.3626V12.4869C2.74721 12.3261 2.58643 12.1653 2.42565 12.1653C2.26487 12.1653 2.10408 12.3261 2.10408 12.4869V14.1482L0.442699 13.6123C0.281919 13.5587 0.067535 13.6659 0.0139415 13.8266C-0.039652 13.9874 0.0675317 14.2018 0.228312 14.2554L2.10408 14.8985V16.7742C2.10408 16.9886 2.26487 17.0957 2.42565 17.0957C2.58643 17.0957 2.74721 16.935 2.74721 16.7742V15.1128L4.40861 15.6487C4.56939 15.7023 4.78376 15.5952 4.83736 15.4344C4.89095 15.2736 4.78377 15.0592 4.62299 15.0056Z" fill="white"/>
<path d="M41.1738 2.84039L39.298 2.19728V0.32157C39.298 0.107203 39.1372 0 38.9764 0C38.8157 0 38.6549 0.160795 38.6549 0.32157V1.9829L36.9935 1.44698C36.8327 1.39339 36.6183 1.50059 36.5647 1.66136C36.5111 1.82214 36.6183 2.0365 36.7791 2.09009L38.6549 2.7332V4.60891C38.6549 4.82327 38.8157 4.93044 38.9764 4.93044C39.1372 4.93044 39.298 4.76968 39.298 4.60891V2.89397L40.9594 3.42988C41.1202 3.48348 41.3346 3.37628 41.3882 3.2155C41.4418 3.05473 41.3346 2.89398 41.1738 2.84039Z" fill="white"/>
<path d="M4.62299 66.8286L2.74721 66.1855V64.3098C2.74721 64.0955 2.58643 63.9883 2.42565 63.9883C2.26487 63.9883 2.10408 64.149 2.10408 64.3098V65.9712L0.442699 65.4353C0.281919 65.3817 0.067535 65.4888 0.0139415 65.6496C-0.039652 65.8104 0.0675317 66.0248 0.228312 66.0784L2.10408 66.7214V68.5971C2.10408 68.7579 2.26487 68.9187 2.42565 68.9187C2.58643 68.9187 2.74721 68.7579 2.74721 68.5971V66.9358L4.40861 67.4717C4.56939 67.5253 4.78376 67.4181 4.83736 67.2573C4.89095 67.0966 4.78377 66.8822 4.62299 66.8286Z" fill="white"/>
<path d="M4.62299 45.4993L2.74721 44.8562V42.9805C2.74721 42.8197 2.58643 42.6589 2.42565 42.6589C2.26487 42.6589 2.10408 42.8197 2.10408 42.9805V44.6418L0.442699 44.1059C0.281919 44.0523 0.067535 44.1595 0.0139415 44.3203C-0.039652 44.481 0.0675317 44.6954 0.228312 44.749L2.10408 45.3921V47.2678C2.10408 47.4822 2.26487 47.5894 2.42565 47.5894C2.58643 47.5894 2.74721 47.4286 2.74721 47.2678V45.6065L4.40861 46.1424C4.56939 46.196 4.78376 46.0888 4.83736 45.928C4.89095 45.7672 4.78377 45.5529 4.62299 45.4993Z" fill="white"/>
<path d="M4.62299 51.6087L2.74721 50.9656V49.0899C2.74721 48.9291 2.58643 48.7683 2.42565 48.7683C2.26487 48.7683 2.10408 48.9291 2.10408 49.0899V50.7512L0.442699 50.2153C0.281919 50.1617 0.067535 50.2689 0.0139415 50.4297C-0.039652 50.5904 0.0675317 50.8048 0.228312 50.8584L2.10408 51.5015V53.3772C2.10408 53.5916 2.26487 53.6987 2.42565 53.6987C2.58643 53.6987 2.74721 53.538 2.74721 53.3772V51.6623L4.40861 52.1982C4.56939 52.2518 4.78376 52.1446 4.83736 51.9838C4.89095 51.823 4.78377 51.6623 4.62299 51.6087Z" fill="white"/>
<path d="M20.6475 72.8844C20.5939 72.8844 20.4867 72.8844 20.4331 72.8308C20.326 72.7772 20.2724 72.6701 20.2724 72.5629V57.3428C20.2724 57.1821 20.3795 57.0749 20.4867 57.0213L41.6026 50.0008V44.6416L20.7011 51.6086C20.5939 51.6621 20.4867 51.6085 20.3796 51.5549C20.2724 51.5014 20.2188 51.3942 20.2188 51.287V20.7934C20.2188 20.6326 20.326 20.5254 20.4331 20.4718L57.0376 8.25291C57.1447 8.19932 57.2519 8.2529 57.3591 8.30649C57.4663 8.36008 57.5199 8.46727 57.5199 8.57445V23.7945C57.5199 23.9553 57.4127 24.0624 57.3055 24.116L36.2432 31.1365V36.4957L57.1447 29.5288C57.2519 29.4752 57.3591 29.5288 57.4663 29.5824C57.5735 29.636 57.6271 29.7432 57.6271 29.8503V60.344C57.6271 60.5048 57.5199 60.6119 57.4127 60.6655L20.8083 72.8844C20.7011 72.8844 20.7011 72.8844 20.6475 72.8844ZM20.9691 57.5572V72.0805L56.8768 60.1296V30.3862L35.9753 37.3532C35.8681 37.4068 35.7609 37.3532 35.6537 37.2996C35.5465 37.246 35.4929 37.1388 35.4929 37.0316V30.9222C35.4929 30.7614 35.6001 30.6542 35.7073 30.6006L56.8232 23.5801V9.05679L20.9155 21.0077V50.7511L41.817 43.7842C41.9242 43.7306 42.0314 43.7842 42.1385 43.8378C42.2457 43.8914 42.2993 43.9985 42.2993 44.1057V50.2152C42.2993 50.3759 42.1921 50.4831 42.085 50.5367L20.9691 57.5572Z" fill="black"/>
<path d="M35.7608 30.5472L56.8767 23.5267V9.00342L20.969 20.9544V50.6977L41.8705 43.7308C41.9777 43.6772 42.2992 43.9452 42.2992 44.0523V50.1618C42.2992 50.3226 42.1921 50.4297 42.0849 50.4833L20.969 57.5574V72.0808L56.8767 60.1298V30.3865L35.9752 37.3534C35.868 37.407 35.7608 37.3534 35.6536 37.2998C35.5465 37.2462 35.4928 37.139 35.4928 37.0318V30.9224C35.5464 30.7616 35.6536 30.6008 35.7608 30.5472Z" fill="#E62F87"/>
<path d="M59.2347 19.1859C59.1275 19.1323 59.0203 19.0787 58.9132 19.1323L38.8156 25.8313C38.6548 25.8848 38.6013 25.9921 38.6013 26.1528V32.6374L35.9216 36.4424C35.8144 36.6032 35.868 36.8175 35.9752 36.9247C36.0288 36.9783 36.0824 36.9783 36.1896 36.9783C36.2967 36.9783 36.4039 36.9247 36.4575 36.8175L39.1372 33.0125L59.1275 26.3672C59.2883 26.3136 59.3419 26.2064 59.3419 26.0456V19.4539C59.3955 19.3467 59.3419 19.2395 59.2347 19.1859Z" fill="black"/>
<path d="M58.6988 19.9363L39.298 26.4209V32.2624L58.6988 25.7778V19.9363Z" fill="white"/>
<path d="M60.6819 20.8472C60.5747 20.74 60.4675 20.6864 60.3603 20.6328L60.6283 20.5256C60.7891 20.472 60.9498 20.3112 60.9498 20.0969C60.9498 19.293 60.6283 18.9179 60.3603 18.7035C60.2531 18.6499 60.0923 18.5427 59.9316 18.4891H59.878H59.8244H59.7708H59.7172H59.6636H59.61H59.5564H59.5028H59.4492H59.3956H59.342H59.2884H59.2349H59.1812H59.1277H59.0741H59.0205H58.9669H58.9133H58.8597H58.8061H58.7525H58.6989H58.6453C58.3237 18.3819 57.9486 18.3819 57.3591 18.5963C56.5552 18.8643 55.9656 19.4002 55.6441 20.0433C55.6441 20.0433 55.6441 20.0433 55.5905 20.0433H55.5369H55.4833H55.4297H55.3761H55.3225H55.2689H55.2153H55.1617C54.7866 19.9361 54.3578 19.9361 53.9291 20.0969L52.0533 20.74C51.8925 20.7936 51.7318 20.9543 51.7318 21.1687V21.7582H51.6782H51.6246H51.571H51.5174H51.4638H51.4102H51.3566H51.303H51.2494H51.1958H51.1422H51.0886H51.035H50.9814H50.9279H50.8742H50.8207H50.7671H50.7135H50.6599C50.5527 21.7046 50.4455 21.7046 50.3383 21.7582L49.1593 22.1334C48.9985 22.187 48.8913 22.2941 48.8913 22.4549L48.7305 23.0444H48.6769H48.6233H48.5697H48.5162H48.4625H48.409H48.3553H48.3018H48.2482H48.1946H48.141H48.0874H48.0338H47.9802H47.9266C47.8194 22.9908 47.7122 22.9908 47.6051 23.0444L44.8182 24.0091C44.8182 24.0091 44.7646 24.0091 44.7646 24.0627C44.711 24.0627 44.711 24.0627 44.6574 24.0627L43.3176 24.4914C43.2104 24.545 43.1032 24.6522 43.0496 24.7593L42.8352 25.2953H42.7816H42.728H42.6744H42.6209H42.5673H42.5137H42.4601H42.4065H42.3529H42.2993H42.2457H42.1921H42.1385C42.0313 25.2417 41.9242 25.2417 41.817 25.2953L40.4771 25.724C40.3699 25.7776 40.2628 25.8848 40.2092 25.992C40.1556 26.0991 40.1556 26.2599 40.2627 26.3671L41.7634 28.7252L41.817 30.5473C41.817 30.708 41.8705 30.8152 42.0313 30.9224C42.0849 30.976 42.1385 30.976 42.1921 30.976H42.2457H42.2993H42.3529H42.4065H42.4601H42.5137H42.5673H42.6209H42.6744H42.728H42.7816H42.8352H42.8888H42.9424H42.996H43.0496H43.1032H43.1568H43.2104H43.264H43.3176H43.3712H43.4248H43.4783C43.5319 30.976 43.5855 31.0296 43.6391 31.0296C43.6927 31.0296 43.7463 31.0296 43.7999 31.0296L45.0326 30.6009C45.1934 30.5473 45.3541 30.3865 45.3541 30.1721V29.6898H45.4077H45.4613H45.5149H45.5685H45.6221H45.6757H45.7293H45.7829H45.8365H45.8901H45.9436H45.9973H46.0508H46.1044H46.158H46.2116H46.2652C46.3188 29.6898 46.3724 29.7434 46.426 29.7434C46.4796 29.7434 46.5332 29.7434 46.5868 29.7434L49.3736 28.7787L50.6599 28.35C50.8207 28.2964 50.9279 28.1892 50.9279 28.0285L51.0886 27.3854L51.303 27.3317H51.3566H51.4102H51.4638H51.5174H51.571H51.6246H51.6782H51.7318H51.7853H51.8389H51.8925H51.9461H51.9997H52.0533H52.1069H52.1605H52.2141C52.3213 27.3853 52.4285 27.3853 52.5357 27.3317L53.8755 26.903C53.8755 26.903 53.9291 26.903 53.9291 26.8494H53.9827L55.1617 26.4207C55.3225 26.3671 55.4833 26.2063 55.4833 25.992V25.8848H55.5369H55.5905H55.6441H55.6977H55.7513H55.8049H55.8584H55.9121C56.0192 25.9384 56.1264 25.9384 56.2336 25.8848L57.5734 25.4025C57.6806 25.3489 57.7878 25.2417 57.8414 25.1345C57.8414 25.0809 57.8414 25.0273 57.8414 24.9737H57.895C58.0558 25.0273 58.2166 25.0809 58.431 25.0809C58.6989 25.0809 58.9669 25.0273 59.2884 24.9201C60.5747 24.4914 61.325 23.4731 61.325 22.2405C61.1106 21.4902 61.0034 21.1151 60.6819 20.8472Z" fill="black"/>
<path d="M44.2286 27.1708L44.2822 29.1001L43.0496 29.5288L42.996 27.5995L41.4418 25.1343L42.7816 24.7056L43.6391 26.2062L44.3894 24.1697L45.7293 23.741L44.2286 27.1708Z" fill="#FFF100"/>
<path d="M48.7842 26.3669V27.5459L45.9437 28.5105L45.8365 23.5801L48.6234 22.6155V23.7945L47.0156 24.3304V25.0271L48.4626 24.5448V25.6702L47.0156 26.1525V26.9028L48.7842 26.3669Z" fill="#FFF100"/>
<path d="M51.839 25.7238L50.2848 26.2598L50.0704 27.1172L48.7842 27.546L50.392 22.026L51.571 21.6509L53.4468 25.9918L52.107 26.4206L51.839 25.7238ZM50.9815 23.4194L50.5528 25.0808L51.5175 24.7592L50.9815 23.4194Z" fill="#FFF100"/>
<path d="M55.1081 23.9018L54.6793 24.0625L54.7329 25.5631L53.5538 25.9918L53.4467 21.0614L55.3224 20.4183C56.2871 20.0968 56.9839 20.5791 56.9839 21.5973C56.9839 22.1868 56.7695 22.7764 56.3407 23.2051L57.2518 24.7057L55.912 25.188L55.1081 23.9018ZM54.6793 22.8835L55.2153 22.7228C55.5368 22.6156 55.7512 22.294 55.7512 22.0261C55.7512 21.7045 55.5368 21.5437 55.2153 21.6509L54.6793 21.8117V22.8835Z" fill="#FFF100"/>
<path d="M57.1447 23.0978L58.3773 22.6691C58.3773 23.0442 58.6453 23.0978 58.9132 22.9906C59.1812 22.8834 59.3956 22.6691 59.3956 22.4011C59.3956 22.0796 59.074 22.1331 58.6453 22.1331C58.0021 22.1867 57.1982 22.2403 57.1982 21.1149C57.1982 20.1502 57.7878 19.4 58.806 19.0248C59.8779 18.6497 60.4675 19.0784 60.4675 20.0431L59.2348 20.4718C59.2348 20.1502 59.0204 20.0967 58.7525 20.1503C58.5381 20.2038 58.3237 20.4182 58.3237 20.6326C58.3237 20.9005 58.6453 20.9005 59.074 20.8469C59.7171 20.7933 60.5747 20.7934 60.5747 21.8652C60.5747 22.937 59.8779 23.7409 58.8597 24.116C57.895 24.5983 57.1982 24.1696 57.1447 23.0978Z" fill="#FFF100"/>
</svg>
