<svg width="20" height="21" viewBox="0 0 20 21" fill="none" xmlns="http://www.w3.org/2000/svg">
<path d="M16.7467 9.49367H15.4416L16.7119 5.51375C16.7379 5.44005 16.752 5.36042 16.7533 5.27963C16.7546 5.19884 16.7431 5.11855 16.7194 5.04356C16.6957 4.96857 16.6604 4.90042 16.6156 4.8432C16.5707 4.78598 16.5173 4.74086 16.4584 4.71053C16.3995 4.68021 16.3364 4.6653 16.2729 4.66672C16.2094 4.66813 16.1468 4.68583 16.0888 4.71875C16.0308 4.75168 15.9786 4.79915 15.9353 4.85834C15.8921 4.91752 15.8587 4.98719 15.8371 5.06319L14.4204 9.49367H11.9879L10.5712 5.06319C10.5358 4.95255 10.4753 4.85784 10.3974 4.79116C10.3195 4.72449 10.2277 4.68887 10.1338 4.68887C10.0399 4.68887 9.94814 4.72449 9.87023 4.79116C9.79232 4.85784 9.7318 4.95255 9.69641 5.06319L8.27975 9.49367H5.84898L4.43232 5.06319C4.38222 4.92147 4.29091 4.80996 4.17756 4.75207C4.06421 4.69419 3.93764 4.69442 3.82442 4.75273C3.71121 4.81104 3.62016 4.92289 3.57039 5.0648C3.52062 5.2067 3.51601 5.36761 3.55752 5.51375L4.8278 9.49367H3.52447C3.39923 9.49367 3.27912 9.55696 3.19056 9.66963C3.102 9.78229 3.05225 9.93509 3.05225 10.0944C3.05225 10.2537 3.102 10.4065 3.19056 10.5192C3.27912 10.6319 3.39923 10.6952 3.52447 10.6952H5.21325L6.62992 15.1256C6.66531 15.2363 6.72583 15.331 6.80374 15.3977C6.88165 15.4643 6.97342 15.5 7.06732 15.5C7.16121 15.5 7.25298 15.4643 7.33089 15.3977C7.4088 15.331 7.46932 15.2363 7.50471 15.1256L8.92138 10.6952H11.3557L12.7724 15.1256C12.8077 15.2363 12.8683 15.331 12.9462 15.3977C13.0241 15.4643 13.1158 15.5 13.2097 15.5C13.3036 15.5 13.3954 15.4643 13.4733 15.3977C13.5512 15.331 13.6118 15.2363 13.6471 15.1256L15.0638 10.6952H16.7467C16.8719 10.6952 16.992 10.6319 17.0806 10.5192C17.1692 10.4065 17.2189 10.2537 17.2189 10.0944C17.2189 9.93509 17.1692 9.78229 17.0806 9.66963C16.992 9.55696 16.8719 9.49367 16.7467 9.49367ZM7.06613 13.3046L6.23266 10.6952H7.89961L7.06613 13.3046ZM9.30211 9.49367L10.1356 6.88495L10.9691 9.49367H9.30211ZM13.205 13.3046L12.3716 10.6952H14.0385L13.205 13.3046Z" fill="#6C6C70"/>
</svg>
