<svg width="24" height="25" viewBox="0 0 24 25" fill="none" xmlns="http://www.w3.org/2000/svg">
<path d="M14.4067 13.8053C11.7665 13.7397 11.0568 12.227 11.2171 9.91719C11.394 7.3841 9.48307 5.18756 6.95013 5.01121C6.65989 4.99121 6.37375 4.99813 6.09505 5.03069C3.9408 5.28087 2.1991 7.03369 2.04296 9.2779C1.67323 14.5799 3.68646 19.0765 8.22801 21.4551C10.9648 22.8888 13.6354 23 14.3887 23C15.7025 23 16.8747 22.4604 17.707 21.5981C18.5108 20.7668 19 19.6371 19 18.4024C19 15.8657 16.944 13.8081 14.4067 13.8053Z" fill="#F4553F"/>
<path d="M15.4318 7.89182C16.8295 7.85536 17.2052 7.01501 17.1204 5.73177C17.0267 4.3245 18.0384 3.1042 19.3793 3.00623C19.533 2.99512 19.6845 2.99896 19.832 3.01705C20.9725 3.15604 21.8946 4.12983 21.9773 5.37661C22.173 8.32218 21.1072 10.8203 18.7028 12.1417C17.2539 12.9382 15.8401 13 15.4413 13C14.7457 13 14.1251 12.7002 13.6845 12.2212C13.259 11.7593 13 11.1317 13 10.4458C13 9.0365 14.0885 7.89339 15.4318 7.89182Z" fill="#FF477E"/>
</svg>
