<svg width="24" height="25" viewBox="0 0 24 25" fill="none" xmlns="http://www.w3.org/2000/svg">
<path d="M16.4037 12.8053C13.7642 12.7397 13.0546 11.227 13.2149 8.91719C13.3917 6.3841 11.4813 4.18756 8.94893 4.01121C8.65876 3.99121 8.37269 3.99813 8.09406 4.03069C5.94033 4.28087 4.19905 6.03369 4.04295 8.2779C3.67331 13.5799 5.68605 18.0765 10.2265 20.4551C12.9626 21.8888 15.6326 22 16.3857 22C17.6992 22 18.8711 21.4604 19.7032 20.5981C20.5068 19.7668 20.9959 18.6371 20.9959 17.4024C20.9959 14.8657 18.9403 12.8081 16.4037 12.8053Z" fill="#FF477E"/>
<path d="M11.6091 6.76156C12.1016 7.61466 12.4657 8.28954 11.7483 8.70375C11.0309 9.11797 10.5487 8.28913 10.0561 7.43603C9.56358 6.58293 8.69229 6.0966 9.40973 5.68239C10.1272 5.26817 11.1165 5.90846 11.6091 6.76156Z" fill="#FEC7D7"/>
</svg>
