<svg width="24" height="25" viewBox="0 0 24 25" fill="none" xmlns="http://www.w3.org/2000/svg">
<g clip-path="url(#clip0_2608_437)">
<path d="M17.0382 12.2404C13.5189 12.1529 12.5729 10.136 12.7865 7.05626C13.0223 3.67879 10.475 0.750086 7.09858 0.514942C6.71168 0.488283 6.33026 0.497511 5.95874 0.540917C3.08711 0.874494 0.765404 3.21158 0.55726 6.20386C0.0644141 13.2732 2.74807 19.2687 8.80201 22.4401C12.4502 24.3517 16.0101 24.5 17.0143 24.5C18.7656 24.5 20.3282 23.7806 21.4376 22.6308C22.5091 21.5224 23.1612 20.0162 23.1612 18.3698C23.1612 14.9876 20.4205 12.2441 17.0382 12.2404Z" fill="#FF477E"/>
</g>
<defs>
<clipPath id="clip0_2608_437">
<rect width="24" height="24" fill="white" transform="translate(0 0.5)"/>
</clipPath>
</defs>
</svg>
