<svg width="24" height="25" viewBox="0 0 24 25" fill="none" xmlns="http://www.w3.org/2000/svg">
<g clip-path="url(#clip0_2621_3731)">
<path d="M8.9425 12.6778C8.96849 11.6444 9.56758 11.3666 10.4824 11.4294C11.4857 11.4986 12.3556 10.7507 12.4255 9.75927C12.4334 9.64567 12.4307 9.53367 12.4178 9.42459C12.3187 8.58141 11.6245 7.89971 10.7356 7.83859C8.63569 7.69388 6.85475 8.48186 5.91271 10.2594C5.34488 11.3306 5.30082 12.3759 5.30082 12.6707C5.30082 13.185 5.51453 13.6438 5.85606 13.9695C6.1853 14.2841 6.63272 14.4756 7.12176 14.4756C8.12645 14.4756 8.94138 13.6709 8.9425 12.6778Z" fill="#FF477E"/>
<path d="M17.1887 16.7307C17.7988 16.5834 18.0547 16.8869 18.16 17.427C18.2752 18.0193 18.8489 18.406 19.4412 18.2907C19.509 18.2774 19.5743 18.2582 19.6363 18.2336C20.1154 18.0437 20.4073 17.5342 20.3052 17.0095C20.0639 15.7697 19.3252 14.8614 18.1365 14.5947C17.4201 14.434 16.8002 14.5727 16.6273 14.619C16.3258 14.6998 16.0899 14.8958 15.9519 15.1449C15.8185 15.3852 15.7757 15.6745 15.8516 15.958C16.0077 16.5402 16.6062 16.8861 17.1887 16.7307Z" fill="#0094FF"/>
<path d="M14.4291 18.8049C14.0457 19.4325 13.582 19.393 13.0472 19.0326C12.4608 18.6372 11.665 18.7921 11.2698 19.3784C11.2245 19.4456 11.1864 19.5156 11.1554 19.5873C10.9158 20.1417 11.0961 20.8058 11.6157 21.1559C12.8431 21.9835 14.208 22.1242 15.4141 21.3602C16.1409 20.8999 16.5396 20.2714 16.6444 20.0897C16.8273 19.7729 16.8604 19.4151 16.7683 19.0943C16.6797 18.7847 16.4753 18.5094 16.1775 18.3375C15.5656 17.9842 14.783 18.1935 14.4291 18.8049Z" fill="#FF8947"/>
<path d="M15.1257 6.64272C14.9786 7.1382 14.634 7.18966 14.1708 7.03309C13.6629 6.86116 13.118 7.1023 12.9537 7.57147C12.9349 7.62524 12.9218 7.67971 12.9144 7.73417C12.8563 8.15507 13.1257 8.58014 13.5757 8.73235C14.6388 9.09211 15.6582 8.95738 16.3736 8.22891C16.8047 7.78995 16.9627 7.2912 17.0008 7.1488C17.0674 6.90045 17.0166 6.64936 16.8829 6.44489C16.754 6.2475 16.5482 6.09326 16.2963 6.02576C15.7787 5.88707 15.2548 6.16324 15.1257 6.64272Z" fill="#0094FF"/>
<path d="M18.9399 10.9489C18.6936 10.4946 18.9008 10.2145 19.339 9.99773C19.8197 9.76017 20.0346 9.20432 19.819 8.7564C19.7943 8.7051 19.765 8.65734 19.7318 8.61354C19.4752 8.27486 18.9841 8.16479 18.5583 8.37536C17.5522 8.87268 16.9266 9.6888 16.9359 10.7097C16.9414 11.325 17.1824 11.7894 17.2561 11.917C17.3847 12.1397 17.5981 12.2814 17.8373 12.3313C18.068 12.3798 18.3225 12.3434 18.5484 12.213C19.0124 11.9451 19.1877 11.3793 18.9399 10.9489Z" fill="#FF477E"/>
<path d="M14.7703 3.95049C14.2406 3.79434 14.1791 3.45032 14.3365 2.99232C14.5094 2.49011 14.2423 1.9429 13.7402 1.77018C13.6827 1.75043 13.6245 1.73634 13.5665 1.72784C13.1178 1.66179 12.6711 1.92166 12.5181 2.36662C12.1563 3.41783 12.3196 4.43528 13.1081 5.16163C13.5833 5.59941 14.1167 5.76643 14.2689 5.8072C14.5343 5.87831 14.8003 5.83274 15.0151 5.70356C15.2224 5.57911 15.3824 5.37735 15.4492 5.12788C15.5866 4.61538 15.2827 4.08838 14.7703 3.95049Z" fill="#FF8947"/>
<path d="M7.73822 3.77023C8.07381 4.38615 7.82217 4.74909 7.27271 5.01717C6.66998 5.3109 6.42147 6.04042 6.71751 6.64631C6.75148 6.71571 6.79107 6.78061 6.83552 6.84042C7.17881 7.30289 7.81091 7.47209 8.34482 7.21173C9.60631 6.59679 10.3672 5.54008 10.308 4.18146C10.2724 3.36269 9.94316 2.73373 9.84312 2.56046C9.66866 2.25828 9.3896 2.05988 9.0819 1.9823C8.78507 1.90716 8.46179 1.94378 8.17944 2.10679C7.59938 2.44169 7.40191 3.18625 7.73822 3.77023Z" fill="#79DC50"/>
<path d="M12.656 12.6754C13.3572 12.6581 13.5457 12.2587 13.5032 11.6488C13.4562 10.98 13.9637 10.4 14.6364 10.3534C14.7135 10.3481 14.7895 10.35 14.8636 10.3586C15.4357 10.4246 15.8983 10.8874 15.9398 11.48C16.038 12.88 15.5033 14.0673 14.297 14.6953C13.5702 15.0738 12.8609 15.1032 12.6608 15.1032C12.3119 15.1032 12.0005 14.9607 11.7795 14.733C11.566 14.5136 11.4361 14.2153 11.4361 13.8892C11.4361 13.2195 11.9821 12.6762 12.656 12.6754Z" fill="#79DC50"/>
<path d="M17.889 23.3552L15.1003 25.3003L0.482178 10.6824L2.42721 7.89341C2.58022 7.7404 2.84212 7.84872 2.84212 8.06537V8.83552C2.84212 8.96986 2.95073 9.07847 3.08508 9.07847H4.39996C4.57588 9.07847 4.74445 9.14833 4.86861 9.27249L4.96449 9.36837C5.08865 9.49254 5.15851 9.6611 5.15851 9.83674V11.1519C5.15851 11.2863 5.26712 11.3949 5.40147 11.3949H6.71663C6.89227 11.3949 7.06084 11.4647 7.185 11.5889L7.28088 11.6848C7.40504 11.8092 7.4749 11.9775 7.4749 12.1534V13.4686C7.4749 13.6026 7.58379 13.7115 7.71786 13.7115H9.03302C9.20866 13.7115 9.37723 13.7811 9.50167 13.9056L9.59755 14.0014C9.72172 14.1256 9.79158 14.2942 9.79158 14.4698V15.785C9.79158 15.8427 9.81251 15.895 9.84588 15.9366C9.88746 15.9699 9.93978 15.9909 9.99748 15.9909H11.3126C11.4883 15.9909 11.6568 16.0607 11.7813 16.1852L11.8769 16.2811C12.0013 16.4052 12.0712 16.5738 12.0712 16.7494V18.0646C12.0712 18.1989 12.1798 18.3075 12.3141 18.3075H13.6293C13.805 18.3075 13.9735 18.3774 14.0977 18.5016L14.1936 18.5974C14.3177 18.7219 14.3876 18.8905 14.3876 19.0661V20.3813C14.3876 20.5153 14.4965 20.6242 14.6305 20.6242H15.9457C16.1213 20.6242 16.2899 20.6938 16.4141 20.8182L16.51 20.9141C16.6344 21.0383 16.7043 21.2069 16.7043 21.3825V22.6977C16.7043 22.8317 16.8129 22.9406 16.9472 22.9406H17.7174C17.9337 22.9406 18.0421 23.2022 17.889 23.3552Z" fill="#EBAE56"/>
<path d="M16.4101 24.3905L14.2074 25.9272C13.7987 26.6453 10.448 30.1674 9.84526 30.7825C6.28215 30.125 2.87431 28.4198 0.118686 25.6638C-2.63694 22.9082 -4.34242 19.5007 -5 15.9376C-4.38484 15.3348 -0.86274 11.9839 -0.144348 11.5754L1.39199 9.37247C1.54076 9.22398 1.79503 9.3292 1.79503 9.53934V10.2874C1.79503 10.4178 1.90052 10.5236 2.03091 10.5236H3.30818C3.47901 10.5236 3.64248 10.5912 3.76325 10.712L3.85631 10.805C3.97707 10.9258 4.04495 11.0895 4.04495 11.2601V12.5376C4.04495 12.668 4.15045 12.7735 4.28084 12.7735H5.5581C5.72893 12.7735 5.89269 12.8414 6.01318 12.9619L6.10651 13.0552C6.227 13.1757 6.29488 13.3395 6.29488 13.5103V14.7876C6.29488 14.9179 6.40066 15.0234 6.53076 15.0234H7.80831C7.97886 15.0234 8.14262 15.0913 8.26339 15.2121L8.35644 15.3051C8.47721 15.4259 8.5448 15.5894 8.5448 15.7602V17.0375C8.5448 17.0935 8.56517 17.1441 8.59769 17.1848C8.63842 17.2174 8.68905 17.2377 8.74505 17.2377H10.0223C10.1931 17.2377 10.3569 17.3053 10.4774 17.4261L10.5704 17.5191C10.6912 17.6399 10.7591 17.8037 10.7591 17.9742V19.2518C10.7591 19.3819 10.8646 19.4877 10.995 19.4877H12.2722C12.4431 19.4877 12.6068 19.5555 12.7273 19.6763L12.8207 19.7694C12.9411 19.8901 13.009 20.0536 13.009 20.2244V21.5017C13.009 21.6321 13.1148 21.7376 13.2449 21.7376H14.5224C14.693 21.7376 14.8568 21.8055 14.9775 21.9262L15.0706 22.0193C15.1913 22.1401 15.2589 22.3038 15.2589 22.4744V23.7516C15.2589 23.882 15.3647 23.9878 15.4951 23.9878H16.2432C16.4536 23.9878 16.5588 24.2421 16.4101 24.3905Z" fill="#0573CD"/>
<path d="M13.455 23.9983C13.3094 24.1187 13.0922 24.0972 12.9584 23.9635L1.93107 12.9361C1.80097 12.8058 1.59309 12.795 1.45082 12.9115C1.44856 12.9135 1.4463 12.9155 1.44375 12.9172C1.28027 13.0515 1.26896 13.2979 1.41858 13.4475L12.4465 24.4754C12.5802 24.6092 12.6017 24.8264 12.4815 24.972C12.3432 25.1395 12.0952 25.148 11.9456 24.9983L0.8334 13.8862C0.698772 13.7518 0.482972 13.7453 0.340991 13.872C0.0191283 14.16 -0.321684 14.4702 -0.661082 14.783C-2.43246 16.4141 -3.01622 18.9746 -2.10748 21.2044C-1.31018 23.1616 -0.193844 25.0196 1.24124 26.6982C0.856592 26.3715 0.481841 26.027 0.118685 25.6638C-2.63694 22.9082 -4.34242 19.5007 -5 15.9376C-4.38484 15.3348 -0.862741 11.9841 -0.144349 11.5754L1.39199 9.37247C1.54048 9.22398 1.79474 9.3292 1.79474 9.53934V10.2874C1.79474 10.4178 1.90052 10.5236 2.03091 10.5236H3.30818C3.33759 10.5236 3.367 10.5264 3.39585 10.5304L2.39802 11.9609C2.29875 12.1035 2.31572 12.2969 2.43875 12.4197L13.4813 23.4626C13.6312 23.6122 13.6222 23.8602 13.455 23.9983Z" fill="#015AAD"/>
</g>
<defs>
<clipPath id="clip0_2621_3731">
<rect width="24" height="24" fill="white" transform="translate(0 0.5)"/>
</clipPath>
</defs>
</svg>
