<svg width="20" height="20" viewBox="0 0 20 20" fill="none" xmlns="http://www.w3.org/2000/svg">
<path d="M12.4067 10.8053C9.76654 10.7397 9.05683 9.22703 9.21708 6.91719C9.394 4.3841 7.48307 2.18756 4.95013 2.01121C4.65989 1.99121 4.37375 1.99813 4.09505 2.03069C1.9408 2.28087 0.199101 4.03369 0.0429554 6.2779C-0.326768 11.5799 1.68646 16.0765 6.22801 18.4551C8.96479 19.8888 11.6354 20 12.3887 20C13.7025 20 14.8747 19.4604 15.707 18.5981C16.5108 17.7668 17 16.6371 17 15.4024C17 12.8657 14.944 10.8081 12.4067 10.8053Z" fill="#F4553F"/>
<path d="M7.60908 4.76156C8.10161 5.61466 8.46575 6.28954 7.74831 6.70375C7.03087 7.11797 6.54865 6.28913 6.05612 5.43603C5.56358 4.58293 4.69229 4.0966 5.40973 3.68239C6.12717 3.26817 7.11654 3.90846 7.60908 4.76156Z" fill="#FFCDBE"/>
<path d="M13.4318 4.89182C14.8295 4.85536 15.2052 4.01501 15.1204 2.73177C15.0267 1.3245 16.0384 0.104202 17.3793 0.00622564C17.533 -0.00488221 17.6845 -0.00103718 17.832 0.0170487C18.9725 0.156039 19.8946 1.12983 19.9773 2.37661C20.173 5.32218 19.1072 7.8203 16.7028 9.14171C15.2539 9.9382 13.8401 10 13.4413 10C12.7457 10 12.1251 9.70023 11.6845 9.22117C11.259 8.75934 11 8.13175 11 7.44577C11 6.0365 12.0885 4.89339 13.4318 4.89182Z" fill="#FF477E"/>
</svg>
