<svg width="24" height="25" viewBox="0 0 24 25" fill="none" xmlns="http://www.w3.org/2000/svg">
<g clip-path="url(#clip0_2621_4764)">
<path d="M13.3608 17.9241C15.105 17.8807 15.5738 16.8812 15.468 15.3549C15.3511 13.681 16.6135 12.2295 18.2869 12.113C18.4786 12.0998 18.6677 12.1044 18.8518 12.1259C20.275 12.2912 21.4256 13.4494 21.5288 14.9324C21.773 18.436 20.443 21.4073 17.4427 22.9791C15.6347 23.9264 13.8703 23.9999 13.3727 23.9999C12.5048 23.9999 11.7303 23.6434 11.1805 23.0736C10.6495 22.5243 10.3263 21.7778 10.3263 20.9618C10.3263 19.2856 11.6846 17.926 13.3608 17.9241Z" fill="#79DC50"/>
<path d="M7.64947 6.65415C9.32298 7.14746 9.51716 8.23429 9.01986 9.68121C8.47373 11.2678 9.31748 12.9965 10.9037 13.5422C11.0854 13.6046 11.2692 13.6491 11.4526 13.676C12.8701 13.8846 14.2813 13.0636 14.7648 11.6579C15.9075 8.33694 15.3918 5.1226 12.9005 2.8279C11.3993 1.44486 9.71417 0.917208 9.23347 0.788406C8.39511 0.563769 7.55479 0.707739 6.87622 1.11583C6.22112 1.50899 5.71574 2.14639 5.50456 2.93451C5.07072 4.55363 6.03083 6.21851 7.64947 6.65415Z" fill="#FF8947"/>
<path d="M6.92897 13.2257C5.88009 13.1997 5.59814 12.5986 5.6618 11.6807C5.73209 10.6741 4.97291 9.80122 3.96661 9.73114C3.8513 9.72319 3.73762 9.72594 3.6269 9.73888C2.77105 9.8383 2.0791 10.5348 2.01707 11.4266C1.87018 13.5336 2.67 15.3204 4.47429 16.2656C5.56157 16.8353 6.62257 16.8795 6.92184 16.8795C7.44378 16.8795 7.9095 16.6651 8.24014 16.3224C8.55948 15.9921 8.75384 15.5432 8.75384 15.0525C8.75384 14.0445 7.937 13.2269 6.92897 13.2257Z" fill="#FF477E"/>
</g>
<defs>
<clipPath id="clip0_2621_4764">
<rect width="24" height="24" fill="white" transform="translate(0 0.5)"/>
</clipPath>
</defs>
</svg>
