<svg width="51" height="32" viewBox="0 0 51 32" fill="none" xmlns="http://www.w3.org/2000/svg">
<path d="M41.449 5.54102C41.449 5.99674 41.3204 6.36947 41.0632 6.65918C40.8093 6.94889 40.448 7.14258 39.9792 7.24023V7.2793C40.5522 7.35091 40.977 7.5332 41.2537 7.82617C41.5304 8.11914 41.6687 8.50326 41.6687 8.97852C41.6687 9.65885 41.4327 10.1829 40.9607 10.5508C40.4887 10.9154 39.8181 11.0977 38.949 11.0977C38.5714 11.0977 38.2247 11.0684 37.9089 11.0098C37.5964 10.9544 37.2921 10.8551 36.9958 10.7119V9.94043C37.3051 10.0934 37.6339 10.2106 37.9822 10.292C38.3337 10.3701 38.6658 10.4092 38.9783 10.4092C40.212 10.4092 40.8289 9.92578 40.8289 8.95898C40.8289 8.0931 40.1485 7.66016 38.7878 7.66016H38.0847V6.96191H38.7976C39.3542 6.96191 39.7953 6.83984 40.1208 6.5957C40.4464 6.34831 40.6091 6.00651 40.6091 5.57031C40.6091 5.22201 40.4887 4.94857 40.2478 4.75C40.0102 4.55143 39.6863 4.45215 39.2761 4.45215C38.9636 4.45215 38.669 4.49447 38.3923 4.5791C38.1156 4.66374 37.7999 4.81999 37.4451 5.04785L37.0349 4.50098C37.3279 4.26986 37.6648 4.08919 38.0457 3.95898C38.4298 3.82552 38.8334 3.75879 39.2566 3.75879C39.95 3.75879 40.4887 3.91829 40.8728 4.2373C41.2569 4.55306 41.449 4.98763 41.449 5.54102ZM47.4792 7.4209C47.4792 8.65462 47.2839 9.57585 46.8933 10.1846C46.5059 10.7933 45.9119 11.0977 45.1111 11.0977C44.3429 11.0977 43.7585 10.7868 43.3582 10.165C42.9578 9.54004 42.7576 8.62533 42.7576 7.4209C42.7576 6.17741 42.9513 5.25456 43.3386 4.65234C43.726 4.05013 44.3168 3.74902 45.1111 3.74902C45.8858 3.74902 46.4734 4.06315 46.8738 4.69141C47.2774 5.31966 47.4792 6.22949 47.4792 7.4209ZM43.5779 7.4209C43.5779 8.45931 43.7 9.21615 43.9441 9.69141C44.1882 10.1634 44.5772 10.3994 45.1111 10.3994C45.6514 10.3994 46.0421 10.1602 46.283 9.68164C46.5271 9.19987 46.6492 8.44629 46.6492 7.4209C46.6492 6.39551 46.5271 5.64518 46.283 5.16992C46.0421 4.69141 45.6514 4.45215 45.1111 4.45215C44.5772 4.45215 44.1882 4.68815 43.9441 5.16016C43.7 5.62891 43.5779 6.38249 43.5779 7.4209Z" fill="#FF477E"/>
<path d="M13.9822 19.5C13.9822 19.5 14.4822 19.5714 6.98218 19.5714C-0.517822 19.5714 -0.517822 7.5 6.98218 7.5C14.4822 7.5 47.9822 7.5 47.9822 7.5M13.9822 19.5L9.52763 17.1429M13.9822 19.5L9.52763 22" stroke="#FF477E" stroke-linecap="round" stroke-linejoin="round"/>
<path d="M23.2302 25H16.4626V23.79L19.0535 21.165C19.5548 20.6546 19.9672 20.2148 20.2908 19.8457C20.6143 19.472 20.8536 19.1188 21.0085 18.7861C21.1681 18.4535 21.2478 18.0911 21.2478 17.6992C21.2478 17.2161 21.1088 16.8516 20.8308 16.6055C20.5528 16.3548 20.186 16.2295 19.7302 16.2295C19.2973 16.2295 18.8962 16.3161 18.5271 16.4893C18.1625 16.6579 17.7843 16.8994 17.3923 17.2139L16.5105 16.1543C16.7885 15.9173 17.0847 15.7008 17.3992 15.5049C17.7182 15.3089 18.0736 15.154 18.4656 15.04C18.8575 14.9215 19.3041 14.8623 19.8054 14.8623C20.4389 14.8623 20.9858 14.9762 21.446 15.2041C21.9063 15.4274 22.2595 15.7396 22.5056 16.1406C22.7563 16.5417 22.8816 17.0088 22.8816 17.542C22.8816 18.0798 22.7745 18.5765 22.5603 19.0322C22.3461 19.488 22.0408 19.9391 21.6443 20.3857C21.2478 20.8278 20.7761 21.3086 20.2292 21.8281L18.4998 23.5166V23.5918H23.2302V25ZM31.2419 19.9961C31.2419 20.8027 31.1781 21.5251 31.0505 22.1631C30.9275 22.7965 30.7315 23.3343 30.4626 23.7764C30.1938 24.2184 29.8429 24.5557 29.4099 24.7881C28.977 25.0205 28.4529 25.1367 27.8376 25.1367C27.0675 25.1367 26.4317 24.9339 25.9304 24.5283C25.4291 24.1182 25.0577 23.5303 24.8162 22.7646C24.5746 21.9945 24.4539 21.0716 24.4539 19.9961C24.4539 18.9206 24.5632 18 24.782 17.2344C25.0053 16.4642 25.3653 15.874 25.8621 15.4639C26.3588 15.0537 27.0173 14.8486 27.8376 14.8486C28.6124 14.8486 29.2504 15.0537 29.7517 15.4639C30.2576 15.8695 30.6313 16.4574 30.8728 17.2275C31.1189 17.9932 31.2419 18.916 31.2419 19.9961ZM26.074 19.9961C26.074 20.8392 26.1287 21.5433 26.238 22.1084C26.352 22.6735 26.5388 23.0973 26.7986 23.3799C27.0583 23.6579 27.4047 23.7969 27.8376 23.7969C28.2706 23.7969 28.6169 23.6579 28.8767 23.3799C29.1365 23.1019 29.3233 22.6803 29.4373 22.1152C29.5557 21.5501 29.615 20.8438 29.615 19.9961C29.615 19.1576 29.558 18.4557 29.4441 17.8906C29.3302 17.3255 29.1433 16.9017 28.8835 16.6191C28.6238 16.332 28.2751 16.1885 27.8376 16.1885C27.4001 16.1885 27.0515 16.332 26.7917 16.6191C26.5365 16.9017 26.352 17.3255 26.238 17.8906C26.1287 18.4557 26.074 19.1576 26.074 19.9961Z" fill="black"/>
<path d="M49.3361 13.5256C47.5013 11.9621 44.7726 12.2433 43.0884 13.981L42.4289 14.6607L41.7693 13.981C40.0885 12.2433 37.3564 11.9621 35.5216 13.5256C33.419 15.3203 33.3085 18.5412 35.1902 20.4865L41.6688 27.1761C42.0873 27.608 42.767 27.608 43.1855 27.1761L49.6642 20.4865C51.5492 18.5412 51.4387 15.3203 49.3361 13.5256Z" fill="#FF477E"/>
</svg>
