<svg width="38" height="15" viewBox="0 0 38 15" fill="none" xmlns="http://www.w3.org/2000/svg">
<rect x="0.232178" y="0.5" width="37" height="14" rx="7" fill="#DFEFFF"/>
<path d="M7.74194 9.19043V8.44824H10.1394V9.19043H7.74194ZM13.2742 7.13965C14.0261 7.13965 14.6169 7.32682 15.0466 7.70117C15.4796 8.07227 15.696 8.58171 15.696 9.22949C15.696 9.96842 15.46 10.5479 14.988 10.9678C14.5193 11.3877 13.8715 11.5977 13.0447 11.5977C12.2406 11.5977 11.627 11.4691 11.2039 11.2119V10.4307C11.4317 10.5771 11.7149 10.6927 12.0535 10.7773C12.392 10.8587 12.7257 10.8994 13.0544 10.8994C13.6274 10.8994 14.0717 10.7643 14.3875 10.4941C14.7065 10.224 14.866 9.83333 14.866 9.32227C14.866 8.32617 14.2556 7.82812 13.0349 7.82812C12.7257 7.82812 12.3123 7.87533 11.7947 7.96973L11.3748 7.70117L11.6433 4.36133H15.1931V5.1084H12.3367L12.156 7.25195C12.5304 7.17708 12.9031 7.13965 13.2742 7.13965ZM21.1892 6.04102C21.1892 6.49674 21.0606 6.86947 20.8035 7.15918C20.5496 7.44889 20.1882 7.64258 19.7195 7.74023V7.7793C20.2924 7.85091 20.7172 8.0332 20.9939 8.32617C21.2706 8.61914 21.4089 9.00326 21.4089 9.47852C21.4089 10.1589 21.1729 10.6829 20.7009 11.0508C20.2289 11.4154 19.5583 11.5977 18.6892 11.5977C18.3116 11.5977 17.9649 11.5684 17.6492 11.5098C17.3367 11.4544 17.0323 11.3551 16.7361 11.2119V10.4404C17.0453 10.5934 17.3741 10.7106 17.7224 10.792C18.074 10.8701 18.406 10.9092 18.7185 10.9092C19.9522 10.9092 20.5691 10.4258 20.5691 9.45898C20.5691 8.5931 19.8888 8.16016 18.5281 8.16016H17.825V7.46191H18.5378C19.0945 7.46191 19.5356 7.33984 19.8611 7.0957C20.1866 6.84831 20.3494 6.50651 20.3494 6.07031C20.3494 5.72201 20.2289 5.44857 19.988 5.25C19.7504 5.05143 19.4265 4.95215 19.0164 4.95215C18.7039 4.95215 18.4093 4.99447 18.1326 5.0791C17.8559 5.16374 17.5401 5.31999 17.1853 5.54785L16.7751 5.00098C17.0681 4.76986 17.405 4.58919 17.7859 4.45898C18.17 4.32552 18.5736 4.25879 18.9968 4.25879C19.6902 4.25879 20.2289 4.41829 20.613 4.7373C20.9972 5.05306 21.1892 5.48763 21.1892 6.04102ZM23.1814 6.49023C23.1814 7.04362 23.2416 7.45866 23.3621 7.73535C23.4825 8.01204 23.6778 8.15039 23.948 8.15039C24.4819 8.15039 24.7488 7.59701 24.7488 6.49023C24.7488 5.38997 24.4819 4.83984 23.948 4.83984C23.6778 4.83984 23.4825 4.97656 23.3621 5.25C23.2416 5.52344 23.1814 5.93685 23.1814 6.49023ZM25.4177 6.49023C25.4177 7.23242 25.2924 7.79395 25.0417 8.1748C24.7944 8.55241 24.4298 8.74121 23.948 8.74121C23.4923 8.74121 23.1375 8.54753 22.8835 8.16016C22.6329 7.77279 22.5076 7.21615 22.5076 6.49023C22.5076 5.7513 22.628 5.19466 22.8689 4.82031C23.113 4.44596 23.4727 4.25879 23.948 4.25879C24.42 4.25879 24.783 4.45247 25.0369 4.83984C25.2908 5.22721 25.4177 5.77734 25.4177 6.49023ZM27.4783 9.35156C27.4783 9.9082 27.5385 10.3249 27.6589 10.6016C27.7794 10.875 27.9763 11.0117 28.2498 11.0117C28.5232 11.0117 28.725 10.8766 28.8552 10.6064C28.9854 10.333 29.0505 9.91471 29.0505 9.35156C29.0505 8.79492 28.9854 8.38314 28.8552 8.11621C28.725 7.84603 28.5232 7.71094 28.2498 7.71094C27.9763 7.71094 27.7794 7.84603 27.6589 8.11621C27.5385 8.38314 27.4783 8.79492 27.4783 9.35156ZM29.7195 9.35156C29.7195 10.0905 29.5942 10.6504 29.3435 11.0312C29.0961 11.4089 28.7315 11.5977 28.2498 11.5977C27.7875 11.5977 27.4311 11.404 27.1804 11.0166C26.933 10.6292 26.8093 10.0742 26.8093 9.35156C26.8093 8.61263 26.9298 8.05599 27.1707 7.68164C27.4148 7.30729 27.7745 7.12012 28.2498 7.12012C28.712 7.12012 29.0717 7.31217 29.3289 7.69629C29.5893 8.07715 29.7195 8.62891 29.7195 9.35156ZM28.4597 4.36133L24.4998 11.5H23.782L27.7419 4.36133H28.4597Z" fill="#0094FF"/>
</svg>
