<svg width="57" height="33" viewBox="0 0 57 33" fill="none" xmlns="http://www.w3.org/2000/svg">
<path d="M43.6013 6.04102C43.6013 6.49674 43.4727 6.86947 43.2156 7.15918C42.9617 7.44889 42.6003 7.64258 42.1316 7.74023V7.7793C42.7045 7.85091 43.1293 8.0332 43.406 8.32617C43.6827 8.61914 43.821 9.00326 43.821 9.47852C43.821 10.1589 43.585 10.6829 43.113 11.0508C42.641 11.4154 41.9705 11.5977 41.1013 11.5977C40.7237 11.5977 40.377 11.5684 40.0613 11.5098C39.7488 11.4544 39.4444 11.3551 39.1482 11.2119V10.4404C39.4574 10.5934 39.7862 10.7106 40.1345 10.792C40.4861 10.8701 40.8181 10.9092 41.1306 10.9092C42.3643 10.9092 42.9812 10.4258 42.9812 9.45898C42.9812 8.5931 42.3009 8.16016 40.9402 8.16016H40.2371V7.46191H40.95C41.5066 7.46191 41.9477 7.33984 42.2732 7.0957C42.5987 6.84831 42.7615 6.50651 42.7615 6.07031C42.7615 5.72201 42.641 5.44857 42.4001 5.25C42.1625 5.05143 41.8386 4.95215 41.4285 4.95215C41.116 4.95215 40.8214 4.99447 40.5447 5.0791C40.268 5.16374 39.9522 5.31999 39.5974 5.54785L39.1873 5.00098C39.4802 4.76986 39.8171 4.58919 40.198 4.45898C40.5821 4.32552 40.9858 4.25879 41.4089 4.25879C42.1023 4.25879 42.641 4.41829 43.0251 4.7373C43.4093 5.05306 43.6013 5.48763 43.6013 6.04102ZM49.6316 7.9209C49.6316 9.15462 49.4363 10.0758 49.0457 10.6846C48.6583 11.2933 48.0642 11.5977 47.2634 11.5977C46.4952 11.5977 45.9109 11.2868 45.5105 10.665C45.1101 10.04 44.9099 9.12533 44.9099 7.9209C44.9099 6.67741 45.1036 5.75456 45.491 5.15234C45.8783 4.55013 46.4692 4.24902 47.2634 4.24902C48.0382 4.24902 48.6257 4.56315 49.0261 5.19141C49.4298 5.81966 49.6316 6.72949 49.6316 7.9209ZM45.7302 7.9209C45.7302 8.95931 45.8523 9.71615 46.0964 10.1914C46.3406 10.6634 46.7296 10.8994 47.2634 10.8994C47.8038 10.8994 48.1944 10.6602 48.4353 10.1816C48.6794 9.69987 48.8015 8.94629 48.8015 7.9209C48.8015 6.89551 48.6794 6.14518 48.4353 5.66992C48.1944 5.19141 47.8038 4.95215 47.2634 4.95215C46.7296 4.95215 46.3406 5.18815 46.0964 5.66016C45.8523 6.12891 45.7302 6.88249 45.7302 7.9209ZM55.3542 7.9209C55.3542 9.15462 55.1589 10.0758 54.7683 10.6846C54.3809 11.2933 53.7869 11.5977 52.9861 11.5977C52.2179 11.5977 51.6335 11.2868 51.2332 10.665C50.8328 10.04 50.6326 9.12533 50.6326 7.9209C50.6326 6.67741 50.8263 5.75456 51.2136 5.15234C51.601 4.55013 52.1918 4.24902 52.9861 4.24902C53.7608 4.24902 54.3484 4.56315 54.7488 5.19141C55.1524 5.81966 55.3542 6.72949 55.3542 7.9209ZM51.4529 7.9209C51.4529 8.95931 51.575 9.71615 51.8191 10.1914C52.0632 10.6634 52.4522 10.8994 52.9861 10.8994C53.5264 10.8994 53.9171 10.6602 54.158 10.1816C54.4021 9.69987 54.5242 8.94629 54.5242 7.9209C54.5242 6.89551 54.4021 6.14518 54.158 5.66992C53.9171 5.19141 53.5264 4.95215 52.9861 4.95215C52.4522 4.95215 52.0632 5.18815 51.8191 5.66016C51.575 6.12891 51.4529 6.88249 51.4529 7.9209Z" fill="#FF477E"/>
<path d="M13.8572 20C13.8572 20 14.3572 20.0714 6.85718 20.0714C-0.642822 20.0714 -0.642822 8 6.85718 8C14.3572 8 55.8572 8 55.8572 8M13.8572 20L9.40263 17.6429M13.8572 20L9.40263 22.5" stroke="#FF477E" stroke-linecap="round" stroke-linejoin="round"/>
<path d="M21.2185 25.5H14.4509V24.29L17.0417 21.665C17.5431 21.1546 17.9555 20.7148 18.2791 20.3457C18.6026 19.972 18.8419 19.6188 18.9968 19.2861C19.1563 18.9535 19.2361 18.5911 19.2361 18.1992C19.2361 17.7161 19.0971 17.3516 18.8191 17.1055C18.5411 16.8548 18.1742 16.7295 17.7185 16.7295C17.2856 16.7295 16.8845 16.8161 16.5154 16.9893C16.1508 17.1579 15.7725 17.3994 15.3806 17.7139L14.4988 16.6543C14.7768 16.4173 15.073 16.2008 15.3875 16.0049C15.7065 15.8089 16.0619 15.654 16.4539 15.54C16.8458 15.4215 17.2924 15.3623 17.7937 15.3623C18.4272 15.3623 18.974 15.4762 19.4343 15.7041C19.8946 15.9274 20.2478 16.2396 20.4939 16.6406C20.7445 17.0417 20.8699 17.5088 20.8699 18.042C20.8699 18.5798 20.7628 19.0765 20.5486 19.5322C20.3344 19.988 20.0291 20.4391 19.6326 20.8857C19.2361 21.3278 18.7644 21.8086 18.2175 22.3281L16.488 24.0166V24.0918H21.2185V25.5ZM29.2302 25.5H22.4626V24.29L25.0535 21.665C25.5548 21.1546 25.9672 20.7148 26.2908 20.3457C26.6143 19.972 26.8536 19.6188 27.0085 19.2861C27.1681 18.9535 27.2478 18.5911 27.2478 18.1992C27.2478 17.7161 27.1088 17.3516 26.8308 17.1055C26.5528 16.8548 26.186 16.7295 25.7302 16.7295C25.2973 16.7295 24.8962 16.8161 24.5271 16.9893C24.1625 17.1579 23.7843 17.3994 23.3923 17.7139L22.5105 16.6543C22.7885 16.4173 23.0847 16.2008 23.3992 16.0049C23.7182 15.8089 24.0736 15.654 24.4656 15.54C24.8575 15.4215 25.3041 15.3623 25.8054 15.3623C26.4389 15.3623 26.9858 15.4762 27.446 15.7041C27.9063 15.9274 28.2595 16.2396 28.5056 16.6406C28.7563 17.0417 28.8816 17.5088 28.8816 18.042C28.8816 18.5798 28.7745 19.0765 28.5603 19.5322C28.3461 19.988 28.0408 20.4391 27.6443 20.8857C27.2478 21.3278 26.7761 21.8086 26.2292 22.3281L24.4998 24.0166V24.0918H29.2302V25.5ZM37.2419 20.4961C37.2419 21.3027 37.1781 22.0251 37.0505 22.6631C36.9275 23.2965 36.7315 23.8343 36.4626 24.2764C36.1938 24.7184 35.8429 25.0557 35.4099 25.2881C34.977 25.5205 34.4529 25.6367 33.8376 25.6367C33.0675 25.6367 32.4317 25.4339 31.9304 25.0283C31.4291 24.6182 31.0577 24.0303 30.8162 23.2646C30.5746 22.4945 30.4539 21.5716 30.4539 20.4961C30.4539 19.4206 30.5632 18.5 30.782 17.7344C31.0053 16.9642 31.3653 16.374 31.8621 15.9639C32.3588 15.5537 33.0173 15.3486 33.8376 15.3486C34.6124 15.3486 35.2504 15.5537 35.7517 15.9639C36.2576 16.3695 36.6313 16.9574 36.8728 17.7275C37.1189 18.4932 37.2419 19.416 37.2419 20.4961ZM32.074 20.4961C32.074 21.3392 32.1287 22.0433 32.238 22.6084C32.352 23.1735 32.5388 23.5973 32.7986 23.8799C33.0583 24.1579 33.4047 24.2969 33.8376 24.2969C34.2706 24.2969 34.6169 24.1579 34.8767 23.8799C35.1365 23.6019 35.3233 23.1803 35.4373 22.6152C35.5557 22.0501 35.615 21.3438 35.615 20.4961C35.615 19.6576 35.558 18.9557 35.4441 18.3906C35.3302 17.8255 35.1433 17.4017 34.8835 17.1191C34.6238 16.832 34.2751 16.6885 33.8376 16.6885C33.4001 16.6885 33.0515 16.832 32.7917 17.1191C32.5365 17.4017 32.352 17.8255 32.238 18.3906C32.1287 18.9557 32.074 19.6576 32.074 20.4961Z" fill="black"/>
<path d="M55.3361 14.0256C53.5013 12.4621 50.7726 12.7433 49.0884 14.481L48.4289 15.1607L47.7693 14.481C46.0885 12.7433 43.3564 12.4621 41.5216 14.0256C39.419 15.8203 39.3085 19.0412 41.1902 20.9865L47.6688 27.6761C48.0873 28.108 48.767 28.108 49.1855 27.6761L55.6642 20.9865C57.5492 19.0412 57.4387 15.8203 55.3361 14.0256Z" fill="#FF477E"/>
</svg>
