<svg width="38" height="15" viewBox="0 0 38 15" fill="none" xmlns="http://www.w3.org/2000/svg">
<rect x="0.907227" y="0.5" width="37" height="14" rx="7" fill="#DFEFFF"/>
<path d="M8.41699 9.19043V8.44824H10.8145V9.19043H8.41699ZM16.7471 9.85938H15.6875V11.5H14.9111V9.85938H11.4395V9.15137L14.8281 4.32227H15.6875V9.12207H16.7471V9.85938ZM14.9111 9.12207V6.74902C14.9111 6.28353 14.9274 5.75781 14.96 5.17188H14.9209C14.7646 5.48438 14.6182 5.74316 14.4814 5.94824L12.25 9.12207H14.9111ZM19.8037 4.25879C20.4548 4.25879 20.9707 4.41016 21.3516 4.71289C21.7324 5.01562 21.9229 5.43392 21.9229 5.96777C21.9229 6.31934 21.8138 6.63997 21.5957 6.92969C21.3776 7.2194 21.0293 7.48307 20.5508 7.7207C21.1302 7.9974 21.542 8.28874 21.7861 8.59473C22.0303 8.89746 22.1523 9.24902 22.1523 9.64941C22.1523 10.2419 21.9456 10.7155 21.5322 11.0703C21.1188 11.4219 20.5524 11.5977 19.833 11.5977C19.0713 11.5977 18.4854 11.4316 18.0752 11.0996C17.665 10.7643 17.46 10.2907 17.46 9.67871C17.46 8.86165 17.958 8.22526 18.9541 7.76953C18.5049 7.51562 18.1826 7.24219 17.9873 6.94922C17.792 6.65299 17.6943 6.32259 17.6943 5.95801C17.6943 5.44043 17.8848 5.02865 18.2656 4.72266C18.6497 4.41341 19.1624 4.25879 19.8037 4.25879ZM18.2607 9.69824C18.2607 10.0889 18.3958 10.3932 18.666 10.6113C18.9395 10.8294 19.3219 10.9385 19.8135 10.9385C20.2985 10.9385 20.6761 10.8245 20.9463 10.5967C21.2165 10.3688 21.3516 10.0563 21.3516 9.65918C21.3516 9.34342 21.2246 9.06348 20.9707 8.81934C20.7168 8.57194 20.2741 8.33268 19.6426 8.10156C19.1576 8.3099 18.806 8.54102 18.5879 8.79492C18.3698 9.04557 18.2607 9.34668 18.2607 9.69824ZM19.7939 4.91797C19.387 4.91797 19.068 5.01562 18.8369 5.21094C18.6058 5.40625 18.4902 5.66667 18.4902 5.99219C18.4902 6.29167 18.5863 6.54883 18.7783 6.76367C18.9704 6.97852 19.3252 7.19336 19.8428 7.4082C20.3083 7.21289 20.637 7.00293 20.8291 6.77832C21.0244 6.55371 21.1221 6.29167 21.1221 5.99219C21.1221 5.66341 21.0033 5.40299 20.7656 5.21094C20.5312 5.01562 20.2074 4.91797 19.7939 4.91797ZM23.8564 6.49023C23.8564 7.04362 23.9167 7.45866 24.0371 7.73535C24.1576 8.01204 24.3529 8.15039 24.623 8.15039C25.1569 8.15039 25.4238 7.59701 25.4238 6.49023C25.4238 5.38997 25.1569 4.83984 24.623 4.83984C24.3529 4.83984 24.1576 4.97656 24.0371 5.25C23.9167 5.52344 23.8564 5.93685 23.8564 6.49023ZM26.0928 6.49023C26.0928 7.23242 25.9674 7.79395 25.7168 8.1748C25.4694 8.55241 25.1048 8.74121 24.623 8.74121C24.1673 8.74121 23.8125 8.54753 23.5586 8.16016C23.3079 7.77279 23.1826 7.21615 23.1826 6.49023C23.1826 5.7513 23.3031 5.19466 23.5439 4.82031C23.7881 4.44596 24.1478 4.25879 24.623 4.25879C25.0951 4.25879 25.458 4.45247 25.7119 4.83984C25.9658 5.22721 26.0928 5.77734 26.0928 6.49023ZM28.1533 9.35156C28.1533 9.9082 28.2135 10.3249 28.334 10.6016C28.4544 10.875 28.6514 11.0117 28.9248 11.0117C29.1982 11.0117 29.4001 10.8766 29.5303 10.6064C29.6605 10.333 29.7256 9.91471 29.7256 9.35156C29.7256 8.79492 29.6605 8.38314 29.5303 8.11621C29.4001 7.84603 29.1982 7.71094 28.9248 7.71094C28.6514 7.71094 28.4544 7.84603 28.334 8.11621C28.2135 8.38314 28.1533 8.79492 28.1533 9.35156ZM30.3945 9.35156C30.3945 10.0905 30.2692 10.6504 30.0186 11.0312C29.7712 11.4089 29.4066 11.5977 28.9248 11.5977C28.4626 11.5977 28.1061 11.404 27.8555 11.0166C27.6081 10.6292 27.4844 10.0742 27.4844 9.35156C27.4844 8.61263 27.6048 8.05599 27.8457 7.68164C28.0898 7.30729 28.4495 7.12012 28.9248 7.12012C29.387 7.12012 29.7467 7.31217 30.0039 7.69629C30.2643 8.07715 30.3945 8.62891 30.3945 9.35156ZM29.1348 4.36133L25.1748 11.5H24.457L28.417 4.36133H29.1348Z" fill="#0094FF"/>
</svg>
