<svg width="38" height="14" viewBox="0 0 38 14" fill="none" xmlns="http://www.w3.org/2000/svg">
<rect x="0.357178" width="37" height="14" rx="7" fill="#DFEFFF"/>
<path d="M7.86694 8.69043V7.94824H10.2644V8.69043H7.86694ZM15.5916 5.54102C15.5916 5.99674 15.463 6.36947 15.2058 6.65918C14.9519 6.94889 14.5906 7.14258 14.1218 7.24023V7.2793C14.6947 7.35091 15.1195 7.5332 15.3962 7.82617C15.6729 8.11914 15.8113 8.50326 15.8113 8.97852C15.8113 9.65885 15.5753 10.1829 15.1033 10.5508C14.6313 10.9154 13.9607 11.0977 13.0916 11.0977C12.7139 11.0977 12.3673 11.0684 12.0515 11.0098C11.739 10.9544 11.4347 10.8551 11.1384 10.7119V9.94043C11.4477 10.0934 11.7764 10.2106 12.1248 10.292C12.4763 10.3701 12.8083 10.4092 13.1208 10.4092C14.3546 10.4092 14.9714 9.92578 14.9714 8.95898C14.9714 8.0931 14.2911 7.66016 12.9304 7.66016H12.2273V6.96191H12.9402C13.4968 6.96191 13.9379 6.83984 14.2634 6.5957C14.5889 6.34831 14.7517 6.00651 14.7517 5.57031C14.7517 5.22201 14.6313 4.94857 14.3904 4.75C14.1528 4.55143 13.8289 4.45215 13.4187 4.45215C13.1062 4.45215 12.8116 4.49447 12.5349 4.5791C12.2582 4.66374 11.9425 4.81999 11.5876 5.04785L11.1775 4.50098C11.4705 4.26986 11.8074 4.08919 12.1882 3.95898C12.5723 3.82552 12.976 3.75879 13.3992 3.75879C14.0925 3.75879 14.6313 3.91829 15.0154 4.2373C15.3995 4.55306 15.5916 4.98763 15.5916 5.54102ZM21.3142 5.54102C21.3142 5.99674 21.1856 6.36947 20.9285 6.65918C20.6746 6.94889 20.3132 7.14258 19.8445 7.24023V7.2793C20.4174 7.35091 20.8422 7.5332 21.1189 7.82617C21.3956 8.11914 21.5339 8.50326 21.5339 8.97852C21.5339 9.65885 21.2979 10.1829 20.8259 10.5508C20.3539 10.9154 19.6833 11.0977 18.8142 11.0977C18.4366 11.0977 18.0899 11.0684 17.7742 11.0098C17.4617 10.9544 17.1573 10.8551 16.8611 10.7119V9.94043C17.1703 10.0934 17.4991 10.2106 17.8474 10.292C18.199 10.3701 18.531 10.4092 18.8435 10.4092C20.0772 10.4092 20.6941 9.92578 20.6941 8.95898C20.6941 8.0931 20.0138 7.66016 18.6531 7.66016H17.95V6.96191H18.6628C19.2195 6.96191 19.6606 6.83984 19.9861 6.5957C20.3116 6.34831 20.4744 6.00651 20.4744 5.57031C20.4744 5.22201 20.3539 4.94857 20.113 4.75C19.8754 4.55143 19.5515 4.45215 19.1414 4.45215C18.8289 4.45215 18.5343 4.49447 18.2576 4.5791C17.9809 4.66374 17.6651 4.81999 17.3103 5.04785L16.9001 4.50098C17.1931 4.26986 17.53 4.08919 17.9109 3.95898C18.295 3.82552 18.6986 3.75879 19.1218 3.75879C19.8152 3.75879 20.3539 3.91829 20.738 4.2373C21.1222 4.55306 21.3142 4.98763 21.3142 5.54102ZM23.3064 5.99023C23.3064 6.54362 23.3666 6.95866 23.4871 7.23535C23.6075 7.51204 23.8028 7.65039 24.073 7.65039C24.6069 7.65039 24.8738 7.09701 24.8738 5.99023C24.8738 4.88997 24.6069 4.33984 24.073 4.33984C23.8028 4.33984 23.6075 4.47656 23.4871 4.75C23.3666 5.02344 23.3064 5.43685 23.3064 5.99023ZM25.5427 5.99023C25.5427 6.73242 25.4174 7.29395 25.1667 7.6748C24.9194 8.05241 24.5548 8.24121 24.073 8.24121C23.6173 8.24121 23.2625 8.04753 23.0085 7.66016C22.7579 7.27279 22.6326 6.71615 22.6326 5.99023C22.6326 5.2513 22.753 4.69466 22.9939 4.32031C23.238 3.94596 23.5977 3.75879 24.073 3.75879C24.545 3.75879 24.908 3.95247 25.1619 4.33984C25.4158 4.72721 25.5427 5.27734 25.5427 5.99023ZM27.6033 8.85156C27.6033 9.4082 27.6635 9.82487 27.7839 10.1016C27.9044 10.375 28.1013 10.5117 28.3748 10.5117C28.6482 10.5117 28.85 10.3766 28.9802 10.1064C29.1104 9.83301 29.1755 9.41471 29.1755 8.85156C29.1755 8.29492 29.1104 7.88314 28.9802 7.61621C28.85 7.34603 28.6482 7.21094 28.3748 7.21094C28.1013 7.21094 27.9044 7.34603 27.7839 7.61621C27.6635 7.88314 27.6033 8.29492 27.6033 8.85156ZM29.8445 8.85156C29.8445 9.59049 29.7192 10.1504 29.4685 10.5312C29.2211 10.9089 28.8565 11.0977 28.3748 11.0977C27.9125 11.0977 27.5561 10.904 27.3054 10.5166C27.058 10.1292 26.9343 9.57422 26.9343 8.85156C26.9343 8.11263 27.0548 7.55599 27.2957 7.18164C27.5398 6.80729 27.8995 6.62012 28.3748 6.62012C28.837 6.62012 29.1967 6.81217 29.4539 7.19629C29.7143 7.57715 29.8445 8.12891 29.8445 8.85156ZM28.5847 3.86133L24.6248 11H23.907L27.8669 3.86133H28.5847Z" fill="#0094FF"/>
</svg>
