<svg width="29" height="30" viewBox="0 0 29 30" fill="none" xmlns="http://www.w3.org/2000/svg">
<path d="M14.2965 0C6.40096 0 0 5.87363 0 13.1194C0 18.4697 2.25803 21.0247 5.35236 23.3541L5.36737 23.3605V29.6405C5.36737 29.9362 5.70833 30.1064 5.9485 29.9298L11.3695 25.9346L11.4853 25.9857C12.3945 26.1516 13.3337 26.2388 14.2944 26.2388C22.19 26.2388 28.591 20.3652 28.591 13.1194C28.591 5.87363 22.1921 0 14.2965 0ZM9.50387 16.4423C10.9063 16.4423 12.105 15.6106 12.4653 14.3235H14.5389C14.0328 16.7976 12.09 18.4208 9.50601 18.4208C6.50174 18.4208 4.11934 16.1977 4.11934 13.1045C4.11934 10.0113 6.50174 7.78826 9.50601 7.78826C12.1179 7.78826 14.0714 9.44334 14.5539 11.96H12.4867C12.1715 10.5921 10.932 9.73904 9.50601 9.73904C7.48601 9.73904 6.14149 11.1686 6.14149 13.1067C6.14149 15.0447 7.67043 16.4466 9.50601 16.4466M23.1635 18.2208H21.2636V13.9704C21.2636 12.9918 20.6889 12.4663 19.8054 12.4663C18.819 12.4663 18.1864 13.0641 18.1864 14.2767V18.2208H16.2865V7.82442H18.1864V11.7345C18.6432 11.0474 19.3787 10.7112 20.3801 10.7112C21.1907 10.7112 21.8533 10.975 22.368 11.5154C22.8976 12.0557 23.1635 12.7854 23.1635 13.7364V18.2208Z" fill="white"/>
</svg>
