<svg width="57" height="32" viewBox="0 0 57 32" fill="none" xmlns="http://www.w3.org/2000/svg">
<path d="M38.6516 10.0977C37.2454 10.0977 36.2395 9.3457 36.1907 8.22266H37.0793C37.1282 8.89648 37.802 9.31641 38.6418 9.31641C39.5696 9.31641 40.2532 8.80859 40.2532 8.07617C40.2532 7.30469 39.6379 6.75781 38.5344 6.75781H37.9583V5.98633H38.5344C39.3938 5.98633 39.9895 5.50781 39.9895 4.77539C39.9895 4.07227 39.4719 3.59375 38.6711 3.59375C37.9192 3.59375 37.2258 4.01367 37.1868 4.70703H36.3372C36.386 3.58398 37.4211 2.83203 38.6809 2.83203C40.0286 2.83203 40.8489 3.71094 40.8391 4.72656C40.8489 5.52734 40.3801 6.12305 39.6379 6.32812V6.37695C40.5559 6.52344 41.1223 7.17773 41.1125 8.07617C41.1223 9.23828 40.0579 10.0977 38.6516 10.0977ZM44.6965 10.0977C43.1243 10.0977 42.2258 8.7793 42.2258 6.46484C42.2258 4.16992 43.1438 2.83203 44.6965 2.83203C46.2493 2.83203 47.1672 4.16992 47.1672 6.46484C47.1672 8.7793 46.259 10.0977 44.6965 10.0977ZM44.6965 9.31641C45.7122 9.31641 46.3079 8.29102 46.3079 6.46484C46.3079 4.63867 45.7122 3.59375 44.6965 3.59375C43.6809 3.59375 43.0754 4.63867 43.0754 6.46484C43.0754 8.29102 43.6711 9.31641 44.6965 9.31641Z" fill="#FF477E"/>
<path d="M13.675 19.5C13.675 19.5 14.175 19.5714 6.67505 19.5714C-0.824951 19.5714 -0.824951 7.5 6.67505 7.5C14.175 7.5 47.675 7.5 47.675 7.5M13.675 19.5L9.2205 17.1429M13.675 19.5L9.2205 22" stroke="#FF477E" stroke-linecap="round" stroke-linejoin="round"/>
<path d="M20.377 15.1016V25H18.5859V16.8379H18.5312L16.2207 18.3145V16.6875L18.668 15.1016H20.377ZM22.6055 23.1543V21.7324L26.8848 15.1016H29.0996V21.6914H30.3984V23.1543H29.0996V25H27.4043V23.1543H22.6055ZM24.4238 21.6914H27.4316V17.125H27.3223L24.4238 21.623V21.6914Z" fill="black"/>
<path d="M49.4037 20.3053C46.7642 20.2397 46.0546 18.727 46.2149 16.4172C46.3917 13.8841 44.4813 11.6876 41.9489 11.5112C41.6588 11.4912 41.3727 11.4981 41.0941 11.5307C38.9403 11.7809 37.1991 13.5337 37.0429 15.7779C36.6733 21.0799 38.6861 25.5765 43.2265 27.9551C45.9626 29.3888 48.6326 29.5 49.3857 29.5C50.6992 29.5 51.8711 28.9604 52.7032 28.0981C53.5068 27.2668 53.9959 26.1371 53.9959 24.9024C53.9959 22.3657 51.9403 20.3081 49.4037 20.3053Z" fill="#FF477E"/>
<path d="M44.6091 14.2616C45.1016 15.1147 45.4657 15.7895 44.7483 16.2038C44.0309 16.618 43.5487 15.7891 43.0561 14.936C42.5636 14.0829 41.6923 13.5966 42.4097 13.1824C43.1272 12.7682 44.1165 13.4085 44.6091 14.2616Z" fill="#FEC7D7"/>
</svg>
