<svg width="18" height="18" viewBox="0 0 18 18" fill="none" xmlns="http://www.w3.org/2000/svg">
<g id="Info">
<path id="Vector" d="M9 1.6875C7.55373 1.6875 6.13993 2.11637 4.9374 2.91988C3.73486 3.72339 2.7976 4.86544 2.24413 6.20163C1.69067 7.53781 1.54586 9.00811 1.82801 10.4266C2.11017 11.8451 2.80661 13.148 3.82928 14.1707C4.85196 15.1934 6.15492 15.8898 7.57341 16.172C8.99189 16.4541 10.4622 16.3093 11.7984 15.7559C13.1346 15.2024 14.2766 14.2651 15.0801 13.0626C15.8836 11.8601 16.3125 10.4463 16.3125 9C16.3105 7.06123 15.5394 5.20246 14.1685 3.83154C12.7975 2.46063 10.9388 1.68955 9 1.6875ZM9 15.1875C7.77623 15.1875 6.57994 14.8246 5.56241 14.1447C4.54488 13.4648 3.75182 12.4985 3.2835 11.3679C2.81518 10.2372 2.69265 8.99314 2.93139 7.79288C3.17014 6.59262 3.75944 5.49011 4.62478 4.62478C5.49012 3.75944 6.59262 3.17014 7.79288 2.93139C8.99314 2.69264 10.2372 2.81518 11.3679 3.2835C12.4985 3.75181 13.4648 4.54488 14.1447 5.56241C14.8246 6.57994 15.1875 7.77623 15.1875 9C15.1856 10.6405 14.5331 12.2132 13.3732 13.3732C12.2132 14.5331 10.6405 15.1856 9 15.1875ZM10.125 12.375C10.125 12.5242 10.0657 12.6673 9.96025 12.7727C9.85476 12.8782 9.71169 12.9375 9.5625 12.9375C9.26413 12.9375 8.97799 12.819 8.76701 12.608C8.55603 12.397 8.4375 12.1109 8.4375 11.8125V9C8.28832 9 8.14525 8.94074 8.03976 8.83525C7.93427 8.72976 7.875 8.58668 7.875 8.4375C7.875 8.28832 7.93427 8.14524 8.03976 8.03975C8.14525 7.93426 8.28832 7.875 8.4375 7.875C8.73587 7.875 9.02202 7.99353 9.233 8.2045C9.44398 8.41548 9.5625 8.70163 9.5625 9V11.8125C9.71169 11.8125 9.85476 11.8718 9.96025 11.9773C10.0657 12.0827 10.125 12.2258 10.125 12.375ZM7.875 5.90625C7.875 5.73937 7.92449 5.57624 8.0172 5.43749C8.10991 5.29873 8.24169 5.19059 8.39586 5.12673C8.55004 5.06287 8.71969 5.04616 8.88336 5.07871C9.04703 5.11127 9.19737 5.19163 9.31537 5.30963C9.43337 5.42763 9.51373 5.57797 9.54629 5.74164C9.57885 5.90531 9.56214 6.07496 9.49828 6.22914C9.43441 6.38331 9.32627 6.51509 9.18752 6.6078C9.04876 6.70052 8.88563 6.75 8.71875 6.75C8.49498 6.75 8.28037 6.66111 8.12213 6.50287C7.9639 6.34464 7.875 6.13003 7.875 5.90625Z" fill="#34C759"/>
</g>
</svg>
