<svg width="26" height="22" viewBox="0 0 26 22" fill="none" xmlns="http://www.w3.org/2000/svg">
<path d="M26 14.0001C25.9977 16.1211 25.1541 18.1546 23.6543 19.6544C22.1545 21.1542 20.121 21.9978 18 22.0001H6.99999C6.73478 22.0001 6.48042 21.8947 6.29289 21.7072C6.10535 21.5196 5.99999 21.2653 5.99999 21.0001C5.99999 20.7349 6.10535 20.4805 6.29289 20.293C6.48042 20.1054 6.73478 20.0001 6.99999 20.0001H18C19.5913 20.0001 21.1174 19.3679 22.2426 18.2427C23.3679 17.1175 24 15.5914 24 14.0001C24 12.4088 23.3679 10.8826 22.2426 9.75743C21.1174 8.63221 19.5913 8.00007 18 8.00007H3.41374L7.70749 12.2926C7.89513 12.4802 8.00055 12.7347 8.00055 13.0001C8.00055 13.2654 7.89513 13.5199 7.70749 13.7076C7.51985 13.8952 7.26536 14.0006 6.99999 14.0006C6.73463 14.0006 6.48013 13.8952 6.29249 13.7076L0.292493 7.70757C0.199517 7.6147 0.125758 7.50441 0.0754333 7.38301C0.025109 7.26161 -0.000793457 7.13148 -0.000793457 7.00007C-0.000793457 6.86865 0.025109 6.73853 0.0754333 6.61713C0.125758 6.49573 0.199517 6.38544 0.292493 6.29257L6.29249 0.292568C6.48013 0.104927 6.73463 -0.000488285 6.99999 -0.000488281C7.26536 -0.000488277 7.51985 0.104927 7.70749 0.292568C7.89513 0.480208 8.00055 0.734704 8.00055 1.00007C8.00055 1.26543 7.89513 1.51993 7.70749 1.70757L3.41374 6.00007H18C20.121 6.00238 22.1545 6.84598 23.6543 8.34577C25.1541 9.84556 25.9977 11.879 26 14.0001Z" fill="black"/>
</svg>
