<svg width="51" height="33" viewBox="0 0 51 33" fill="none" xmlns="http://www.w3.org/2000/svg">
<path d="M38.9385 4.25879C39.5895 4.25879 40.1055 4.41016 40.4863 4.71289C40.8672 5.01562 41.0576 5.43392 41.0576 5.96777C41.0576 6.31934 40.9486 6.63997 40.7305 6.92969C40.5124 7.2194 40.1641 7.48307 39.6855 7.7207C40.265 7.9974 40.6768 8.28874 40.9209 8.59473C41.165 8.89746 41.2871 9.24902 41.2871 9.64941C41.2871 10.2419 41.0804 10.7155 40.667 11.0703C40.2536 11.4219 39.6872 11.5977 38.9678 11.5977C38.2061 11.5977 37.6201 11.4316 37.21 11.0996C36.7998 10.7643 36.5947 10.2907 36.5947 9.67871C36.5947 8.86165 37.0928 8.22526 38.0889 7.76953C37.6396 7.51562 37.3174 7.24219 37.1221 6.94922C36.9268 6.65299 36.8291 6.32259 36.8291 5.95801C36.8291 5.44043 37.0195 5.02865 37.4004 4.72266C37.7845 4.41341 38.2972 4.25879 38.9385 4.25879ZM37.3955 9.69824C37.3955 10.0889 37.5306 10.3932 37.8008 10.6113C38.0742 10.8294 38.4567 10.9385 38.9482 10.9385C39.4333 10.9385 39.8109 10.8245 40.0811 10.5967C40.3512 10.3688 40.4863 10.0563 40.4863 9.65918C40.4863 9.34342 40.3594 9.06348 40.1055 8.81934C39.8516 8.57194 39.4089 8.33268 38.7773 8.10156C38.2923 8.3099 37.9408 8.54102 37.7227 8.79492C37.5046 9.04557 37.3955 9.34668 37.3955 9.69824ZM38.9287 4.91797C38.5218 4.91797 38.2028 5.01562 37.9717 5.21094C37.7406 5.40625 37.625 5.66667 37.625 5.99219C37.625 6.29167 37.721 6.54883 37.9131 6.76367C38.1051 6.97852 38.46 7.19336 38.9775 7.4082C39.443 7.21289 39.7718 7.00293 39.9639 6.77832C40.1592 6.55371 40.2568 6.29167 40.2568 5.99219C40.2568 5.66341 40.138 5.40299 39.9004 5.21094C39.666 5.01562 39.3421 4.91797 38.9287 4.91797ZM47.0293 7.9209C47.0293 9.15462 46.834 10.0758 46.4434 10.6846C46.056 11.2933 45.4619 11.5977 44.6611 11.5977C43.8929 11.5977 43.3086 11.2868 42.9082 10.665C42.5078 10.04 42.3076 9.12533 42.3076 7.9209C42.3076 6.67741 42.5013 5.75456 42.8887 5.15234C43.276 4.55013 43.8669 4.24902 44.6611 4.24902C45.4359 4.24902 46.0234 4.56315 46.4238 5.19141C46.8275 5.81966 47.0293 6.72949 47.0293 7.9209ZM43.1279 7.9209C43.1279 8.95931 43.25 9.71615 43.4941 10.1914C43.7383 10.6634 44.1273 10.8994 44.6611 10.8994C45.2015 10.8994 45.5921 10.6602 45.833 10.1816C46.0771 9.69987 46.1992 8.94629 46.1992 7.9209C46.1992 6.89551 46.0771 6.14518 45.833 5.66992C45.5921 5.19141 45.2015 4.95215 44.6611 4.95215C44.1273 4.95215 43.7383 5.18815 43.4941 5.66016C43.25 6.12891 43.1279 6.88249 43.1279 7.9209Z" fill="#FF477E"/>
<path d="M13.5322 20C13.5322 20 14.0322 20.0714 6.53223 20.0714C-0.967773 20.0714 -0.967773 8 6.53223 8C14.0322 8 47.5322 8 47.5322 8M13.5322 20L9.07768 17.6429M13.5322 20L9.07768 22.5" stroke="#FF477E" stroke-linecap="round" stroke-linejoin="round"/>
<path d="M16.4763 21.2412C16.4763 20.6533 16.5173 20.0745 16.5994 19.5049C16.686 18.9352 16.8318 18.402 17.0369 17.9053C17.2419 17.4085 17.5245 16.971 17.8845 16.5928C18.2491 16.2145 18.7071 15.9183 19.2585 15.7041C19.81 15.4854 20.4731 15.376 21.2478 15.376C21.4483 15.376 21.6739 15.3851 21.9246 15.4033C22.1752 15.4215 22.3826 15.4512 22.5466 15.4922V16.8252C22.3689 16.7751 22.1729 16.7363 21.9587 16.709C21.7491 16.6816 21.5395 16.668 21.3298 16.668C20.4913 16.668 19.8373 16.8275 19.3679 17.1465C18.8985 17.4609 18.5636 17.8939 18.363 18.4453C18.1625 18.9922 18.0463 19.6188 18.0144 20.3252H18.0964C18.2332 20.0973 18.4041 19.8945 18.6091 19.7168C18.8142 19.5391 19.0649 19.3978 19.3611 19.293C19.6573 19.1836 20.0014 19.1289 20.3933 19.1289C20.9766 19.1289 21.4848 19.252 21.9177 19.498C22.3507 19.7396 22.6833 20.0905 22.9158 20.5508C23.1528 21.0111 23.2712 21.5693 23.2712 22.2256C23.2712 22.932 23.1368 23.5404 22.8679 24.0508C22.6036 24.5612 22.2253 24.9531 21.7332 25.2266C21.2455 25.5 20.6645 25.6367 19.99 25.6367C19.4932 25.6367 19.0307 25.5456 18.6023 25.3633C18.1785 25.181 17.807 24.9076 17.488 24.543C17.169 24.1784 16.9207 23.7227 16.7429 23.1758C16.5652 22.6243 16.4763 21.9795 16.4763 21.2412ZM19.9626 24.3105C20.4822 24.3105 20.8992 24.1419 21.2136 23.8047C21.5326 23.4629 21.6921 22.9411 21.6921 22.2393C21.6921 21.6696 21.5509 21.2184 21.2683 20.8857C20.9903 20.5531 20.571 20.3867 20.0105 20.3867C19.6277 20.3867 19.2927 20.4688 19.0056 20.6328C18.7185 20.7969 18.4952 21.0042 18.3357 21.2549C18.1807 21.5055 18.1033 21.7607 18.1033 22.0205C18.1033 22.2848 18.142 22.5514 18.2195 22.8203C18.297 23.0892 18.4132 23.3376 18.5681 23.5654C18.7231 23.7887 18.9167 23.9688 19.1492 24.1055C19.3816 24.2422 19.6528 24.3105 19.9626 24.3105ZM31.6042 23.3057H30.2507V25.5H28.6648V23.3057H24.1189V22.0889L28.6853 15.4785H30.2507V21.9727H31.6042V23.3057ZM28.6648 21.9727V19.4912C28.6648 19.2861 28.6671 19.0788 28.6716 18.8691C28.6807 18.6549 28.6899 18.4499 28.699 18.2539C28.7081 18.0579 28.7172 17.8779 28.7263 17.7139C28.7354 17.5452 28.7423 17.4062 28.7468 17.2969H28.6921C28.6056 17.4792 28.5098 17.666 28.405 17.8574C28.3002 18.0443 28.1886 18.2266 28.0701 18.4043L25.6091 21.9727H28.6648Z" fill="black"/>
<path d="M49.3361 14.0256C47.5013 12.4621 44.7726 12.7433 43.0884 14.481L42.4289 15.1607L41.7693 14.481C40.0885 12.7433 37.3564 12.4621 35.5216 14.0256C33.419 15.8203 33.3085 19.0412 35.1902 20.9865L41.6688 27.6761C42.0873 28.108 42.767 28.108 43.1855 27.6761L49.6642 20.9865C51.5492 19.0412 51.4387 15.8203 49.3361 14.0256Z" fill="#FF477E"/>
</svg>
