<svg width="64" height="33" viewBox="0 0 64 33" fill="none" xmlns="http://www.w3.org/2000/svg">
<path d="M41.0195 10.5977C39.6133 10.5977 38.6074 9.8457 38.5586 8.72266H39.4473C39.4961 9.39648 40.1699 9.81641 41.0098 9.81641C41.9375 9.81641 42.6211 9.30859 42.6211 8.57617C42.6211 7.80469 42.0059 7.25781 40.9023 7.25781H40.3262V6.48633H40.9023C41.7617 6.48633 42.3574 6.00781 42.3574 5.27539C42.3574 4.57227 41.8398 4.09375 41.0391 4.09375C40.2871 4.09375 39.5938 4.51367 39.5547 5.20703H38.7051C38.7539 4.08398 39.7891 3.33203 41.0488 3.33203C42.3965 3.33203 43.2168 4.21094 43.207 5.22656C43.2168 6.02734 42.748 6.62305 42.0059 6.82812V6.87695C42.9238 7.02344 43.4902 7.67773 43.4805 8.57617C43.4902 9.73828 42.4258 10.5977 41.0195 10.5977ZM47.0645 10.5977C45.4922 10.5977 44.5938 9.2793 44.5938 6.96484C44.5938 4.66992 45.5117 3.33203 47.0645 3.33203C48.6172 3.33203 49.5352 4.66992 49.5352 6.96484C49.5352 9.2793 48.627 10.5977 47.0645 10.5977ZM47.0645 9.81641C48.0801 9.81641 48.6758 8.79102 48.6758 6.96484C48.6758 5.13867 48.0801 4.09375 47.0645 4.09375C46.0488 4.09375 45.4434 5.13867 45.4434 6.96484C45.4434 8.79102 46.0391 9.81641 47.0645 9.81641ZM53.0215 10.5977C51.4492 10.5977 50.5508 9.2793 50.5508 6.96484C50.5508 4.66992 51.4688 3.33203 53.0215 3.33203C54.5742 3.33203 55.4922 4.66992 55.4922 6.96484C55.4922 9.2793 54.584 10.5977 53.0215 10.5977ZM53.0215 9.81641C54.0371 9.81641 54.6328 8.79102 54.6328 6.96484C54.6328 5.13867 54.0371 4.09375 53.0215 4.09375C52.0059 4.09375 51.4004 5.13867 51.4004 6.96484C51.4004 8.79102 51.9961 9.81641 53.0215 9.81641Z" fill="#FF477E"/>
<path d="M14 20C14 20 14.5 20.0714 7 20.0714C-0.5 20.0714 -0.5 8 7 8C14.5 8 56 8 56 8M14 20L9.54546 17.6429M14 20L9.54546 22.5" stroke="#FF477E" stroke-linecap="round" stroke-linejoin="round"/>
<path d="M18.2441 15.6016V25.5H16.1797V17.5566H16.125L13.8555 18.9785V17.1602L16.3027 15.6016H18.2441ZM24.1504 15.4648C26.2012 15.4785 28.1426 16.6953 28.1426 20.291C28.1562 23.6543 26.5566 25.6367 24.0684 25.6367C22.0723 25.6367 20.7188 24.3926 20.5137 22.7109H22.5371C22.7012 23.4355 23.2754 23.873 24.0684 23.873C25.4219 23.873 26.1328 22.6699 26.1328 20.6875H26.0508C25.5859 21.5625 24.6152 22.082 23.5078 22.082C21.7305 22.082 20.418 20.7422 20.4043 18.8965C20.4043 16.9004 21.9082 15.4512 24.1504 15.4648ZM24.1641 17.0781C23.1523 17.0781 22.4004 17.8574 22.4141 18.8418C22.4141 19.8125 23.1387 20.5781 24.1504 20.5781C25.1484 20.5781 25.9277 19.7852 25.9277 18.8281C25.9141 17.8848 25.1758 17.0781 24.1641 17.0781ZM33.3789 25.6367C30.9043 25.6367 29.4004 23.791 29.4004 20.5508C29.4004 17.3105 30.9043 15.4648 33.3789 15.4648C35.8535 15.4648 37.3574 17.3242 37.3574 20.5508C37.3574 23.8047 35.8535 25.6367 33.3789 25.6367ZM33.3789 23.9414C34.5273 23.9414 35.2656 22.834 35.252 20.5508C35.252 18.2949 34.5273 17.1465 33.3789 17.1465C32.2305 17.1465 31.5059 18.2949 31.5059 20.5508C31.4922 22.834 32.2305 23.9414 33.3789 23.9414Z" fill="black"/>
<path d="M56.4037 20.8053C53.7642 20.7397 53.0546 19.227 53.2149 16.9172C53.3917 14.3841 51.4813 12.1876 48.9489 12.0112C48.6588 11.9912 48.3727 11.9981 48.0941 12.0307C45.9403 12.2809 44.1991 14.0337 44.0429 16.2779C43.6733 21.5799 45.6861 26.0765 50.2265 28.4551C52.9626 29.8888 55.6326 30 56.3857 30C57.6992 30 58.8711 29.4604 59.7032 28.5981C60.5068 27.7668 60.9959 26.6371 60.9959 25.4024C60.9959 22.8657 58.9403 20.8081 56.4037 20.8053Z" fill="#FF477E"/>
<path d="M51.6091 14.7616C52.1016 15.6147 52.4657 16.2895 51.7483 16.7038C51.0309 17.118 50.5487 16.2891 50.0561 15.436C49.5636 14.5829 48.6923 14.0966 49.4097 13.6824C50.1272 13.2682 51.1165 13.9085 51.6091 14.7616Z" fill="#FEC7D7"/>
</svg>
