<svg width="57" height="33" viewBox="0 0 57 33" fill="none" xmlns="http://www.w3.org/2000/svg">
<path d="M43.8699 11.5H39.1775V10.8018L41.0574 8.91211C41.6303 8.33268 42.0079 7.91927 42.1902 7.67188C42.3725 7.42448 42.5092 7.18359 42.6003 6.94922C42.6915 6.71484 42.7371 6.46257 42.7371 6.19238C42.7371 5.81152 42.6215 5.51042 42.3904 5.28906C42.1593 5.06445 41.8386 4.95215 41.4285 4.95215C41.1322 4.95215 40.8507 5.00098 40.5837 5.09863C40.3201 5.19629 40.0255 5.3737 39.7 5.63086L39.2703 5.0791C39.9278 4.53223 40.644 4.25879 41.4187 4.25879C42.0893 4.25879 42.615 4.43132 42.9958 4.77637C43.3767 5.11816 43.5671 5.57878 43.5671 6.1582C43.5671 6.61068 43.4402 7.05827 43.1863 7.50098C42.9324 7.94368 42.4571 8.50358 41.7605 9.18066L40.198 10.709V10.748H43.8699V11.5ZM49.9294 9.85938H48.8699V11.5H48.0935V9.85938H44.6218V9.15137L48.0105 4.32227H48.8699V9.12207H49.9294V9.85938ZM48.0935 9.12207V6.74902C48.0935 6.28353 48.1098 5.75781 48.1423 5.17188H48.1033C47.947 5.48438 47.8005 5.74316 47.6638 5.94824L45.4324 9.12207H48.0935ZM55.3542 7.9209C55.3542 9.15462 55.1589 10.0758 54.7683 10.6846C54.3809 11.2933 53.7869 11.5977 52.9861 11.5977C52.2179 11.5977 51.6335 11.2868 51.2332 10.665C50.8328 10.04 50.6326 9.12533 50.6326 7.9209C50.6326 6.67741 50.8263 5.75456 51.2136 5.15234C51.601 4.55013 52.1918 4.24902 52.9861 4.24902C53.7608 4.24902 54.3484 4.56315 54.7488 5.19141C55.1524 5.81966 55.3542 6.72949 55.3542 7.9209ZM51.4529 7.9209C51.4529 8.95931 51.575 9.71615 51.8191 10.1914C52.0632 10.6634 52.4522 10.8994 52.9861 10.8994C53.5264 10.8994 53.9171 10.6602 54.158 10.1816C54.4021 9.69987 54.5242 8.94629 54.5242 7.9209C54.5242 6.89551 54.4021 6.14518 54.158 5.66992C53.9171 5.19141 53.5264 4.95215 52.9861 4.95215C52.4522 4.95215 52.0632 5.18815 51.8191 5.66016C51.575 6.12891 51.4529 6.88249 51.4529 7.9209Z" fill="#FF477E"/>
<path d="M13.8572 20C13.8572 20 14.3572 20.0714 6.85718 20.0714C-0.642822 20.0714 -0.642822 8 6.85718 8C14.3572 8 55.8572 8 55.8572 8M13.8572 20L9.40263 17.6429M13.8572 20L9.40263 22.5" stroke="#FF477E" stroke-linecap="round" stroke-linejoin="round"/>
<path d="M19.1746 25.5H17.5613V19.0674C17.5613 18.8532 17.5636 18.639 17.5681 18.4248C17.5727 18.2106 17.5772 18.001 17.5818 17.7959C17.5909 17.5908 17.6023 17.3949 17.616 17.208C17.5203 17.3128 17.4018 17.4268 17.2605 17.5498C17.1238 17.6729 16.9779 17.8005 16.823 17.9326L15.6746 18.8486L14.8679 17.8301L17.8347 15.5059H19.1746V25.5ZM27.1863 25.5H25.573V19.0674C25.573 18.8532 25.5753 18.639 25.5798 18.4248C25.5844 18.2106 25.5889 18.001 25.5935 17.7959C25.6026 17.5908 25.614 17.3949 25.6277 17.208C25.532 17.3128 25.4135 17.4268 25.2722 17.5498C25.1355 17.6729 24.9897 17.8005 24.8347 17.9326L23.6863 18.8486L22.8796 17.8301L25.8464 15.5059H27.1863V25.5ZM37.2419 20.4961C37.2419 21.3027 37.1781 22.0251 37.0505 22.6631C36.9275 23.2965 36.7315 23.8343 36.4626 24.2764C36.1938 24.7184 35.8429 25.0557 35.4099 25.2881C34.977 25.5205 34.4529 25.6367 33.8376 25.6367C33.0675 25.6367 32.4317 25.4339 31.9304 25.0283C31.4291 24.6182 31.0577 24.0303 30.8162 23.2646C30.5746 22.4945 30.4539 21.5716 30.4539 20.4961C30.4539 19.4206 30.5632 18.5 30.782 17.7344C31.0053 16.9642 31.3653 16.374 31.8621 15.9639C32.3588 15.5537 33.0173 15.3486 33.8376 15.3486C34.6124 15.3486 35.2504 15.5537 35.7517 15.9639C36.2576 16.3695 36.6313 16.9574 36.8728 17.7275C37.1189 18.4932 37.2419 19.416 37.2419 20.4961ZM32.074 20.4961C32.074 21.3392 32.1287 22.0433 32.238 22.6084C32.352 23.1735 32.5388 23.5973 32.7986 23.8799C33.0583 24.1579 33.4047 24.2969 33.8376 24.2969C34.2706 24.2969 34.6169 24.1579 34.8767 23.8799C35.1365 23.6019 35.3233 23.1803 35.4373 22.6152C35.5557 22.0501 35.615 21.3438 35.615 20.4961C35.615 19.6576 35.558 18.9557 35.4441 18.3906C35.3302 17.8255 35.1433 17.4017 34.8835 17.1191C34.6238 16.832 34.2751 16.6885 33.8376 16.6885C33.4001 16.6885 33.0515 16.832 32.7917 17.1191C32.5365 17.4017 32.352 17.8255 32.238 18.3906C32.1287 18.9557 32.074 19.6576 32.074 20.4961Z" fill="black"/>
<path d="M55.3361 14.0256C53.5013 12.4621 50.7726 12.7433 49.0884 14.481L48.4289 15.1607L47.7693 14.481C46.0885 12.7433 43.3564 12.4621 41.5216 14.0256C39.419 15.8203 39.3085 19.0412 41.1902 20.9865L47.6688 27.6761C48.0873 28.108 48.767 28.108 49.1855 27.6761L55.6642 20.9865C57.5492 19.0412 57.4387 15.8203 55.3361 14.0256Z" fill="#FF477E"/>
</svg>
