<svg width="61" height="33" viewBox="0 0 61 33" fill="none" xmlns="http://www.w3.org/2000/svg">
<path d="M38.7539 10.5L38.7441 9.85547L41.1562 7.31641C41.9961 6.42773 42.3965 5.94922 42.3965 5.29492C42.3965 4.57227 41.7812 4.09375 40.9902 4.09375C40.1504 4.09375 39.6133 4.63086 39.6133 5.42188H38.7832C38.7734 4.17188 39.7402 3.33203 41.0195 3.33203C42.2988 3.33203 43.2168 4.19141 43.2168 5.29492C43.2168 6.08594 42.8457 6.70117 41.5957 7.99023L39.9746 9.66016V9.71875H43.3438V10.5H38.7539ZM44.291 9.05469V8.33203L47.4746 3.42969H48.5586V8.2832H49.5449V9.05469H48.5586V10.5H47.7188V9.05469H44.291ZM45.2383 8.2832H47.7188V4.54297H47.6309L45.2383 8.22461V8.2832ZM53.0215 10.5977C51.4492 10.5977 50.5508 9.2793 50.5508 6.96484C50.5508 4.66992 51.4688 3.33203 53.0215 3.33203C54.5742 3.33203 55.4922 4.66992 55.4922 6.96484C55.4922 9.2793 54.584 10.5977 53.0215 10.5977ZM53.0215 9.81641C54.0371 9.81641 54.6328 8.79102 54.6328 6.96484C54.6328 5.13867 54.0371 4.09375 53.0215 4.09375C52.0059 4.09375 51.4004 5.13867 51.4004 6.96484C51.4004 8.79102 51.9961 9.81641 53.0215 9.81641Z" fill="#FF477E"/>
<path d="M14 20C14 20 14.5 20.0714 7 20.0714C-0.5 20.0714 -0.5 8 7 8C14.5 8 56 8 56 8M14 20L9.54546 17.6429M14 20L9.54546 22.5" stroke="#FF477E" stroke-linecap="round" stroke-linejoin="round"/>
<path d="M18.0469 15.6016V25.5H16.2559V17.3379H16.2012L13.8906 18.8145V17.1875L16.3379 15.6016H18.0469ZM24.4727 15.6016V25.5H22.6816V17.3379H22.627L20.3164 18.8145V17.1875L22.7637 15.6016H24.4727ZM30.5293 25.6367C28.1504 25.6367 26.7285 23.791 26.7285 20.5508C26.7285 17.3242 28.1504 15.4648 30.5293 15.4648C32.8945 15.4648 34.3301 17.3242 34.3301 20.5508C34.3301 23.791 32.9082 25.6367 30.5293 25.6367ZM30.5293 24.1465C31.7734 24.1465 32.5391 22.9297 32.5391 20.5508C32.5391 18.1855 31.7598 16.9414 30.5293 16.9414C29.2988 16.9414 28.5195 18.1855 28.5195 20.5508C28.5195 22.9297 29.2852 24.1465 30.5293 24.1465Z" fill="black"/>
<path d="M53.4037 20.8053C50.7642 20.7397 50.0546 19.227 50.2149 16.9172C50.3917 14.3841 48.4813 12.1876 45.9489 12.0112C45.6588 11.9912 45.3727 11.9981 45.0941 12.0307C42.9403 12.2809 41.1991 14.0337 41.0429 16.2779C40.6733 21.5799 42.6861 26.0765 47.2265 28.4551C49.9626 29.8888 52.6326 30 53.3857 30C54.6992 30 55.8711 29.4604 56.7032 28.5981C57.5068 27.7668 57.9959 26.6371 57.9959 25.4024C57.9959 22.8657 55.9403 20.8081 53.4037 20.8053Z" fill="#FF477E"/>
</svg>
