<svg width="58" height="32" viewBox="0 0 58 32" fill="none" xmlns="http://www.w3.org/2000/svg">
<path d="M38.1016 10.0977C36.6953 10.0977 35.6895 9.3457 35.6406 8.22266H36.5293C36.5781 8.89648 37.252 9.31641 38.0918 9.31641C39.0195 9.31641 39.7031 8.80859 39.7031 8.07617C39.7031 7.30469 39.0879 6.75781 37.9844 6.75781H37.4082V5.98633H37.9844C38.8438 5.98633 39.4395 5.50781 39.4395 4.77539C39.4395 4.07227 38.9219 3.59375 38.1211 3.59375C37.3691 3.59375 36.6758 4.01367 36.6367 4.70703H35.7871C35.8359 3.58398 36.8711 2.83203 38.1309 2.83203C39.4785 2.83203 40.2988 3.71094 40.2891 4.72656C40.2988 5.52734 39.8301 6.12305 39.0879 6.32812V6.37695C40.0059 6.52344 40.5723 7.17773 40.5625 8.07617C40.5723 9.23828 39.5078 10.0977 38.1016 10.0977ZM44.1465 10.0977C42.5742 10.0977 41.6758 8.7793 41.6758 6.46484C41.6758 4.16992 42.5938 2.83203 44.1465 2.83203C45.6992 2.83203 46.6172 4.16992 46.6172 6.46484C46.6172 8.7793 45.709 10.0977 44.1465 10.0977ZM44.1465 9.31641C45.1621 9.31641 45.7578 8.29102 45.7578 6.46484C45.7578 4.63867 45.1621 3.59375 44.1465 3.59375C43.1309 3.59375 42.5254 4.63867 42.5254 6.46484C42.5254 8.29102 43.1211 9.31641 44.1465 9.31641Z" fill="#FF477E"/>
<path d="M13.125 19.5C13.125 19.5 13.625 19.5714 6.125 19.5714C-1.375 19.5714 -1.375 7.5 6.125 7.5C13.625 7.5 47.125 7.5 47.125 7.5M13.125 19.5L8.67046 17.1429M13.125 19.5L8.67046 22" stroke="#FF477E" stroke-linecap="round" stroke-linejoin="round"/>
<path d="M14.9922 25L14.9785 23.5098L18.5332 20.2422C19.4629 19.3535 19.9551 18.8066 19.9551 18.0273C19.9551 17.1523 19.2852 16.6055 18.3828 16.6055C17.4531 16.6055 16.8516 17.1934 16.8516 18.1367H14.8965C14.8828 16.1953 16.3184 14.9648 18.4102 14.9648C20.5293 14.9648 21.9375 16.168 21.9375 17.8906C21.9375 19.0117 21.3906 19.9414 19.3535 21.7871L17.8496 23.25V23.3047H22.0742V25H14.9922ZM27.3789 25.1367C24.9043 25.1367 23.4004 23.291 23.4004 20.0508C23.4004 16.8105 24.9043 14.9648 27.3789 14.9648C29.8535 14.9648 31.3574 16.8242 31.3574 20.0508C31.3574 23.3047 29.8535 25.1367 27.3789 25.1367ZM27.3789 23.4414C28.5273 23.4414 29.2656 22.334 29.252 20.0508C29.252 17.7949 28.5273 16.6465 27.3789 16.6465C26.2305 16.6465 25.5059 17.7949 25.5059 20.0508C25.4922 22.334 26.2305 23.4414 27.3789 23.4414Z" fill="black"/>
<path d="M50.4037 20.3053C47.7642 20.2397 47.0546 18.727 47.2149 16.4172C47.3917 13.8841 45.4813 11.6876 42.9489 11.5112C42.6588 11.4912 42.3727 11.4981 42.0941 11.5307C39.9403 11.7809 38.1991 13.5337 38.0429 15.7779C37.6733 21.0799 39.6861 25.5765 44.2265 27.9551C46.9626 29.3888 49.6326 29.5 50.3857 29.5C51.6992 29.5 52.8711 28.9604 53.7032 28.0981C54.5068 27.2668 54.9959 26.1371 54.9959 24.9024C54.9959 22.3657 52.9403 20.3081 50.4037 20.3053Z" fill="#FF477E"/>
<path d="M45.6091 14.2616C46.1016 15.1147 46.4657 15.7895 45.7483 16.2038C45.0309 16.618 44.5487 15.7891 44.0561 14.936C43.5636 14.0829 42.6923 13.5966 43.4097 13.1824C44.1272 12.7682 45.1165 13.4085 45.6091 14.2616Z" fill="#FEC7D7"/>
</svg>
