<svg width="60" height="33" viewBox="0 0 60 33" fill="none" xmlns="http://www.w3.org/2000/svg">
<path d="M38.6809 10.5977C37.1965 10.5977 36.1614 9.77734 36.1711 8.625C36.1614 7.70703 36.7961 6.95508 37.6067 6.82812V6.78906C36.9036 6.62305 36.4446 5.97852 36.4446 5.20703C36.4446 4.12305 37.3918 3.33203 38.6809 3.33203C39.97 3.33203 40.9172 4.12305 40.927 5.20703C40.9172 5.97852 40.4485 6.62305 39.7551 6.78906V6.82812C40.5559 6.95508 41.1907 7.70703 41.2004 8.625C41.1907 9.77734 40.1555 10.5977 38.6809 10.5977ZM38.6809 9.82617C39.6965 9.82617 40.3215 9.31836 40.3215 8.57617C40.3215 7.79492 39.6282 7.21875 38.6809 7.21875C37.7336 7.21875 37.0305 7.79492 37.05 8.57617C37.0305 9.31836 37.6653 9.82617 38.6809 9.82617ZM38.6809 6.47656C39.4817 6.47656 40.0676 5.98828 40.0676 5.27539C40.0676 4.57227 39.511 4.09375 38.6809 4.09375C37.8411 4.09375 37.2942 4.57227 37.2942 5.27539C37.2942 5.98828 37.8704 6.47656 38.6809 6.47656ZM44.6965 10.5977C43.1243 10.5977 42.2258 9.2793 42.2258 6.96484C42.2258 4.66992 43.1438 3.33203 44.6965 3.33203C46.2493 3.33203 47.1672 4.66992 47.1672 6.96484C47.1672 9.2793 46.259 10.5977 44.6965 10.5977ZM44.6965 9.81641C45.7122 9.81641 46.3079 8.79102 46.3079 6.96484C46.3079 5.13867 45.7122 4.09375 44.6965 4.09375C43.6809 4.09375 43.0754 5.13867 43.0754 6.96484C43.0754 8.79102 43.6711 9.81641 44.6965 9.81641Z" fill="#FF477E"/>
<path d="M13.675 20C13.675 20 14.175 20.0714 6.67505 20.0714C-0.824951 20.0714 -0.824951 8 6.67505 8C14.175 8 47.675 8 47.675 8M13.675 20L9.2205 17.6429M13.675 20L9.2205 22.5" stroke="#FF477E" stroke-linecap="round" stroke-linejoin="round"/>
<path d="M20.4102 25.6367C18.3594 25.623 16.418 24.4062 16.418 20.7832C16.418 17.4473 18.0176 15.4648 20.4922 15.4648C22.4883 15.4648 23.8418 16.7227 24.0469 18.3496H22.0234C21.8594 17.6523 21.2852 17.2285 20.4922 17.2285C19.1523 17.2285 18.4414 18.4453 18.4277 20.3867H18.5234C18.9746 19.5117 19.959 18.9922 21.0527 18.9922C22.8301 18.9922 24.1562 20.332 24.1562 22.1914C24.1562 24.2012 22.6387 25.6504 20.4102 25.6367ZM20.3965 24.0098C21.4082 24.0098 22.1602 23.2441 22.1602 22.2461C22.1602 21.2617 21.4355 20.4824 20.4238 20.4824C19.4121 20.4824 18.6465 21.2754 18.6328 22.2461C18.6465 23.2168 19.3848 24.0098 20.3965 24.0098ZM25.4141 23.75V22.123L29.5977 15.6016H32.1816V22.0957H33.4395V23.75H32.1816V25.5H30.2266V23.75H25.4141ZM27.4922 22.0957H30.2539V17.8574H30.1582L27.4922 22.0137V22.0957Z" fill="black"/>
<path d="M52.4037 20.8053C49.7642 20.7397 49.0546 19.227 49.2149 16.9172C49.3917 14.3841 47.4813 12.1876 44.9489 12.0112C44.6588 11.9912 44.3727 11.9981 44.0941 12.0307C41.9403 12.2809 40.1991 14.0337 40.0429 16.2779C39.6733 21.5799 41.6861 26.0765 46.2265 28.4551C48.9626 29.8888 51.6326 30 52.3857 30C53.6992 30 54.8711 29.4604 55.7032 28.5981C56.5068 27.7668 56.9959 26.6371 56.9959 25.4024C56.9959 22.8657 54.9403 20.8081 52.4037 20.8053Z" fill="#FF477E"/>
<path d="M47.6091 14.7616C48.1016 15.6147 48.4657 16.2895 47.7483 16.7038C47.0309 17.118 46.5487 16.2891 46.0561 15.436C45.5636 14.5829 44.6923 14.0966 45.4097 13.6824C46.1272 13.2682 47.1165 13.9085 47.6091 14.7616Z" fill="#FEC7D7"/>
</svg>
