<svg width="62" height="33" viewBox="0 0 62 33" fill="none" xmlns="http://www.w3.org/2000/svg">
<path d="M38.7539 10.5L38.7441 9.85547L41.1562 7.31641C41.9961 6.42773 42.3965 5.94922 42.3965 5.29492C42.3965 4.57227 41.7812 4.09375 40.9902 4.09375C40.1504 4.09375 39.6133 4.63086 39.6133 5.42188H38.7832C38.7734 4.17188 39.7402 3.33203 41.0195 3.33203C42.2988 3.33203 43.2168 4.19141 43.2168 5.29492C43.2168 6.08594 42.8457 6.70117 41.5957 7.99023L39.9746 9.66016V9.71875H43.3438V10.5H38.7539ZM44.291 9.05469V8.33203L47.4746 3.42969H48.5586V8.2832H49.5449V9.05469H48.5586V10.5H47.7188V9.05469H44.291ZM45.2383 8.2832H47.7188V4.54297H47.6309L45.2383 8.22461V8.2832ZM53.0215 10.5977C51.4492 10.5977 50.5508 9.2793 50.5508 6.96484C50.5508 4.66992 51.4688 3.33203 53.0215 3.33203C54.5742 3.33203 55.4922 4.66992 55.4922 6.96484C55.4922 9.2793 54.584 10.5977 53.0215 10.5977ZM53.0215 9.81641C54.0371 9.81641 54.6328 8.79102 54.6328 6.96484C54.6328 5.13867 54.0371 4.09375 53.0215 4.09375C52.0059 4.09375 51.4004 5.13867 51.4004 6.96484C51.4004 8.79102 51.9961 9.81641 53.0215 9.81641Z" fill="#FF477E"/>
<path d="M14 20C14 20 14.5 20.0714 7 20.0714C-0.5 20.0714 -0.5 8 7 8C14.5 8 56 8 56 8M14 20L9.54546 17.6429M14 20L9.54546 22.5" stroke="#FF477E" stroke-linecap="round" stroke-linejoin="round"/>
<path d="M18.6777 15.6016V25.5H16.6133V17.5566H16.5586L14.2891 18.9785V17.1602L16.7363 15.6016H18.6777ZM25.2402 15.6016V25.5H23.1758V17.5566H23.1211L20.8516 18.9785V17.1602L23.2988 15.6016H25.2402ZM31.3789 25.6367C28.9043 25.6367 27.4004 23.791 27.4004 20.5508C27.4004 17.3105 28.9043 15.4648 31.3789 15.4648C33.8535 15.4648 35.3574 17.3242 35.3574 20.5508C35.3574 23.8047 33.8535 25.6367 31.3789 25.6367ZM31.3789 23.9414C32.5273 23.9414 33.2656 22.834 33.252 20.5508C33.252 18.2949 32.5273 17.1465 31.3789 17.1465C30.2305 17.1465 29.5059 18.2949 29.5059 20.5508C29.4922 22.834 30.2305 23.9414 31.3789 23.9414Z" fill="black"/>
<path d="M54.4037 20.8053C51.7642 20.7397 51.0546 19.227 51.2149 16.9172C51.3917 14.3841 49.4813 12.1876 46.9489 12.0112C46.6588 11.9912 46.3727 11.9981 46.0941 12.0307C43.9403 12.2809 42.1991 14.0337 42.0429 16.2779C41.6733 21.5799 43.6861 26.0765 48.2265 28.4551C50.9626 29.8888 53.6326 30 54.3857 30C55.6992 30 56.8711 29.4604 57.7032 28.5981C58.5068 27.7668 58.9959 26.6371 58.9959 25.4024C58.9959 22.8657 56.9403 20.8081 54.4037 20.8053Z" fill="#FF477E"/>
<path d="M49.6091 14.7616C50.1016 15.6147 50.4657 16.2895 49.7483 16.7038C49.0309 17.118 48.5487 16.2891 48.0561 15.436C47.5636 14.5829 46.6923 14.0966 47.4097 13.6824C48.1272 13.2682 49.1165 13.9085 49.6091 14.7616Z" fill="#FEC7D7"/>
</svg>
