<svg width="64" height="33" viewBox="0 0 64 33" fill="none" xmlns="http://www.w3.org/2000/svg">
<path d="M41.0195 10.5977C39.6133 10.5977 38.6074 9.8457 38.5586 8.72266H39.4473C39.4961 9.39648 40.1699 9.81641 41.0098 9.81641C41.9375 9.81641 42.6211 9.30859 42.6211 8.57617C42.6211 7.80469 42.0059 7.25781 40.9023 7.25781H40.3262V6.48633H40.9023C41.7617 6.48633 42.3574 6.00781 42.3574 5.27539C42.3574 4.57227 41.8398 4.09375 41.0391 4.09375C40.2871 4.09375 39.5938 4.51367 39.5547 5.20703H38.7051C38.7539 4.08398 39.7891 3.33203 41.0488 3.33203C42.3965 3.33203 43.2168 4.21094 43.207 5.22656C43.2168 6.02734 42.748 6.62305 42.0059 6.82812V6.87695C42.9238 7.02344 43.4902 7.67773 43.4805 8.57617C43.4902 9.73828 42.4258 10.5977 41.0195 10.5977ZM47.0645 10.5977C45.4922 10.5977 44.5938 9.2793 44.5938 6.96484C44.5938 4.66992 45.5117 3.33203 47.0645 3.33203C48.6172 3.33203 49.5352 4.66992 49.5352 6.96484C49.5352 9.2793 48.627 10.5977 47.0645 10.5977ZM47.0645 9.81641C48.0801 9.81641 48.6758 8.79102 48.6758 6.96484C48.6758 5.13867 48.0801 4.09375 47.0645 4.09375C46.0488 4.09375 45.4434 5.13867 45.4434 6.96484C45.4434 8.79102 46.0391 9.81641 47.0645 9.81641ZM53.0215 10.5977C51.4492 10.5977 50.5508 9.2793 50.5508 6.96484C50.5508 4.66992 51.4688 3.33203 53.0215 3.33203C54.5742 3.33203 55.4922 4.66992 55.4922 6.96484C55.4922 9.2793 54.584 10.5977 53.0215 10.5977ZM53.0215 9.81641C54.0371 9.81641 54.6328 8.79102 54.6328 6.96484C54.6328 5.13867 54.0371 4.09375 53.0215 4.09375C52.0059 4.09375 51.4004 5.13867 51.4004 6.96484C51.4004 8.79102 51.9961 9.81641 53.0215 9.81641Z" fill="#FF477E"/>
<path d="M14 20C14 20 14.5 20.0714 7 20.0714C-0.5 20.0714 -0.5 8 7 8C14.5 8 56 8 56 8M14 20L9.54546 17.6429M14 20L9.54546 22.5" stroke="#FF477E" stroke-linecap="round" stroke-linejoin="round"/>
<path d="M18.6133 15.6016V25.5H16.8223V17.3379H16.7676L14.457 18.8145V17.1875L16.9043 15.6016H18.6133ZM24.5332 15.4648C26.4746 15.4785 28.3887 16.627 28.4023 20.25C28.4023 23.668 26.8574 25.6367 24.4238 25.6367C22.5098 25.6367 21.1973 24.4473 20.9785 22.8066H22.7422C22.9199 23.5859 23.5215 24.0918 24.4238 24.0918C25.8594 24.0918 26.666 22.8203 26.6797 20.7012H26.5703C26.0645 21.5625 25.1211 22.0684 24.0273 22.0684C22.2637 22.0684 20.8965 20.7285 20.8828 18.8555C20.8828 16.9141 22.332 15.4512 24.5332 15.4648ZM24.5469 16.9004C23.4395 16.9004 22.6055 17.7617 22.6191 18.8145C22.6191 19.8809 23.4121 20.7148 24.5195 20.7148C25.6133 20.7148 26.4746 19.8262 26.4609 18.8008C26.4609 17.7891 25.6543 16.9004 24.5469 16.9004ZM33.5293 25.6367C31.1504 25.6367 29.7285 23.791 29.7285 20.5508C29.7285 17.3242 31.1504 15.4648 33.5293 15.4648C35.8945 15.4648 37.3301 17.3242 37.3301 20.5508C37.3301 23.791 35.9082 25.6367 33.5293 25.6367ZM33.5293 24.1465C34.7734 24.1465 35.5391 22.9297 35.5391 20.5508C35.5391 18.1855 34.7598 16.9414 33.5293 16.9414C32.2988 16.9414 31.5195 18.1855 31.5195 20.5508C31.5195 22.9297 32.2852 24.1465 33.5293 24.1465Z" fill="black"/>
<path d="M56.4037 20.8053C53.7642 20.7397 53.0546 19.227 53.2149 16.9172C53.3917 14.3841 51.4813 12.1876 48.9489 12.0112C48.6588 11.9912 48.3727 11.9981 48.0941 12.0307C45.9403 12.2809 44.1991 14.0337 44.0429 16.2779C43.6733 21.5799 45.6861 26.0765 50.2265 28.4551C52.9626 29.8888 55.6326 30 56.3857 30C57.6992 30 58.8711 29.4604 59.7032 28.5981C60.5068 27.7668 60.9959 26.6371 60.9959 25.4024C60.9959 22.8657 58.9403 20.8081 56.4037 20.8053Z" fill="#FF477E"/>
</svg>
