<svg width="59" height="33" viewBox="0 0 59 33" fill="none" xmlns="http://www.w3.org/2000/svg">
<path d="M38.6809 10.5977C37.1965 10.5977 36.1614 9.77734 36.1711 8.625C36.1614 7.70703 36.7961 6.95508 37.6067 6.82812V6.78906C36.9036 6.62305 36.4446 5.97852 36.4446 5.20703C36.4446 4.12305 37.3918 3.33203 38.6809 3.33203C39.97 3.33203 40.9172 4.12305 40.927 5.20703C40.9172 5.97852 40.4485 6.62305 39.7551 6.78906V6.82812C40.5559 6.95508 41.1907 7.70703 41.2004 8.625C41.1907 9.77734 40.1555 10.5977 38.6809 10.5977ZM38.6809 9.82617C39.6965 9.82617 40.3215 9.31836 40.3215 8.57617C40.3215 7.79492 39.6282 7.21875 38.6809 7.21875C37.7336 7.21875 37.0305 7.79492 37.05 8.57617C37.0305 9.31836 37.6653 9.82617 38.6809 9.82617ZM38.6809 6.47656C39.4817 6.47656 40.0676 5.98828 40.0676 5.27539C40.0676 4.57227 39.511 4.09375 38.6809 4.09375C37.8411 4.09375 37.2942 4.57227 37.2942 5.27539C37.2942 5.98828 37.8704 6.47656 38.6809 6.47656ZM44.6965 10.5977C43.1243 10.5977 42.2258 9.2793 42.2258 6.96484C42.2258 4.66992 43.1438 3.33203 44.6965 3.33203C46.2493 3.33203 47.1672 4.66992 47.1672 6.96484C47.1672 9.2793 46.259 10.5977 44.6965 10.5977ZM44.6965 9.81641C45.7122 9.81641 46.3079 8.79102 46.3079 6.96484C46.3079 5.13867 45.7122 4.09375 44.6965 4.09375C43.6809 4.09375 43.0754 5.13867 43.0754 6.96484C43.0754 8.79102 43.6711 9.81641 44.6965 9.81641Z" fill="#FF477E"/>
<path d="M13.675 20C13.675 20 14.175 20.0714 6.67505 20.0714C-0.824951 20.0714 -0.824951 8 6.67505 8C14.175 8 47.675 8 47.675 8M13.675 20L9.2205 17.6429M13.675 20L9.2205 22.5" stroke="#FF477E" stroke-linecap="round" stroke-linejoin="round"/>
<path d="M19.6289 25.6367C17.7012 25.623 15.7598 24.4746 15.7734 20.8242C15.7734 17.4336 17.3184 15.4648 19.7383 15.4648C21.6523 15.4648 22.9648 16.668 23.1836 18.2676H21.4199C21.2422 17.5156 20.6406 17.0098 19.7383 17.0098C18.3027 17.0098 17.4961 18.2812 17.4961 20.3594H17.5918C18.0977 19.5117 19.0547 19.0059 20.1348 19.0059C21.9121 19.0059 23.2793 20.3457 23.2793 22.2188C23.2793 24.1875 21.8164 25.6504 19.6289 25.6367ZM19.6289 24.2012C20.7363 24.2012 21.5566 23.3398 21.5566 22.2598C21.5566 21.207 20.75 20.3594 19.6562 20.3594C18.5488 20.3594 17.7012 21.2344 17.6875 22.2734C17.7012 23.3125 18.5078 24.2012 19.6289 24.2012ZM24.6055 23.6543V22.2324L28.8848 15.6016H31.0996V22.1914H32.3984V23.6543H31.0996V25.5H29.4043V23.6543H24.6055ZM26.4238 22.1914H29.4316V17.625H29.3223L26.4238 22.123V22.1914Z" fill="black"/>
<path d="M51.4037 20.8053C48.7642 20.7397 48.0546 19.227 48.2149 16.9172C48.3917 14.3841 46.4813 12.1876 43.9489 12.0112C43.6588 11.9912 43.3727 11.9981 43.0941 12.0307C40.9403 12.2809 39.1991 14.0337 39.0429 16.2779C38.6733 21.5799 40.6861 26.0765 45.2265 28.4551C47.9626 29.8888 50.6326 30 51.3857 30C52.6992 30 53.8711 29.4604 54.7032 28.5981C55.5068 27.7668 55.9959 26.6371 55.9959 25.4024C55.9959 22.8657 53.9403 20.8081 51.4037 20.8053Z" fill="#FF477E"/>
</svg>
