<svg width="24" height="24" viewBox="0 0 24 24" fill="none" xmlns="http://www.w3.org/2000/svg">
<g id="undo 1" clip-path="url(#clip0_2975_47382)">
<g id="Layer 2">
<g id="undo">
<path id="background" d="M12 24C18.6274 24 24 18.6274 24 12C24 5.37258 18.6274 0 12 0C5.37258 0 0 5.37258 0 12C0 18.6274 5.37258 24 12 24Z" fill="#FFC107"/>
<path id="Vector" d="M9.15797 8.24341V7.54732C9.15793 7.44458 9.12954 7.34384 9.07592 7.2562C9.02231 7.16855 8.94555 7.09741 8.85409 7.05059C8.76264 7.00377 8.66004 6.9831 8.55759 6.99085C8.45514 6.9986 8.35681 7.03447 8.27344 7.09451L5.97094 8.75529C5.89921 8.80702 5.8408 8.87504 5.80051 8.95377C5.76022 9.0325 5.73922 9.11967 5.73922 9.2081C5.73922 9.29654 5.76022 9.38371 5.80051 9.46243C5.8408 9.54116 5.89921 9.60918 5.97094 9.66091L8.27344 11.3217C8.35677 11.3819 8.45512 11.4179 8.55763 11.4258C8.66015 11.4336 8.76283 11.413 8.85435 11.3661C8.94586 11.3193 9.02265 11.248 9.07623 11.1603C9.12981 11.0725 9.1581 10.9717 9.15797 10.8689V10.2192H13.9444C14.5825 10.2192 15.1945 10.4727 15.6457 10.9239C16.097 11.3752 16.3505 11.9872 16.3505 12.6253C16.3505 13.2634 16.097 13.8754 15.6457 14.3267C15.1945 14.7779 14.5825 15.0314 13.9444 15.0314H6.21C6.13918 15.0314 6.06905 15.0454 6.00364 15.0725C5.93823 15.0997 5.87882 15.1395 5.82883 15.1897C5.77883 15.2398 5.73923 15.2994 5.7123 15.3649C5.68537 15.4304 5.67163 15.5006 5.67188 15.5714V16.4723C5.67182 16.543 5.68569 16.6131 5.71271 16.6784C5.73972 16.7437 5.77935 16.8031 5.82933 16.8531C5.8793 16.9032 5.93864 16.9428 6.00396 16.9699C6.06928 16.997 6.1393 17.0109 6.21 17.0109H13.9444C15.107 17.0109 16.222 16.5491 17.0442 15.7269C17.8663 14.9048 18.3281 13.7898 18.3281 12.6272C18.3281 11.4645 17.8663 10.3495 17.0442 9.52738C16.222 8.70527 15.107 8.24341 13.9444 8.24341H9.15797Z" fill="white"/>
</g>
</g>
</g>
<defs>
<clipPath id="clip0_2975_47382">
<rect width="24" height="24" fill="white"/>
</clipPath>
</defs>
</svg>
