<svg width="58" height="58" viewBox="0 0 58 58" fill="none" xmlns="http://www.w3.org/2000/svg">
<path d="M39.4587 29.725C33.1899 29.5692 31.5048 25.9767 31.8853 20.4908C32.3053 14.4747 27.768 9.25797 21.7537 8.83911C21.0646 8.79163 20.3851 8.80807 19.7234 8.88538C14.6083 9.47957 10.4728 13.6425 10.102 18.9725C9.22411 31.5648 14.0044 42.2443 24.788 47.8933C31.2862 51.2983 37.6274 51.5625 39.4161 51.5625C42.5355 51.5625 45.3189 50.281 47.2951 48.233C49.2037 46.2587 50.3652 43.5757 50.3652 40.6432C50.3652 34.6185 45.4833 29.7317 39.4587 29.725Z" fill="#FF477E"/>
<path d="M28.0716 15.3717C29.2413 17.3978 30.1061 19.0006 28.4022 19.9844C26.6983 20.9682 25.5531 18.9997 24.3833 16.9736C23.2135 14.9474 21.1442 13.7924 22.8481 12.8087C24.552 11.8249 26.9018 13.3456 28.0716 15.3717Z" fill="#FEC7D7"/>
</svg>
