<svg width="15" height="12" viewBox="0 0 15 12" fill="none" xmlns="http://www.w3.org/2000/svg">
<path d="M13.7467 5.4938H12.4416L13.7118 1.51387C13.7379 1.44017 13.752 1.36055 13.7533 1.27975C13.7546 1.19896 13.743 1.11867 13.7194 1.04368C13.6957 0.968693 13.6604 0.900547 13.6156 0.843324C13.5707 0.786101 13.5172 0.740977 13.4584 0.710653C13.3995 0.680328 13.3364 0.665427 13.2729 0.66684C13.2094 0.668253 13.1468 0.685951 13.0887 0.718876C13.0307 0.751801 12.9785 0.799276 12.9353 0.858459C12.892 0.917642 12.8586 0.987317 12.837 1.06331L11.4204 5.4938H8.98784L7.57118 1.06331C7.53578 0.952668 7.47527 0.857959 7.39736 0.791284C7.31944 0.724609 7.22768 0.688996 7.13378 0.688996C7.03988 0.688996 6.94811 0.724609 6.8702 0.791284C6.79229 0.857959 6.73177 0.952668 6.69638 1.06331L5.27972 5.4938H2.84895L1.43229 1.06331C1.38219 0.921597 1.29088 0.810086 1.17753 0.752197C1.06418 0.694307 0.93761 0.694543 0.824394 0.752854C0.711178 0.811166 0.620126 0.923016 0.570359 1.06492C0.520591 1.20682 0.51598 1.36774 0.557493 1.51387L1.82777 5.4938H0.524438C0.399197 5.4938 0.279085 5.55709 0.190526 5.66975C0.101967 5.78241 0.0522156 5.93521 0.0522156 6.09454C0.0522156 6.25387 0.101967 6.40667 0.190526 6.51933C0.279085 6.63199 0.399197 6.69528 0.524438 6.69528H2.21322L3.62989 11.1258C3.66528 11.2364 3.7258 11.3311 3.80371 11.3978C3.88162 11.4645 3.97339 11.5001 4.06729 11.5001C4.16118 11.5001 4.25295 11.4645 4.33086 11.3978C4.40877 11.3311 4.46929 11.2364 4.50468 11.1258L5.92135 6.69528H8.35565L9.77232 11.1258C9.80771 11.2364 9.86823 11.3311 9.94614 11.3978C10.0241 11.4645 10.1158 11.5001 10.2097 11.5001C10.3036 11.5001 10.3954 11.4645 10.4733 11.3978C10.5512 11.3311 10.6117 11.2364 10.6471 11.1258L12.0638 6.69528H13.7467C13.8719 6.69528 13.992 6.63199 14.0806 6.51933C14.1691 6.40667 14.2189 6.25387 14.2189 6.09454C14.2189 5.93521 14.1691 5.78241 14.0806 5.66975C13.992 5.55709 13.8719 5.4938 13.7467 5.4938ZM4.0661 9.30476L3.23263 6.69528H4.89958L4.0661 9.30476ZM6.30208 5.4938L7.13555 2.88507L7.96902 5.4938H6.30208ZM10.205 9.30476L9.37152 6.69528H11.0385L10.205 9.30476Z" fill="black"/>
</svg>
